<svg width="1400" height="500" viewBox="0 0 1400 500" fill="none" xmlns="http://www.w3.org/2000/svg">
<path d="M128.568 310.728C128.345 307.516 128.202 304.377 128.172 301.302C126.885 298.801 125.673 296.233 124.541 293.594C118.995 279.352 117.861 264.716 120.085 250.335C118.707 218.975 129.099 188.693 148.815 164.406C154.203 150.054 164.929 138.119 183.031 131.043C188.006 129.098 193.08 127.445 198.222 126.079C203.717 123.498 209.46 121.209 215.435 119.242C228.25 115.184 241.719 113.761 255.009 114.763C266.382 113.735 277.996 113.748 289.665 114.79C332.948 122.789 362.297 152.721 371.903 192.623C372.644 195.703 373.306 198.786 373.89 201.869C376.43 210.986 377.377 220.296 377.021 229.621C377.407 240.235 376.849 250.719 375.361 260.926C376.788 266.534 377.826 272.129 378.43 277.666C380.698 298.648 376.578 318.564 363.084 333.565C359.08 338.017 354.266 342.028 348.525 345.459C340.08 350.058 331.915 353.67 323.349 355.495C308.089 368.029 289.525 376.863 268.463 379.959C258.881 381.234 248.812 381.396 238.327 380.121C229.479 379.356 220.986 377.554 212.9 374.884C208.2 375.328 203.433 375.393 198.608 375.02C191.34 373.791 184.304 371.96 177.661 369.525C157.732 362.222 141.391 349.377 133.359 329.856C130.975 324.083 129.332 317.707 128.568 310.728Z" fill="white"/>
<path opacity="0.8" d="M278.493 346.385C255.231 363.31 227.988 377.29 198.592 375.018C191.324 373.789 184.288 371.958 177.645 369.523C157.716 362.22 141.375 349.375 133.343 329.854C130.959 324.08 129.316 317.705 128.552 310.726C127.279 292.41 128.622 276.458 138.598 261.133C164.73 229.416 182.205 197.003 196.046 156.266C205.212 136.605 224.608 126.288 245.301 123.483C252.569 122.347 260.045 121.906 267.73 122.184C319.114 126.126 353.764 179.915 365.753 233.496C367.466 241.147 368.716 248.798 369.48 256.287C374.456 305.463 326.22 321.066 293.028 336.74C288.306 339.73 283.469 343.023 278.493 346.385Z" fill="#F7931E"/>
<path opacity="0.4" d="M238.311 380.119C202.897 377.059 173.178 357.374 152.462 332.01C145.565 323.547 139.662 314.459 134.871 305.115C96.6337 230.598 134.871 145.764 215.419 119.24C251.226 107.902 292.149 117.13 319.97 142.379C366.448 188.54 386.631 262.617 354.227 317.403C350.037 325.356 344.991 332.891 339.182 339.8C321.753 360.528 297.472 375.691 268.447 379.957C258.865 381.232 248.796 381.394 238.311 380.119Z" fill="#7AC943"/>
<path opacity="0.4" d="M245.372 379.449C160.264 374.186 99.7829 280.402 129.826 200.575C157.787 136.723 222.943 108.809 289.882 114.79C333.165 122.789 362.514 152.721 372.12 192.623C391.331 272.449 357.329 354.246 275.971 378.266C266.296 380.005 256.088 380.492 245.372 379.449Z" fill="#3FA9F5"/>
<path opacity="0.4" d="M355.777 236.533C362.86 292.224 333.696 373.743 272.706 364.005C193.801 357.119 121.377 275.6 146.166 193.687C163.896 142.147 231.575 125.917 283.793 134.913C318.489 142.355 342.121 175.394 349.134 206.486C352.19 215.76 354.458 225.799 355.777 236.533Z" fill="#726789"/>
<path opacity="0.8" d="M314.762 195.264C339.506 209.708 363.439 228.906 374.132 256.473C376.192 263.567 377.65 270.662 378.414 277.664C380.682 298.646 376.563 318.562 363.068 333.563C359.064 338.015 354.25 342.026 348.509 345.457C333.14 353.827 318.697 358.928 301.083 355.937C262.198 344.785 226.483 341.724 185.098 345.249C164.058 344.692 146.722 331.152 135.334 313.462C131.214 307.318 127.58 300.71 124.525 293.592C105.753 245.39 137.533 192.667 178.941 160.602C184.843 156.035 190.954 151.861 197.134 148.221C237.732 124.248 272.104 161.877 300.065 185.828C304.763 188.981 309.693 192.064 314.762 195.264Z" fill="#FF7BAC"/>
<path opacity="0.8" d="M335.293 271.728C333.881 285.384 331.428 299.527 326.845 313.044C322.331 326.724 315.573 339.591 305.504 350.419C300.018 355.357 294.255 359.762 288.306 363.472C270.415 374.624 250.717 379.539 231.367 373.859C225.627 372.166 219.933 369.57 214.355 365.883C200.143 355.659 189.288 344.808 184.357 327.605C182.645 317.612 180.585 308.036 178.085 298.716C172.622 284.735 168.016 271.311 163.086 257.91C140.426 215.18 129.571 151.931 183.015 131.041C236.459 110.151 301.222 122.949 339.992 162.967C367.165 189.004 346.889 228.14 337.839 255.36C336.89 260.623 336.103 266.094 335.293 271.728Z" fill="#726789"/>
<path opacity="0.4" d="M190.63 354.453C132.441 327.21 98.9021 249.494 137.51 191.531C189.241 118.869 303.884 99.9498 360.962 174.977C397.232 226.031 365.938 290.578 329.53 329.923C320.155 340.333 309.601 349.283 298.097 356.099C286.571 362.916 274.095 367.576 260.855 369.407C247.616 371.239 233.659 370.219 219.192 365.675C209.726 363.31 200.12 359.646 190.63 354.453Z" fill="#726789"/>
<path opacity="0.5" d="M190.63 354.453C132.441 327.21 98.9021 249.494 137.51 191.531C189.241 118.869 303.884 99.9498 360.962 174.977C397.232 226.031 365.938 290.578 329.53 329.923C320.155 340.333 309.601 349.283 298.097 356.099C286.571 362.916 274.095 367.576 260.855 369.407C247.616 371.239 233.659 370.219 219.192 365.675C209.726 363.31 200.12 359.646 190.63 354.453Z" fill="#726789"/>
<path fill-rule="evenodd" clip-rule="evenodd" d="M264.096 180.286C264.998 181.191 266.225 181.701 267.521 181.701C268.817 181.701 270.021 181.191 270.947 180.286C271.85 179.382 272.359 178.153 272.359 176.855C272.359 175.557 271.873 174.351 270.947 173.424L263.656 166.12C256.504 158.956 244.884 158.956 237.732 166.12L230.441 173.424C229.539 174.328 229.029 175.557 229.029 176.855C229.029 178.153 229.515 179.359 230.441 180.286C231.344 181.191 232.571 181.701 233.867 181.701C235.163 181.701 236.367 181.214 237.293 180.286L244.584 172.983C246.227 171.36 248.379 170.456 250.694 170.456C253.009 170.456 255.184 171.36 256.805 172.983L264.096 180.286ZM238.982 167.349C242.199 164.126 246.458 162.503 250.694 162.503C254.93 162.503 259.166 164.103 262.406 167.349L269.697 174.652C270.901 175.858 270.901 177.806 269.697 179.011C268.493 180.217 266.549 180.217 265.346 179.011L258.055 171.708C256.087 169.737 253.472 168.647 250.694 168.647C247.917 168.647 245.301 169.737 243.334 171.708L236.043 179.011C234.885 180.17 232.848 180.17 231.691 179.011C231.113 178.432 230.788 177.666 230.788 176.832C230.788 176.02 231.113 175.232 231.691 174.652L238.982 167.349Z" fill="white"/>
<path fill-rule="evenodd" clip-rule="evenodd" d="M185.561 225.219C186.51 226.17 187.737 226.633 188.987 226.633C190.237 226.633 191.486 226.147 192.435 225.219L226.067 191.508C227.965 189.63 227.965 186.546 226.067 184.645C224.192 182.744 221.113 182.744 219.215 184.645L185.561 218.356C183.663 220.234 183.663 223.318 185.561 225.219ZM220.465 185.874C221.044 185.294 221.808 184.97 222.641 184.97C223.474 184.97 224.238 185.294 224.817 185.874C225.395 186.454 225.719 187.219 225.719 188.053C225.719 188.865 225.395 189.653 224.817 190.233L191.162 223.944C190.005 225.103 187.968 225.103 186.811 223.944C186.232 223.364 185.908 222.599 185.908 221.765C185.908 220.953 186.232 220.165 186.811 219.585L220.465 185.874Z" fill="white"/>
<path d="M320.179 270.152C321.081 271.056 322.308 271.566 323.604 271.566C324.9 271.566 326.104 271.079 327.03 270.152L334.321 262.849C341.473 255.684 341.473 244.045 334.321 236.881L327.03 229.578C326.127 228.674 324.9 228.164 323.604 228.164C322.308 228.164 321.105 228.651 320.179 229.578C319.276 230.482 318.767 231.711 318.767 233.009C318.767 234.308 319.253 235.513 320.179 236.441L327.47 243.744C330.826 247.129 330.826 252.624 327.47 255.986L320.179 263.289C318.281 265.167 318.281 268.251 320.179 270.152Z" fill="white"/>
<path d="M308.953 225.219C309.902 226.17 311.129 226.633 312.378 226.633C313.628 226.633 314.878 226.147 315.804 225.196C317.702 223.318 317.702 220.234 315.804 218.333L282.15 184.645C280.275 182.744 277.196 182.744 275.298 184.645C273.4 186.523 273.4 189.607 275.298 191.508L308.953 225.219Z" fill="white"/>
<path fill-rule="evenodd" clip-rule="evenodd" d="M177.784 271.566C176.488 271.566 175.261 271.056 174.358 270.152L167.067 262.849C159.915 255.684 159.915 244.045 167.067 236.881L174.358 229.578C175.284 228.651 176.488 228.164 177.784 228.164C179.08 228.164 180.307 228.674 181.21 229.578C182.135 230.505 182.621 231.711 182.621 233.009C182.621 234.308 182.112 235.537 181.21 236.441L173.919 243.744C170.562 247.106 170.562 252.601 173.919 255.986L181.21 263.289C182.135 264.217 182.621 265.422 182.621 266.721C182.621 268.019 182.112 269.248 181.21 270.152C180.284 271.079 179.08 271.566 177.784 271.566ZM177.784 229.926C176.951 229.926 176.187 230.25 175.608 230.83L168.317 238.133C161.859 244.602 161.859 255.128 168.317 261.597L175.608 268.9C176.766 270.059 178.802 270.059 179.96 268.9C181.163 267.694 181.163 265.747 179.96 264.541L172.669 257.238C168.618 253.18 168.618 246.573 172.669 242.492L179.96 235.189C180.538 234.609 180.862 233.821 180.862 233.009C180.862 232.175 180.538 231.41 179.96 230.83C179.381 230.25 178.594 229.926 177.784 229.926Z" fill="white"/>
<path fill-rule="evenodd" clip-rule="evenodd" d="M219.215 315.108C220.164 316.058 221.391 316.522 222.641 316.522C223.891 316.522 225.141 316.035 226.067 315.108C227.965 313.23 227.965 310.146 226.067 308.245L192.412 274.534C190.537 272.633 187.459 272.633 185.561 274.534C183.663 276.412 183.663 279.496 185.561 281.397L219.215 315.108ZM186.811 275.763C187.39 275.183 188.153 274.859 188.987 274.859C189.82 274.859 190.584 275.183 191.186 275.763L224.817 309.497C225.395 310.077 225.719 310.865 225.719 311.676C225.719 312.488 225.395 313.276 224.817 313.856C223.659 315.015 221.623 315.015 220.465 313.856L186.811 280.122C186.232 279.542 185.908 278.777 185.908 277.942C185.908 277.131 186.232 276.342 186.811 275.763Z" fill="white"/>
<path d="M275.298 315.108C276.247 316.058 277.474 316.522 278.724 316.522C279.974 316.522 281.224 316.035 282.173 315.108L315.804 281.397C317.702 279.519 317.702 276.435 315.804 274.534C313.929 272.633 310.851 272.633 308.953 274.534L275.298 308.245C273.4 310.123 273.4 313.207 275.298 315.108Z" fill="white"/>
<path d="M237.732 333.633C241.297 337.227 245.995 339.012 250.694 339.012C255.393 339.012 260.091 337.227 263.656 333.633L270.947 326.33C271.85 325.425 272.359 324.196 272.359 322.898C272.359 321.6 271.873 320.394 270.947 319.467C270.044 318.562 268.817 318.052 267.521 318.052C266.225 318.052 265.022 318.539 264.096 319.467L256.805 326.77C253.425 330.132 247.94 330.132 244.584 326.77L237.293 319.467C236.39 318.562 235.163 318.052 233.867 318.052C232.571 318.052 231.367 318.539 230.441 319.467C229.539 320.371 229.029 321.6 229.029 322.898C229.029 324.196 229.515 325.402 230.441 326.33L237.732 333.633Z" fill="white"/>
<path d="M215.257 249.865C215.257 237.623 224.169 228.697 236.228 228.697C248.287 228.697 257.198 237.623 257.198 249.865C257.198 262.107 248.287 271.033 236.228 271.033C224.169 271.033 215.257 262.107 215.257 249.865ZM254.305 249.865C254.305 239.2 246.551 231.433 236.228 231.433C225.905 231.433 218.151 239.2 218.151 249.865C218.151 260.53 225.905 268.297 236.228 268.297C246.551 268.297 254.305 260.53 254.305 249.865ZM234.006 249.865C234.006 248.798 234.839 247.964 235.904 247.964C236.968 247.964 237.802 248.798 237.802 249.865C237.802 250.931 236.968 251.766 235.904 251.766C234.839 251.766 234.006 250.931 234.006 249.865Z" fill="white"/>
<path d="M279.048 222.159C279.048 222.993 278.793 223.48 277.729 223.48H275.159C268.725 223.48 264.674 226.796 264.674 236.209V277.223C264.674 278.383 264.188 278.87 263.262 278.87C262.36 278.87 261.85 278.383 261.85 277.223V235.722C261.85 226.703 266.387 220.837 274.72 220.837H277.682C278.793 220.837 279.048 221.347 279.048 222.159ZM277.474 238.945C277.474 239.849 277.057 240.359 276.062 240.359H270.623C269.628 240.359 269.211 239.872 269.211 238.945C269.211 238.041 269.628 237.53 270.623 237.53H276.062C277.057 237.554 277.474 238.041 277.474 238.945Z" fill="white"/>
<path d="M421 258.193C421 245.61 430.414 236.385 443.55 236.385C456.687 236.385 466.125 245.587 466.125 258.193C466.125 270.704 456.711 280 443.55 280C430.414 280 421 270.704 421 258.193ZM455.918 258.193C455.918 251.103 451.163 245.61 443.55 245.61C435.937 245.61 431.182 251.103 431.182 258.193C431.182 265.282 435.937 270.704 443.55 270.704C451.163 270.704 455.918 265.282 455.918 258.193ZM439.42 258.193C439.42 255.751 441.245 253.873 443.814 253.873C446.408 253.873 448.233 255.728 448.233 258.193C448.233 260.657 446.408 262.418 443.814 262.418C441.221 262.418 439.42 260.634 439.42 258.193Z" fill="#494256"/>
<path d="M508.968 253.545C516.748 255.399 524.169 257.347 524.169 266.737C524.169 275.869 517.253 280 507.311 280C499.097 280 493.142 277.207 490.356 273.991C488.194 271.455 488.459 269.249 490.524 267.324C493.118 264.883 495.375 265.892 496.84 267.16C499.169 269.272 502.027 271.479 507.551 271.479C511.705 271.479 514.299 270.117 514.299 267.418C514.299 264.718 511.537 263.779 504.261 261.831C497.08 259.883 490.692 258.028 490.692 249.671C490.692 240.282 498.473 236.408 507.118 236.408C512.042 236.408 517.661 237.676 521.119 241.315C522.584 242.746 523.713 244.789 521.119 247.559C518.526 250.188 516.628 249.413 514.803 248.075C513.17 246.901 510.312 244.859 505.99 244.859C503.06 244.859 500.37 245.798 500.37 248.498C500.418 251.268 503.348 252.277 508.968 253.545Z" fill="#494256"/>
<path d="M590.067 242.23V260.915C590.067 274.695 580.293 280 569.75 280C559.111 280 549.361 274.671 549.361 260.915V242.23C549.361 239.272 551.354 237.066 554.452 237.066C557.478 237.066 559.544 239.272 559.544 242.23V260.235C559.544 267.746 563.866 270.704 569.75 270.704C575.538 270.704 579.861 267.746 579.861 260.235V242.23C579.861 239.272 581.926 237.066 584.952 237.066C588.074 237.066 590.067 239.272 590.067 242.23Z" fill="#494256"/>
<path d="M618.405 273.498C618.405 269.953 621.335 267.066 625.057 267.066C628.779 267.066 631.709 269.93 631.709 273.498C631.709 277.136 628.779 280 625.057 280C621.335 280 618.405 277.113 618.405 273.498ZM630.148 228.709V256.854C630.148 259.906 628.083 262.089 625.057 262.089C621.935 262.089 619.966 259.883 619.966 256.854V228.709C619.966 225.657 621.959 223.474 625.057 223.474C628.083 223.474 630.148 225.657 630.148 228.709Z" fill="#494256"/>
<path d="M682.069 222.019C682.069 223.286 681.373 224.038 679.908 224.038H676.45C669.701 224.038 665.811 227.582 665.811 236.455V276.854C665.811 278.451 665.043 279.296 663.65 279.296C662.185 279.296 661.392 278.451 661.392 276.854V236.15C661.392 226.338 666.483 220 676.09 220H679.884C681.397 220 682.069 220.751 682.069 222.019ZM680.34 239.272C680.34 240.634 679.572 241.385 678.083 241.385H672.631C671.166 241.385 670.374 240.634 670.374 239.272C670.374 237.84 671.142 237.066 672.631 237.066H678.083C679.572 237.066 680.34 237.817 680.34 239.272Z" fill="#494256"/>
<path d="M731.18 240.704C730.844 241.878 729.98 242.559 728.323 242.066C727.194 241.549 725.393 240.798 723.231 240.798C715.186 240.798 711.296 248.404 711.296 259.296V276.878C711.296 278.474 710.527 279.319 709.134 279.319C707.669 279.319 706.877 278.474 706.877 276.878V239.507C706.877 237.911 707.645 237.066 709.134 237.066C710.527 237.066 711.296 237.911 711.296 239.436V245.446H711.632C712.593 242.488 715.258 236.573 723.375 236.573C726.233 236.573 728.299 237.512 729.595 238.005C731.108 238.498 731.541 239.436 731.18 240.704Z" fill="#494256"/>
<path d="M779.09 277.465C779.09 278.826 778.394 279.483 776.761 279.483C761.896 279.483 752.722 270.61 752.722 258.192C752.722 245.352 762.328 236.573 775.632 236.573C788.264 236.573 795.685 243.075 795.685 255.329V276.784C795.685 278.38 794.916 279.319 793.428 279.319C791.963 279.319 791.17 278.38 791.17 276.784V256.667C791.17 245.516 785.983 240.704 775.536 240.704C764.825 240.704 757.213 248.052 757.213 258.028C757.213 268.169 764.465 275.352 776.737 275.352C778.394 275.352 779.09 276.009 779.09 277.465Z" fill="#494256"/>
<path d="M881.756 251.597V276.855C881.756 278.451 880.891 279.296 879.498 279.296C878.105 279.296 877.241 278.451 877.241 276.855V252.277C877.241 243.24 871.525 240.704 866.53 240.704C861.511 240.704 855.819 243.24 855.819 252.277V276.855C855.819 278.451 854.955 279.296 853.562 279.296C852.169 279.296 851.304 278.451 851.304 276.855V252.277C851.304 243.24 845.589 240.704 840.594 240.704C835.574 240.704 829.787 243.24 829.787 252.277V276.855C829.787 278.451 829.018 279.296 827.625 279.296C826.16 279.296 825.368 278.451 825.368 276.855V251.597C825.368 240.704 832.981 236.55 840.594 236.55C846.813 236.55 852.169 240.352 853.562 245C854.859 240.352 860.214 236.55 866.53 236.55C874.143 236.55 881.756 240.704 881.756 251.597Z" fill="#494256"/>
<path d="M946.381 273.239C947.149 274.178 946.981 275.258 945.684 276.291C943.186 278.31 937.639 279.836 931.947 279.836C917.61 279.836 909.205 270.704 909.205 258.216C909.205 245.634 918.187 236.596 930.651 236.596C941.794 236.596 949.935 243.685 949.935 254.929C949.935 258.051 948.302 259.742 945.348 259.742H929.09C927.697 259.742 926.832 259.061 926.832 257.723C926.832 256.455 927.697 255.774 929.09 255.774H945.684C945.684 245.798 938.768 240.657 930.819 240.657C920.708 240.657 913.696 248.098 913.696 258.239C913.696 268.286 920.276 275.821 931.755 275.821C936.846 275.821 941.265 274.296 943.09 272.864C944.387 271.972 945.588 272.136 946.381 273.239Z" fill="#494256"/>
<path d="M1005 270.868C1003.61 275.516 998.253 279.413 992.033 279.413C984.42 279.413 976.832 275.188 976.832 264.296V239.507C976.832 237.911 977.6 237.066 979.089 237.066C980.482 237.066 981.25 237.911 981.25 239.507V263.591C981.25 272.629 987.038 275.258 992.057 275.258C997.076 275.258 1002.77 272.629 1002.77 263.591V239.507C1002.77 237.911 1003.63 237.066 1005.03 237.066C1006.42 237.066 1007.28 237.911 1007.28 239.507V263.591C1007.28 272.629 1013 275.258 1017.99 275.258C1022.99 275.258 1028.7 272.629 1028.7 263.591V239.507C1028.7 237.911 1029.57 237.066 1030.96 237.066C1032.35 237.066 1033.22 237.911 1033.22 239.507V264.272C1033.22 275.164 1025.61 279.39 1017.99 279.39C1011.65 279.39 1006.3 275.516 1005 270.868Z" fill="#494256"/>
<path d="M1060.62 258.192C1060.62 245.681 1069.96 236.573 1082.67 236.573C1095.37 236.573 1104.71 245.704 1104.71 258.192C1104.71 270.681 1095.37 279.812 1082.67 279.812C1069.96 279.812 1060.62 270.704 1060.62 258.192ZM1100.2 258.192C1100.2 248.052 1092.75 240.704 1082.64 240.704C1072.53 240.704 1065.09 248.052 1065.09 258.192C1065.09 268.333 1072.51 275.681 1082.64 275.681C1092.78 275.681 1100.2 268.333 1100.2 258.192ZM1079.81 258.192C1079.81 256.76 1080.94 255.657 1082.5 255.657C1083.96 255.657 1085.09 256.76 1085.09 258.192C1085.09 259.624 1083.96 260.728 1082.5 260.728C1080.91 260.728 1079.81 259.624 1079.81 258.192Z" fill="#494256"/>
<path d="M1156.54 240.704C1156.2 241.878 1155.34 242.559 1153.68 242.066C1152.55 241.549 1150.75 240.798 1148.59 240.798C1140.54 240.798 1136.65 248.404 1136.65 259.296V276.878C1136.65 278.474 1135.88 279.319 1134.49 279.319C1133.03 279.319 1132.23 278.474 1132.23 276.878V239.507C1132.23 237.911 1133 237.066 1134.49 237.066C1135.88 237.066 1136.65 237.911 1136.65 239.436V245.446H1136.99C1137.95 242.488 1140.62 236.573 1148.76 236.573C1151.61 236.573 1153.68 237.512 1154.98 238.005C1156.44 238.498 1156.87 239.436 1156.54 240.704Z" fill="#494256"/>
<path d="M1213.29 279.225C1211.89 279.554 1210.79 278.803 1210.43 277.371L1208.1 269.085C1206.2 262.23 1201.88 259.108 1195.49 259.108H1186.68V276.854C1186.68 278.451 1185.91 279.296 1184.52 279.296C1183.05 279.296 1182.26 278.451 1182.26 276.854V222.441C1182.26 220.845 1183.03 220 1184.52 220C1185.91 220 1186.68 220.845 1186.68 222.441V254.977H1195.49C1201.11 254.977 1204.14 252.277 1206.13 245.188L1208.19 238.685C1208.53 237.324 1209.59 236.831 1210.88 237.16C1212.28 237.582 1212.78 238.521 1212.35 240.117L1210.09 247.629C1209.06 250.916 1206.8 254.812 1202.65 256.596C1207.31 258.122 1210.96 262.606 1212.32 267.746L1214.65 276.197C1215.11 277.793 1214.68 278.897 1213.29 279.225Z" fill="#494256"/>
<path d="M431.15 175.76C426.68 175.76 423.68 178.82 423.68 183.38V193.76C423.68 194.84 424.37 195.62 425.45 195.62C426.53 195.62 427.22 194.84 427.22 193.76V189.29H427.4C428.12 190.37 429.62 191.24 431.81 191.24C436.19 191.24 439.07 187.76 439.07 183.47C439.07 178.79 435.71 175.76 431.15 175.76ZM431.42 188C428.99 188 427.22 186.38 427.22 183.89V183.59C427.22 181.01 428.45 179.03 431.18 179.03C433.91 179.03 435.53 180.98 435.53 183.5C435.53 185.75 434.21 188 431.42 188ZM455.133 191.24C459.693 191.24 462.963 187.94 462.963 183.5C462.963 179.03 459.693 175.76 455.133 175.76C450.573 175.76 447.303 179.03 447.303 183.5C447.303 187.94 450.573 191.24 455.133 191.24ZM455.133 187.94C452.493 187.94 450.843 186.02 450.843 183.5C450.843 180.98 452.493 179.03 455.133 179.03C457.773 179.03 459.423 180.98 459.423 183.5C459.423 186.02 457.773 187.94 455.133 187.94ZM489.962 176.09C488.942 175.73 487.952 176.12 487.652 177.2L484.982 185.93L482.462 177.62C482.252 176.81 481.592 176.3 480.872 176.3C480.122 176.3 479.462 176.81 479.222 177.62L476.702 185.93L474.062 177.2C473.762 176.12 472.772 175.73 471.722 176.09C470.732 176.45 470.342 177.44 470.702 178.43L474.902 189.74C475.262 190.64 475.922 191 476.642 191C477.602 191 478.112 190.37 478.352 189.65L480.872 182.36L483.362 189.62C483.572 190.4 484.112 191 485.072 191C485.792 191 486.452 190.64 486.782 189.74L490.982 178.43C491.372 177.44 490.982 176.45 489.962 176.09ZM513.257 182.39C513.257 178.4 510.227 175.76 506.297 175.76C502.007 175.76 498.737 178.94 498.737 183.53C498.737 187.88 501.767 191.24 506.657 191.24C508.547 191.24 510.227 190.76 511.337 190.13C512.327 189.53 512.537 188.75 512.057 187.88C511.517 186.92 510.767 186.83 509.747 187.25C508.817 187.67 507.767 188.06 506.567 188.06C504.407 188.06 502.967 186.8 502.487 184.97H510.857C512.357 184.97 513.257 183.86 513.257 182.39ZM502.457 182.03C502.937 180.17 504.317 178.85 506.237 178.85C508.337 178.85 509.867 180.47 509.897 182.03H502.457ZM530.469 175.85C530.199 175.79 529.869 175.73 529.449 175.73C527.979 175.73 526.269 176.6 525.519 178.07H525.369V177.71C525.339 176.66 524.649 175.97 523.659 175.97C522.579 175.97 521.889 176.75 521.889 177.83V189.14C521.889 190.22 522.579 191 523.659 191C524.739 191 525.429 190.22 525.429 189.14V185.18C525.429 180.89 527.049 179.09 529.089 179.12C529.359 179.12 529.629 179.15 529.869 179.18C530.949 179.39 531.729 178.88 531.909 177.86C532.059 176.78 531.519 176.06 530.469 175.85ZM553.411 182.39C553.411 178.4 550.381 175.76 546.451 175.76C542.161 175.76 538.891 178.94 538.891 183.53C538.891 187.88 541.921 191.24 546.811 191.24C548.701 191.24 550.381 190.76 551.491 190.13C552.481 189.53 552.691 188.75 552.211 187.88C551.671 186.92 550.921 186.83 549.901 187.25C548.971 187.67 547.921 188.06 546.721 188.06C544.561 188.06 543.121 186.8 542.641 184.97H551.011C552.511 184.97 553.411 183.86 553.411 182.39ZM542.611 182.03C543.091 180.17 544.471 178.85 546.391 178.85C548.491 178.85 550.021 180.47 550.051 182.03H542.611ZM575.269 169.91C574.219 169.91 573.499 170.69 573.499 171.77V177.47H573.319C572.839 176.96 571.819 175.76 569.209 175.76C565.249 175.76 561.649 178.79 561.649 183.53C561.649 188.12 564.979 191.24 569.449 191.24C573.769 191.24 577.039 188.21 577.039 184.16V171.77C577.039 170.69 576.349 169.91 575.269 169.91ZM573.529 183.89C573.529 186.26 571.999 187.94 569.539 187.94C566.839 187.94 565.189 185.81 565.189 183.44C565.189 180.77 567.229 178.97 569.629 178.97C572.059 178.97 573.529 180.8 573.529 183.32V183.89ZM608.628 175.76C606.378 175.76 604.938 176.66 604.218 177.59H604.038V171.77C604.038 170.69 603.348 169.91 602.268 169.91C601.188 169.91 600.498 170.69 600.498 171.77V184.25C600.498 187.79 603.078 191.24 608.058 191.24C613.218 191.24 615.888 187.67 615.888 183.44C615.888 178.7 612.588 175.76 608.628 175.76ZM608.178 187.94C605.448 187.94 604.038 186.02 604.038 183.44V183.23C604.038 180.8 605.658 178.97 608.088 178.97C610.608 178.97 612.348 180.74 612.348 183.53C612.348 185.39 611.478 187.94 608.178 187.94ZM637.082 176C636.002 176 635.312 176.78 635.312 177.83V184.13C635.312 185.63 634.232 187.04 631.682 187.07C629.912 187.1 628.232 186.5 628.232 183.38V177.83C628.232 176.78 627.542 176 626.462 176C625.382 176 624.692 176.78 624.692 177.83V183.68C624.692 188.57 627.872 190.25 630.812 190.25C633.392 190.25 634.802 188.93 635.342 187.91H635.522V187.94C635.522 191.39 633.482 192.38 631.412 192.44C630.362 192.5 629.732 192.35 628.502 191.96C627.542 191.66 626.792 192.08 626.492 192.98C626.252 193.82 626.462 194.66 627.482 195.02C628.892 195.47 630.032 195.62 631.682 195.62C635.222 195.62 638.852 193.43 638.852 188.75V177.83C638.852 176.78 638.162 176 637.082 176Z" fill="#736989"/>
</svg>
