<svg width="500" height="500" viewBox="0 0 500 500" fill="none" xmlns="http://www.w3.org/2000/svg">
<circle cx="250" cy="251" r="140" fill="black"/>
<path fill-rule="evenodd" clip-rule="evenodd" d="M263.096 181.286C263.998 182.191 265.225 182.701 266.521 182.701C267.817 182.701 269.021 182.191 269.947 181.286C270.85 180.382 271.359 179.153 271.359 177.855C271.359 176.557 270.873 175.351 269.947 174.424L262.656 167.12C255.504 159.956 243.884 159.956 236.732 167.12L229.441 174.424C228.539 175.328 228.029 176.557 228.029 177.855C228.029 179.153 228.515 180.359 229.441 181.286C230.344 182.191 231.571 182.701 232.867 182.701C234.163 182.701 235.367 182.214 236.293 181.286L243.584 173.983C245.227 172.36 247.379 171.456 249.694 171.456C252.009 171.456 254.184 172.36 255.805 173.983L263.096 181.286ZM237.982 168.349C241.199 165.126 245.458 163.503 249.694 163.503C253.93 163.503 258.166 165.103 261.406 168.349L268.697 175.652C269.901 176.858 269.901 178.806 268.697 180.011C267.493 181.217 265.549 181.217 264.346 180.011L257.055 172.708C255.087 170.737 252.472 169.647 249.694 169.647C246.917 169.647 244.301 170.737 242.334 172.708L235.043 180.011C233.885 181.17 231.848 181.17 230.691 180.011C230.113 179.432 229.788 178.666 229.788 177.832C229.788 177.02 230.113 176.232 230.691 175.652L237.982 168.349Z" fill="white"/>
<path fill-rule="evenodd" clip-rule="evenodd" d="M184.561 226.219C185.51 227.17 186.737 227.633 187.987 227.633C189.237 227.633 190.486 227.147 191.435 226.219L225.067 192.508C226.965 190.63 226.965 187.546 225.067 185.645C223.192 183.744 220.113 183.744 218.215 185.645L184.561 219.356C182.663 221.234 182.663 224.318 184.561 226.219ZM219.465 186.874C220.044 186.294 220.808 185.97 221.641 185.97C222.474 185.97 223.238 186.294 223.817 186.874C224.395 187.454 224.719 188.219 224.719 189.053C224.719 189.865 224.395 190.653 223.817 191.233L190.162 224.944C189.005 226.103 186.968 226.103 185.811 224.944C185.232 224.364 184.908 223.599 184.908 222.765C184.908 221.953 185.232 221.165 185.811 220.585L219.465 186.874Z" fill="white"/>
<path d="M319.179 271.152C320.081 272.056 321.308 272.566 322.604 272.566C323.9 272.566 325.104 272.079 326.03 271.152L333.321 263.849C340.473 256.684 340.473 245.045 333.321 237.881L326.03 230.578C325.127 229.674 323.9 229.164 322.604 229.164C321.308 229.164 320.105 229.651 319.179 230.578C318.276 231.482 317.767 232.711 317.767 234.009C317.767 235.308 318.253 236.513 319.179 237.441L326.47 244.744C329.826 248.129 329.826 253.624 326.47 256.986L319.179 264.289C317.281 266.167 317.281 269.251 319.179 271.152Z" fill="white"/>
<path d="M307.953 226.219C308.902 227.17 310.129 227.633 311.378 227.633C312.628 227.633 313.878 227.147 314.804 226.196C316.702 224.318 316.702 221.234 314.804 219.333L281.15 185.645C279.275 183.744 276.196 183.744 274.298 185.645C272.4 187.523 272.4 190.607 274.298 192.508L307.953 226.219Z" fill="white"/>
<path fill-rule="evenodd" clip-rule="evenodd" d="M176.784 272.566C175.488 272.566 174.261 272.056 173.358 271.152L166.067 263.849C158.915 256.684 158.915 245.045 166.067 237.881L173.358 230.578C174.284 229.651 175.488 229.164 176.784 229.164C178.08 229.164 179.307 229.674 180.21 230.578C181.135 231.505 181.621 232.711 181.621 234.009C181.621 235.308 181.112 236.537 180.21 237.441L172.919 244.744C169.562 248.106 169.562 253.601 172.919 256.986L180.21 264.289C181.135 265.217 181.621 266.422 181.621 267.721C181.621 269.019 181.112 270.248 180.21 271.152C179.284 272.079 178.08 272.566 176.784 272.566ZM176.784 230.926C175.951 230.926 175.187 231.25 174.608 231.83L167.317 239.133C160.859 245.602 160.859 256.128 167.317 262.597L174.608 269.9C175.766 271.059 177.802 271.059 178.96 269.9C180.163 268.694 180.163 266.747 178.96 265.541L171.669 258.238C167.618 254.18 167.618 247.573 171.669 243.492L178.96 236.189C179.538 235.609 179.862 234.821 179.862 234.009C179.862 233.175 179.538 232.41 178.96 231.83C178.381 231.25 177.594 230.926 176.784 230.926Z" fill="white"/>
<path fill-rule="evenodd" clip-rule="evenodd" d="M218.215 316.108C219.164 317.058 220.391 317.522 221.641 317.522C222.891 317.522 224.141 317.035 225.067 316.108C226.965 314.23 226.965 311.146 225.067 309.245L191.412 275.534C189.537 273.633 186.459 273.633 184.561 275.534C182.663 277.412 182.663 280.496 184.561 282.397L218.215 316.108ZM185.811 276.763C186.39 276.183 187.153 275.859 187.987 275.859C188.82 275.859 189.584 276.183 190.186 276.763L223.817 310.497C224.395 311.077 224.719 311.865 224.719 312.676C224.719 313.488 224.395 314.276 223.817 314.856C222.659 316.015 220.623 316.015 219.465 314.856L185.811 281.122C185.232 280.542 184.908 279.777 184.908 278.942C184.908 278.131 185.232 277.342 185.811 276.763Z" fill="white"/>
<path d="M274.298 316.108C275.247 317.058 276.474 317.522 277.724 317.522C278.974 317.522 280.224 317.035 281.173 316.108L314.804 282.397C316.702 280.519 316.702 277.435 314.804 275.534C312.929 273.633 309.851 273.633 307.953 275.534L274.298 309.245C272.4 311.123 272.4 314.207 274.298 316.108Z" fill="white"/>
<path d="M236.732 334.633C240.297 338.227 244.995 340.012 249.694 340.012C254.393 340.012 259.091 338.227 262.656 334.633L269.947 327.33C270.85 326.425 271.359 325.196 271.359 323.898C271.359 322.6 270.873 321.394 269.947 320.467C269.044 319.562 267.817 319.052 266.521 319.052C265.225 319.052 264.022 319.539 263.096 320.467L255.805 327.77C252.425 331.132 246.94 331.132 243.584 327.77L236.293 320.467C235.39 319.562 234.163 319.052 232.867 319.052C231.571 319.052 230.367 319.539 229.441 320.467C228.539 321.371 228.029 322.6 228.029 323.898C228.029 325.196 228.515 326.402 229.441 327.33L236.732 334.633Z" fill="white"/>
<path d="M214.257 250.865C214.257 238.623 223.169 229.697 235.228 229.697C247.287 229.697 256.198 238.623 256.198 250.865C256.198 263.107 247.287 272.033 235.228 272.033C223.169 272.033 214.257 263.107 214.257 250.865ZM253.305 250.865C253.305 240.2 245.551 232.433 235.228 232.433C224.905 232.433 217.151 240.2 217.151 250.865C217.151 261.53 224.905 269.297 235.228 269.297C245.551 269.297 253.305 261.53 253.305 250.865ZM233.006 250.865C233.006 249.799 233.839 248.964 234.904 248.964C235.968 248.964 236.802 249.799 236.802 250.865C236.802 251.932 235.968 252.766 234.904 252.766C233.839 252.766 233.006 251.932 233.006 250.865Z" fill="white"/>
<path d="M278.048 223.159C278.048 223.993 277.793 224.48 276.729 224.48H274.159C267.725 224.48 263.674 227.796 263.674 237.209V278.223C263.674 279.383 263.188 279.87 262.262 279.87C261.36 279.87 260.85 279.383 260.85 278.223V236.722C260.85 227.703 265.387 221.837 273.72 221.837H276.682C277.793 221.837 278.048 222.347 278.048 223.159ZM276.474 239.945C276.474 240.849 276.057 241.359 275.062 241.359H269.623C268.628 241.359 268.211 240.872 268.211 239.945C268.211 239.041 268.628 238.53 269.623 238.53H275.062C276.057 238.554 276.474 239.041 276.474 239.945Z" fill="white"/>
<path d="M118 439.731C118 435.537 121.138 432.462 125.517 432.462C129.896 432.462 133.042 435.529 133.042 439.731C133.042 443.901 129.904 447 125.517 447C121.138 447 118 443.901 118 439.731ZM129.639 439.731C129.639 437.368 128.054 435.537 125.517 435.537C122.979 435.537 121.394 437.368 121.394 439.731C121.394 442.094 122.979 443.901 125.517 443.901C128.054 443.901 129.639 442.094 129.639 439.731ZM124.14 439.731C124.14 438.917 124.748 438.291 125.605 438.291C126.469 438.291 127.078 438.909 127.078 439.731C127.078 440.552 126.469 441.139 125.605 441.139C124.74 441.139 124.14 440.545 124.14 439.731Z" fill="black"/>
<path d="M147.322 438.182C149.916 438.8 152.39 439.449 152.39 442.579C152.39 445.623 150.084 447 146.77 447C144.032 447 142.047 446.069 141.119 444.997C140.398 444.152 140.486 443.416 141.175 442.775C142.039 441.961 142.792 442.297 143.28 442.72C144.056 443.424 145.009 444.16 146.85 444.16C148.235 444.16 149.1 443.706 149.1 442.806C149.1 441.906 148.179 441.593 145.754 440.944C143.36 440.294 141.231 439.676 141.231 436.89C141.231 433.761 143.824 432.469 146.706 432.469C148.347 432.469 150.22 432.892 151.373 434.105C151.861 434.582 152.238 435.263 151.373 436.186C150.509 437.063 149.876 436.804 149.268 436.358C148.723 435.967 147.771 435.286 146.33 435.286C145.353 435.286 144.457 435.599 144.457 436.499C144.473 437.423 145.449 437.759 147.322 438.182Z" fill="black"/>
<path d="M174.356 434.41V440.639C174.356 445.232 171.098 447 167.583 447C164.037 447 160.787 445.224 160.787 440.639V434.41C160.787 433.424 161.451 432.689 162.484 432.689C163.493 432.689 164.181 433.424 164.181 434.41V440.412C164.181 442.916 165.622 443.902 167.583 443.902C169.513 443.902 170.953 442.916 170.953 440.412V434.41C170.953 433.424 171.642 432.689 172.651 432.689C173.691 432.689 174.356 433.424 174.356 434.41Z" fill="black"/>
<path d="M183.802 444.832C183.802 443.651 184.778 442.688 186.019 442.688C187.26 442.688 188.236 443.643 188.236 444.832C188.236 446.045 187.26 447 186.019 447C184.778 447 183.802 446.037 183.802 444.832ZM187.716 429.903V439.285C187.716 440.302 187.028 441.03 186.019 441.03C184.978 441.03 184.322 440.294 184.322 439.285V429.903C184.322 428.886 184.986 428.158 186.019 428.158C187.028 428.158 187.716 428.886 187.716 429.903Z" fill="black"/>
<path d="M205.023 427.673C205.023 428.095 204.791 428.346 204.303 428.346H203.15C200.9 428.346 199.604 429.527 199.604 432.485V445.951C199.604 446.484 199.347 446.765 198.883 446.765C198.395 446.765 198.131 446.484 198.131 445.951V432.383C198.131 429.113 199.828 427 203.03 427H204.295C204.799 427 205.023 427.25 205.023 427.673ZM204.447 433.424C204.447 433.878 204.19 434.128 203.694 434.128H201.877C201.389 434.128 201.125 433.878 201.125 433.424C201.125 432.947 201.381 432.689 201.877 432.689H203.694C204.19 432.689 204.447 432.939 204.447 433.424Z" fill="black"/>
<path d="M221.393 433.901C221.281 434.293 220.993 434.519 220.441 434.355C220.064 434.183 219.464 433.933 218.744 433.933C216.062 433.933 214.765 436.468 214.765 440.099V445.959C214.765 446.491 214.509 446.773 214.045 446.773C213.556 446.773 213.292 446.491 213.292 445.959V433.502C213.292 432.97 213.548 432.688 214.045 432.688C214.509 432.688 214.765 432.97 214.765 433.479V435.482H214.877C215.197 434.496 216.086 432.524 218.792 432.524C219.744 432.524 220.433 432.837 220.865 433.001C221.369 433.166 221.513 433.479 221.393 433.901Z" fill="black"/>
<path d="M237.363 446.155C237.363 446.609 237.131 446.828 236.587 446.828C231.632 446.828 228.574 443.87 228.574 439.731C228.574 435.451 231.776 432.524 236.211 432.524C240.421 432.524 242.895 434.692 242.895 438.776V445.928C242.895 446.46 242.639 446.773 242.142 446.773C241.654 446.773 241.39 446.46 241.39 445.928V439.222C241.39 435.505 239.661 433.901 236.179 433.901C232.608 433.901 230.071 436.35 230.071 439.676C230.071 443.056 232.488 445.451 236.579 445.451C237.131 445.451 237.363 445.67 237.363 446.155Z" fill="black"/>
<path d="M271.585 437.532V445.952C271.585 446.484 271.297 446.765 270.833 446.765C270.368 446.765 270.08 446.484 270.08 445.952V437.759C270.08 434.747 268.175 433.902 266.51 433.902C264.837 433.902 262.94 434.747 262.94 437.759V445.952C262.94 446.484 262.651 446.765 262.187 446.765C261.723 446.765 261.435 446.484 261.435 445.952V437.759C261.435 434.747 259.529 433.902 257.864 433.902C256.191 433.902 254.262 434.747 254.262 437.759V445.952C254.262 446.484 254.006 446.765 253.542 446.765C253.053 446.765 252.789 446.484 252.789 445.952V437.532C252.789 433.902 255.327 432.517 257.864 432.517C259.938 432.517 261.723 433.784 262.187 435.334C262.619 433.784 264.405 432.517 266.51 432.517C269.047 432.517 271.585 433.902 271.585 437.532Z" fill="black"/>
<path d="M293.127 444.746C293.383 445.059 293.327 445.419 292.895 445.764C292.062 446.437 290.213 446.945 288.316 446.945C283.537 446.945 280.735 443.901 280.735 439.739C280.735 435.545 283.729 432.532 287.883 432.532C291.598 432.532 294.311 434.895 294.311 438.643C294.311 439.684 293.767 440.247 292.782 440.247H287.363C286.899 440.247 286.611 440.02 286.611 439.574C286.611 439.152 286.899 438.925 287.363 438.925H292.895C292.895 435.599 290.589 433.886 287.939 433.886C284.569 433.886 282.232 436.366 282.232 439.746C282.232 443.095 284.425 445.607 288.252 445.607C289.949 445.607 291.422 445.098 292.03 444.621C292.462 444.324 292.863 444.379 293.127 444.746Z" fill="black"/>
<path d="M312.667 443.956C312.203 445.506 310.417 446.805 308.344 446.805C305.807 446.805 303.277 445.396 303.277 441.765V433.502C303.277 432.97 303.533 432.689 304.029 432.689C304.494 432.689 304.75 432.97 304.75 433.502V441.531C304.75 444.543 306.679 445.42 308.352 445.42C310.025 445.42 311.922 444.543 311.922 441.531V433.502C311.922 432.97 312.211 432.689 312.675 432.689C313.139 432.689 313.427 432.97 313.427 433.502V441.531C313.427 444.543 315.333 445.42 316.998 445.42C318.663 445.42 320.568 444.543 320.568 441.531V433.502C320.568 432.97 320.856 432.689 321.32 432.689C321.785 432.689 322.073 432.97 322.073 433.502V441.758C322.073 445.388 319.535 446.797 316.998 446.797C314.884 446.797 313.099 445.506 312.667 443.956Z" fill="black"/>
<path d="M331.207 439.731C331.207 435.56 334.321 432.524 338.555 432.524C342.79 432.524 345.904 435.568 345.904 439.731C345.904 443.893 342.79 446.937 338.555 446.937C334.321 446.937 331.207 443.901 331.207 439.731ZM344.399 439.731C344.399 436.35 341.918 433.901 338.547 433.901C335.177 433.901 332.696 436.35 332.696 439.731C332.696 443.111 335.169 445.56 338.547 445.56C341.926 445.56 344.399 443.111 344.399 439.731ZM337.603 439.731C337.603 439.253 337.979 438.886 338.499 438.886C338.988 438.886 339.364 439.253 339.364 439.731C339.364 440.208 338.988 440.576 338.499 440.576C337.971 440.576 337.603 440.208 337.603 439.731Z" fill="black"/>
<path d="M363.179 433.901C363.067 434.293 362.779 434.519 362.226 434.355C361.85 434.183 361.25 433.933 360.529 433.933C357.848 433.933 356.551 436.468 356.551 440.099V445.959C356.551 446.491 356.295 446.773 355.83 446.773C355.342 446.773 355.078 446.491 355.078 445.959V433.502C355.078 432.97 355.334 432.688 355.83 432.688C356.295 432.688 356.551 432.97 356.551 433.479V435.482H356.663C356.983 434.496 357.872 432.524 360.585 432.524C361.538 432.524 362.226 432.837 362.659 433.001C363.147 433.166 363.291 433.479 363.179 433.901Z" fill="black"/>
<path d="M382.095 446.742C381.631 446.851 381.262 446.601 381.142 446.124L380.366 443.361C379.733 441.077 378.292 440.036 376.163 440.036H373.225V445.951C373.225 446.484 372.969 446.765 372.505 446.765C372.016 446.765 371.752 446.484 371.752 445.951V427.814C371.752 427.282 372.008 427 372.505 427C372.969 427 373.225 427.282 373.225 427.814V438.659H376.163C378.036 438.659 379.045 437.759 379.709 435.396L380.398 433.228C380.51 432.775 380.862 432.61 381.294 432.72C381.759 432.861 381.927 433.174 381.783 433.706L381.03 436.21C380.686 437.305 379.934 438.604 378.549 439.199C380.102 439.707 381.318 441.202 381.775 442.915L382.551 445.732C382.703 446.264 382.559 446.632 382.095 446.742Z" fill="black"/>
<path d="M189.931 48.856C187.249 48.856 185.449 50.692 185.449 53.428V59.656C185.449 60.304 185.863 60.772 186.511 60.772C187.159 60.772 187.573 60.304 187.573 59.656V56.974H187.681C188.113 57.622 189.013 58.144 190.327 58.144C192.955 58.144 194.683 56.056 194.683 53.482C194.683 50.674 192.667 48.856 189.931 48.856ZM190.093 56.2C188.635 56.2 187.573 55.228 187.573 53.734V53.554C187.573 52.006 188.311 50.818 189.949 50.818C191.587 50.818 192.559 51.988 192.559 53.5C192.559 54.85 191.767 56.2 190.093 56.2ZM204.321 58.144C207.057 58.144 209.019 56.164 209.019 53.5C209.019 50.818 207.057 48.856 204.321 48.856C201.585 48.856 199.623 50.818 199.623 53.5C199.623 56.164 201.585 58.144 204.321 58.144ZM204.321 56.164C202.737 56.164 201.747 55.012 201.747 53.5C201.747 51.988 202.737 50.818 204.321 50.818C205.905 50.818 206.895 51.988 206.895 53.5C206.895 55.012 205.905 56.164 204.321 56.164ZM225.218 49.054C224.606 48.838 224.012 49.072 223.832 49.72L222.23 54.958L220.718 49.972C220.592 49.486 220.196 49.18 219.764 49.18C219.314 49.18 218.918 49.486 218.774 49.972L217.262 54.958L215.678 49.72C215.498 49.072 214.904 48.838 214.274 49.054C213.68 49.27 213.446 49.864 213.662 50.458L216.182 57.244C216.398 57.784 216.794 58 217.226 58C217.802 58 218.108 57.622 218.252 57.19L219.764 52.816L221.258 57.172C221.384 57.64 221.708 58 222.284 58C222.716 58 223.112 57.784 223.31 57.244L225.83 50.458C226.064 49.864 225.83 49.27 225.218 49.054ZM239.195 52.834C239.195 50.44 237.377 48.856 235.019 48.856C232.445 48.856 230.483 50.764 230.483 53.518C230.483 56.128 232.301 58.144 235.235 58.144C236.369 58.144 237.377 57.856 238.043 57.478C238.637 57.118 238.763 56.65 238.475 56.128C238.151 55.552 237.701 55.498 237.089 55.75C236.531 56.002 235.901 56.236 235.181 56.236C233.885 56.236 233.021 55.48 232.733 54.382H237.755C238.655 54.382 239.195 53.716 239.195 52.834ZM232.715 52.618C233.003 51.502 233.831 50.71 234.983 50.71C236.243 50.71 237.161 51.682 237.179 52.618H232.715ZM249.522 48.91C249.36 48.874 249.162 48.838 248.91 48.838C248.028 48.838 247.002 49.36 246.552 50.242H246.462V50.026C246.444 49.396 246.03 48.982 245.436 48.982C244.788 48.982 244.374 49.45 244.374 50.098V56.884C244.374 57.532 244.788 58 245.436 58C246.084 58 246.498 57.532 246.498 56.884V54.508C246.498 51.934 247.47 50.854 248.694 50.872C248.856 50.872 249.018 50.89 249.162 50.908C249.81 51.034 250.278 50.728 250.386 50.116C250.476 49.468 250.152 49.036 249.522 48.91ZM263.287 52.834C263.287 50.44 261.469 48.856 259.111 48.856C256.537 48.856 254.575 50.764 254.575 53.518C254.575 56.128 256.393 58.144 259.327 58.144C260.461 58.144 261.469 57.856 262.135 57.478C262.729 57.118 262.855 56.65 262.567 56.128C262.243 55.552 261.793 55.498 261.181 55.75C260.623 56.002 259.993 56.236 259.273 56.236C257.977 56.236 257.113 55.48 256.825 54.382H261.847C262.747 54.382 263.287 53.716 263.287 52.834ZM256.807 52.618C257.095 51.502 257.923 50.71 259.075 50.71C260.335 50.71 261.253 51.682 261.271 52.618H256.807ZM276.402 45.346C275.772 45.346 275.34 45.814 275.34 46.462V49.882H275.232C274.944 49.576 274.332 48.856 272.766 48.856C270.39 48.856 268.23 50.674 268.23 53.518C268.23 56.272 270.228 58.144 272.91 58.144C275.502 58.144 277.464 56.326 277.464 53.896V46.462C277.464 45.814 277.05 45.346 276.402 45.346ZM275.358 53.734C275.358 55.156 274.44 56.164 272.964 56.164C271.344 56.164 270.354 54.886 270.354 53.464C270.354 51.862 271.578 50.782 273.018 50.782C274.476 50.782 275.358 51.88 275.358 53.392V53.734ZM296.418 48.856C295.068 48.856 294.204 49.396 293.772 49.954H293.664V46.462C293.664 45.814 293.25 45.346 292.602 45.346C291.954 45.346 291.54 45.814 291.54 46.462V53.95C291.54 56.074 293.088 58.144 296.076 58.144C299.172 58.144 300.774 56.002 300.774 53.464C300.774 50.62 298.794 48.856 296.418 48.856ZM296.148 56.164C294.51 56.164 293.664 55.012 293.664 53.464V53.338C293.664 51.88 294.636 50.782 296.094 50.782C297.606 50.782 298.65 51.844 298.65 53.518C298.65 54.634 298.128 56.164 296.148 56.164ZM313.49 49C312.842 49 312.428 49.468 312.428 50.098V53.878C312.428 54.778 311.78 55.624 310.25 55.642C309.188 55.66 308.18 55.3 308.18 53.428V50.098C308.18 49.468 307.766 49 307.118 49C306.47 49 306.056 49.468 306.056 50.098V53.608C306.056 56.542 307.964 57.55 309.728 57.55C311.276 57.55 312.122 56.758 312.446 56.146H312.554V56.164C312.554 58.234 311.33 58.828 310.088 58.864C309.458 58.9 309.08 58.81 308.342 58.576C307.766 58.396 307.316 58.648 307.136 59.188C306.992 59.692 307.118 60.196 307.73 60.412C308.576 60.682 309.26 60.772 310.25 60.772C312.374 60.772 314.552 59.458 314.552 56.65V50.098C314.552 49.468 314.138 49 313.49 49Z" fill="black"/>
</svg>
