<svg width="1400" height="500" viewBox="0 0 1400 500" fill="none" xmlns="http://www.w3.org/2000/svg">
<circle cx="251" cy="250" r="140" fill="black"/>
<path fill-rule="evenodd" clip-rule="evenodd" d="M264.096 180.286C264.998 181.191 266.225 181.701 267.521 181.701C268.817 181.701 270.021 181.191 270.947 180.286C271.85 179.382 272.359 178.153 272.359 176.855C272.359 175.557 271.873 174.351 270.947 173.424L263.656 166.12C256.504 158.956 244.884 158.956 237.732 166.12L230.441 173.424C229.539 174.328 229.029 175.557 229.029 176.855C229.029 178.153 229.515 179.359 230.441 180.286C231.344 181.191 232.571 181.701 233.867 181.701C235.163 181.701 236.367 181.214 237.292 180.286L244.583 172.983C246.227 171.36 248.379 170.456 250.694 170.456C253.009 170.456 255.184 171.36 256.805 172.983L264.096 180.286ZM238.982 167.349C242.199 164.126 246.458 162.503 250.694 162.503C254.93 162.503 259.165 164.103 262.406 167.349L269.697 174.652C270.901 175.858 270.901 177.806 269.697 179.011C268.493 180.217 266.549 180.217 265.346 179.011L258.054 171.708C256.087 169.737 253.472 168.647 250.694 168.647C247.917 168.647 245.301 169.737 243.334 171.708L236.043 179.011C234.885 180.17 232.848 180.17 231.691 179.011C231.112 178.432 230.788 177.666 230.788 176.832C230.788 176.02 231.112 175.232 231.691 174.652L238.982 167.349Z" fill="white"/>
<path fill-rule="evenodd" clip-rule="evenodd" d="M185.561 225.219C186.51 226.17 187.737 226.633 188.987 226.633C190.236 226.633 191.486 226.147 192.435 225.219L226.067 191.508C227.965 189.63 227.965 186.546 226.067 184.645C224.192 182.744 221.113 182.744 219.215 184.645L185.561 218.356C183.663 220.234 183.663 223.318 185.561 225.219ZM220.465 185.874C221.044 185.294 221.808 184.97 222.641 184.97C223.474 184.97 224.238 185.294 224.817 185.874C225.395 186.454 225.719 187.219 225.719 188.053C225.719 188.865 225.395 189.653 224.817 190.233L191.162 223.944C190.005 225.103 187.968 225.103 186.811 223.944C186.232 223.364 185.908 222.599 185.908 221.765C185.908 220.953 186.232 220.165 186.811 219.585L220.465 185.874Z" fill="white"/>
<path d="M320.179 270.152C321.081 271.056 322.308 271.566 323.604 271.566C324.9 271.566 326.104 271.079 327.03 270.152L334.321 262.849C341.473 255.684 341.473 244.045 334.321 236.881L327.03 229.578C326.127 228.674 324.9 228.164 323.604 228.164C322.308 228.164 321.104 228.651 320.179 229.578C319.276 230.482 318.767 231.711 318.767 233.009C318.767 234.308 319.253 235.513 320.179 236.441L327.47 243.744C330.826 247.129 330.826 252.624 327.47 255.986L320.179 263.289C318.281 265.167 318.281 268.251 320.179 270.152Z" fill="white"/>
<path d="M308.953 225.219C309.902 226.17 311.128 226.633 312.378 226.633C313.628 226.633 314.878 226.147 315.804 225.196C317.702 223.318 317.702 220.234 315.804 218.333L282.15 184.645C280.275 182.744 277.196 182.744 275.298 184.645C273.4 186.523 273.4 189.607 275.298 191.508L308.953 225.219Z" fill="white"/>
<path fill-rule="evenodd" clip-rule="evenodd" d="M177.784 271.566C176.488 271.566 175.261 271.056 174.358 270.152L167.067 262.849C159.915 255.684 159.915 244.045 167.067 236.881L174.358 229.578C175.284 228.651 176.488 228.164 177.784 228.164C179.08 228.164 180.307 228.674 181.209 229.578C182.135 230.505 182.621 231.711 182.621 233.009C182.621 234.308 182.112 235.537 181.209 236.441L173.918 243.744C170.562 247.106 170.562 252.601 173.918 255.986L181.209 263.289C182.135 264.217 182.621 265.422 182.621 266.721C182.621 268.019 182.112 269.248 181.209 270.152C180.284 271.079 179.08 271.566 177.784 271.566ZM177.784 229.926C176.951 229.926 176.187 230.25 175.608 230.83L168.317 238.133C161.859 244.602 161.859 255.128 168.317 261.597L175.608 268.9C176.765 270.059 178.802 270.059 179.96 268.9C181.163 267.694 181.163 265.747 179.96 264.541L172.669 257.238C168.618 253.18 168.618 246.573 172.669 242.492L179.96 235.189C180.538 234.609 180.862 233.821 180.862 233.009C180.862 232.175 180.538 231.41 179.96 230.83C179.381 230.25 178.594 229.926 177.784 229.926Z" fill="white"/>
<path fill-rule="evenodd" clip-rule="evenodd" d="M219.215 315.108C220.164 316.058 221.391 316.522 222.641 316.522C223.891 316.522 225.141 316.035 226.067 315.108C227.965 313.23 227.965 310.146 226.067 308.245L192.412 274.534C190.537 272.633 187.459 272.633 185.561 274.534C183.663 276.412 183.663 279.496 185.561 281.397L219.215 315.108ZM186.811 275.763C187.389 275.183 188.153 274.859 188.987 274.859C189.82 274.859 190.584 275.183 191.185 275.763L224.817 309.497C225.395 310.077 225.719 310.865 225.719 311.676C225.719 312.488 225.395 313.276 224.817 313.856C223.659 315.015 221.623 315.015 220.465 313.856L186.811 280.122C186.232 279.542 185.908 278.777 185.908 277.942C185.908 277.131 186.232 276.342 186.811 275.763Z" fill="white"/>
<path d="M275.298 315.108C276.247 316.058 277.474 316.522 278.724 316.522C279.974 316.522 281.224 316.035 282.173 315.108L315.804 281.397C317.702 279.519 317.702 276.435 315.804 274.534C313.929 272.633 310.851 272.633 308.953 274.534L275.298 308.245C273.4 310.123 273.4 313.207 275.298 315.108Z" fill="white"/>
<path d="M237.732 333.633C241.297 337.227 245.995 339.012 250.694 339.012C255.393 339.012 260.091 337.227 263.656 333.633L270.947 326.33C271.85 325.425 272.359 324.196 272.359 322.898C272.359 321.6 271.873 320.394 270.947 319.467C270.044 318.562 268.817 318.052 267.521 318.052C266.225 318.052 265.021 318.539 264.096 319.467L256.805 326.77C253.425 330.132 247.94 330.132 244.583 326.77L237.292 319.467C236.39 318.562 235.163 318.052 233.867 318.052C232.571 318.052 231.367 318.539 230.441 319.467C229.539 320.371 229.029 321.6 229.029 322.898C229.029 324.196 229.515 325.402 230.441 326.33L237.732 333.633Z" fill="white"/>
<path d="M215.257 249.865C215.257 237.623 224.169 228.697 236.228 228.697C248.287 228.697 257.198 237.623 257.198 249.865C257.198 262.107 248.287 271.033 236.228 271.033C224.169 271.033 215.257 262.107 215.257 249.865ZM254.305 249.865C254.305 239.2 246.551 231.433 236.228 231.433C225.905 231.433 218.151 239.2 218.151 249.865C218.151 260.53 225.905 268.297 236.228 268.297C246.551 268.297 254.305 260.53 254.305 249.865ZM234.006 249.865C234.006 248.798 234.839 247.964 235.904 247.964C236.968 247.964 237.802 248.798 237.802 249.865C237.802 250.931 236.968 251.766 235.904 251.766C234.839 251.766 234.006 250.931 234.006 249.865Z" fill="white"/>
<path d="M279.048 222.159C279.048 222.993 278.793 223.48 277.729 223.48H275.159C268.725 223.48 264.674 226.796 264.674 236.209V277.223C264.674 278.383 264.188 278.87 263.262 278.87C262.36 278.87 261.85 278.383 261.85 277.223V235.722C261.85 226.703 266.387 220.837 274.72 220.837H277.682C278.793 220.837 279.048 221.347 279.048 222.159ZM277.474 238.945C277.474 239.849 277.057 240.359 276.062 240.359H270.623C269.628 240.359 269.211 239.872 269.211 238.945C269.211 238.041 269.628 237.53 270.623 237.53H276.062C277.057 237.554 277.474 238.041 277.474 238.945Z" fill="white"/>
<path d="M433 282.193C433 269.61 442.414 260.385 455.55 260.385C468.687 260.385 478.125 269.587 478.125 282.193C478.125 294.704 468.711 304 455.55 304C442.414 304 433 294.704 433 282.193ZM467.918 282.193C467.918 275.103 463.163 269.61 455.55 269.61C447.937 269.61 443.182 275.103 443.182 282.193C443.182 289.282 447.937 294.704 455.55 294.704C463.163 294.704 467.918 289.282 467.918 282.193ZM451.42 282.193C451.42 279.751 453.245 277.873 455.814 277.873C458.408 277.873 460.233 279.728 460.233 282.193C460.233 284.657 458.408 286.418 455.814 286.418C453.221 286.418 451.42 284.634 451.42 282.193Z" fill="black"/>
<path d="M520.967 277.545C528.748 279.399 536.169 281.347 536.169 290.737C536.169 299.869 529.253 304 519.31 304C511.097 304 505.141 301.207 502.356 297.991C500.194 295.455 500.458 293.249 502.524 291.324C505.117 288.883 507.375 289.892 508.84 291.16C511.169 293.272 514.027 295.479 519.551 295.479C523.705 295.479 526.299 294.117 526.299 291.418C526.299 288.718 523.537 287.779 516.26 285.831C509.08 283.883 502.692 282.028 502.692 273.671C502.692 264.282 510.473 260.408 519.118 260.408C524.041 260.408 529.661 261.676 533.119 265.315C534.584 266.746 535.713 268.789 533.119 271.559C530.525 274.188 528.628 273.413 526.803 272.075C525.17 270.901 522.312 268.859 517.99 268.859C515.06 268.859 512.37 269.798 512.37 272.498C512.418 275.268 515.348 276.277 520.967 277.545Z" fill="black"/>
<path d="M602.067 266.23V284.915C602.067 298.695 592.293 304 581.75 304C571.111 304 561.361 298.671 561.361 284.915V266.23C561.361 263.272 563.355 261.066 566.453 261.066C569.478 261.066 571.544 263.272 571.544 266.23V284.235C571.544 291.746 575.867 294.704 581.75 294.704C587.538 294.704 591.861 291.746 591.861 284.235V266.23C591.861 263.272 593.926 261.066 596.952 261.066C600.074 261.066 602.067 263.272 602.067 266.23Z" fill="black"/>
<path d="M630.405 297.498C630.405 293.953 633.335 291.066 637.057 291.066C640.779 291.066 643.709 293.93 643.709 297.498C643.709 301.136 640.779 304 637.057 304C633.335 304 630.405 301.113 630.405 297.498ZM642.148 252.709V280.854C642.148 283.906 640.083 286.089 637.057 286.089C633.935 286.089 631.966 283.883 631.966 280.854V252.709C631.966 249.657 633.959 247.474 637.057 247.474C640.083 247.474 642.148 249.657 642.148 252.709Z" fill="black"/>
<path d="M694.069 246.019C694.069 247.286 693.373 248.038 691.908 248.038H688.45C681.702 248.038 677.811 251.582 677.811 260.455V300.854C677.811 302.451 677.043 303.296 675.65 303.296C674.185 303.296 673.392 302.451 673.392 300.854V260.15C673.392 250.338 678.484 244 688.09 244H691.884C693.397 244 694.069 244.751 694.069 246.019ZM692.34 263.272C692.34 264.634 691.572 265.385 690.083 265.385H684.631C683.167 265.385 682.374 264.634 682.374 263.272C682.374 261.84 683.143 261.066 684.631 261.066H690.083C691.572 261.066 692.34 261.817 692.34 263.272Z" fill="black"/>
<path d="M743.18 264.704C742.844 265.878 741.98 266.559 740.323 266.066C739.194 265.549 737.393 264.798 735.231 264.798C727.186 264.798 723.296 272.404 723.296 283.296V300.878C723.296 302.474 722.527 303.319 721.134 303.319C719.669 303.319 718.877 302.474 718.877 300.878V263.507C718.877 261.911 719.645 261.066 721.134 261.066C722.527 261.066 723.296 261.911 723.296 263.436V269.446H723.632C724.593 266.488 727.258 260.573 735.375 260.573C738.233 260.573 740.299 261.512 741.595 262.005C743.108 262.498 743.541 263.436 743.18 264.704Z" fill="black"/>
<path d="M791.091 301.465C791.091 302.826 790.394 303.483 788.761 303.483C773.896 303.483 764.722 294.61 764.722 282.192C764.722 269.352 774.328 260.573 787.632 260.573C800.264 260.573 807.685 267.075 807.685 279.329V300.784C807.685 302.38 806.917 303.319 805.428 303.319C803.963 303.319 803.17 302.38 803.17 300.784V280.667C803.17 269.516 797.983 264.704 787.536 264.704C776.826 264.704 769.213 272.052 769.213 282.028C769.213 292.169 776.465 299.352 788.737 299.352C790.394 299.352 791.091 300.009 791.091 301.465Z" fill="black"/>
<path d="M893.756 275.597V300.855C893.756 302.451 892.891 303.296 891.498 303.296C890.105 303.296 889.241 302.451 889.241 300.855V276.277C889.241 267.24 883.525 264.704 878.53 264.704C873.511 264.704 867.819 267.24 867.819 276.277V300.855C867.819 302.451 866.955 303.296 865.562 303.296C864.169 303.296 863.304 302.451 863.304 300.855V276.277C863.304 267.24 857.589 264.704 852.594 264.704C847.574 264.704 841.787 267.24 841.787 276.277V300.855C841.787 302.451 841.018 303.296 839.625 303.296C838.16 303.296 837.368 302.451 837.368 300.855V275.597C837.368 264.704 844.981 260.55 852.594 260.55C858.813 260.55 864.169 264.352 865.562 269C866.859 264.352 872.214 260.55 878.53 260.55C886.143 260.55 893.756 264.704 893.756 275.597Z" fill="black"/>
<path d="M958.38 297.239C959.149 298.178 958.981 299.258 957.684 300.291C955.186 302.31 949.639 303.836 943.947 303.836C929.61 303.836 921.205 294.704 921.205 282.216C921.205 269.634 930.187 260.596 942.65 260.596C953.793 260.596 961.935 267.685 961.935 278.929C961.935 282.051 960.302 283.742 957.348 283.742H941.089C939.697 283.742 938.832 283.061 938.832 281.723C938.832 280.455 939.697 279.774 941.089 279.774H957.684C957.684 269.798 950.768 264.657 942.819 264.657C932.708 264.657 925.696 272.098 925.696 282.239C925.696 292.286 932.276 299.821 943.755 299.821C948.846 299.821 953.265 298.296 955.09 296.864C956.387 295.972 957.588 296.136 958.38 297.239Z" fill="black"/>
<path d="M1017 294.868C1015.61 299.516 1010.25 303.413 1004.03 303.413C996.42 303.413 988.832 299.188 988.832 288.296V263.507C988.832 261.911 989.6 261.066 991.089 261.066C992.482 261.066 993.25 261.911 993.25 263.507V287.591C993.25 296.629 999.038 299.258 1004.06 299.258C1009.08 299.258 1014.77 296.629 1014.77 287.591V263.507C1014.77 261.911 1015.63 261.066 1017.03 261.066C1018.42 261.066 1019.28 261.911 1019.28 263.507V287.591C1019.28 296.629 1025 299.258 1029.99 299.258C1034.99 299.258 1040.7 296.629 1040.7 287.591V263.507C1040.7 261.911 1041.57 261.066 1042.96 261.066C1044.35 261.066 1045.22 261.911 1045.22 263.507V288.272C1045.22 299.164 1037.61 303.39 1029.99 303.39C1023.65 303.39 1018.3 299.516 1017 294.868Z" fill="black"/>
<path d="M1072.62 282.192C1072.62 269.681 1081.96 260.573 1094.67 260.573C1107.37 260.573 1116.71 269.704 1116.71 282.192C1116.71 294.681 1107.37 303.812 1094.67 303.812C1081.96 303.812 1072.62 294.704 1072.62 282.192ZM1112.2 282.192C1112.2 272.052 1104.75 264.704 1094.64 264.704C1084.53 264.704 1077.09 272.052 1077.09 282.192C1077.09 292.333 1084.51 299.681 1094.64 299.681C1104.78 299.681 1112.2 292.333 1112.2 282.192ZM1091.81 282.192C1091.81 280.76 1092.94 279.657 1094.5 279.657C1095.96 279.657 1097.09 280.76 1097.09 282.192C1097.09 283.624 1095.96 284.728 1094.5 284.728C1092.91 284.728 1091.81 283.624 1091.81 282.192Z" fill="black"/>
<path d="M1168.54 264.704C1168.2 265.878 1167.34 266.559 1165.68 266.066C1164.55 265.549 1162.75 264.798 1160.59 264.798C1152.54 264.798 1148.65 272.404 1148.65 283.296V300.878C1148.65 302.474 1147.88 303.319 1146.49 303.319C1145.03 303.319 1144.23 302.474 1144.23 300.878V263.507C1144.23 261.911 1145 261.066 1146.49 261.066C1147.88 261.066 1148.65 261.911 1148.65 263.436V269.446H1148.99C1149.95 266.488 1152.62 260.573 1160.76 260.573C1163.61 260.573 1165.68 261.512 1166.98 262.005C1168.44 262.498 1168.87 263.436 1168.54 264.704Z" fill="black"/>
<path d="M1225.29 303.225C1223.89 303.554 1222.79 302.803 1222.43 301.371L1220.1 293.085C1218.2 286.23 1213.88 283.108 1207.49 283.108H1198.68V300.854C1198.68 302.451 1197.91 303.296 1196.52 303.296C1195.05 303.296 1194.26 302.451 1194.26 300.854V246.441C1194.26 244.845 1195.03 244 1196.52 244C1197.91 244 1198.68 244.845 1198.68 246.441V278.977H1207.49C1213.11 278.977 1216.14 276.277 1218.13 269.188L1220.19 262.685C1220.53 261.324 1221.59 260.831 1222.88 261.16C1224.28 261.582 1224.78 262.521 1224.35 264.117L1222.09 271.629C1221.06 274.916 1218.8 278.812 1214.65 280.596C1219.31 282.122 1222.96 286.606 1224.32 291.746L1226.65 300.197C1227.11 301.793 1226.68 302.897 1225.29 303.225Z" fill="black"/>
<path d="M449.3 189.65C442.2 189.65 437.35 194.4 437.35 202.25V220.45C437.35 221.75 438.1 222.6 439.35 222.6C440.6 222.6 441.35 221.75 441.35 220.45V211H441.65C442.85 213.45 445.8 215.35 449.9 215.35C457.3 215.35 462.1 209.55 462.1 202.45C462.1 194.75 456.5 189.65 449.3 189.65ZM449.75 211.6C444.9 211.6 441.35 208.35 441.35 202.85V202.65C441.35 197 444.25 193.45 449.3 193.45C454.35 193.45 458.05 197.2 458.05 202.5C458.05 207.15 455.05 211.6 449.75 211.6Z" fill="black"/>
<path d="M489.421 215.35C496.871 215.35 502.221 209.9 502.221 202.5C502.221 195.1 496.871 189.65 489.421 189.65C481.971 189.65 476.571 195.1 476.571 202.5C476.571 209.9 481.971 215.35 489.421 215.35ZM489.421 211.55C484.221 211.55 480.671 207.7 480.671 202.5C480.671 197.3 484.221 193.45 489.421 193.45C494.621 193.45 498.171 197.3 498.171 202.5C498.171 207.7 494.621 211.55 489.421 211.55Z" fill="black"/>
<path d="M547.115 190.1C545.865 189.7 544.815 190.2 544.465 191.45L539.065 209.2L534.015 192.65C533.665 191.5 532.915 190.9 532.015 190.9C531.065 190.9 530.315 191.5 529.965 192.65L524.915 209.2L519.515 191.45C519.165 190.2 518.115 189.7 516.865 190.1C515.665 190.5 515.265 191.65 515.715 192.85L522.765 213.45C523.215 214.6 523.965 215 524.865 215C526.015 215 526.665 214.3 526.965 213.35L532.015 198L537.015 213.35C537.315 214.3 537.965 215 539.115 215C540.015 215 540.765 214.6 541.215 213.45L548.265 192.85C548.715 191.65 548.315 190.5 547.115 190.1Z" fill="black"/>
<path d="M585.358 200.6C585.358 193.95 580.508 189.65 573.908 189.65C566.908 189.65 561.708 194.95 561.708 202.55C561.708 209.85 566.608 215.35 574.758 215.35C577.908 215.35 580.908 214.5 582.558 213.4C583.758 212.6 584.008 211.65 583.358 210.6C582.708 209.5 581.708 209.45 580.508 210.05C579.108 210.8 577.008 211.6 574.558 211.6C569.658 211.6 566.558 208.45 565.908 204.15H581.908C584.058 204.15 585.358 202.8 585.358 200.6ZM565.958 200.55C566.708 196.35 569.758 193.4 573.908 193.4C578.108 193.4 581.458 196.3 581.458 200.55H565.958Z" fill="black"/>
<path d="M614.29 190.15C613.64 189.95 612.79 189.65 611.64 189.65C608.09 189.65 605.89 192.1 604.89 194.25H604.69V192.15C604.69 190.85 603.94 190 602.69 190C601.44 190 600.69 190.85 600.69 192.15V212.85C600.69 214.15 601.44 215 602.69 215C603.94 215 604.69 214.15 604.69 212.85V204.25C604.69 197.35 607.29 193.5 611.39 193.5C612.19 193.5 612.94 193.75 613.44 193.95C614.74 194.2 615.59 193.65 615.84 192.5C616.09 191.3 615.54 190.45 614.29 190.15Z" fill="black"/>
<path d="M651.745 200.6C651.745 193.95 646.895 189.65 640.295 189.65C633.295 189.65 628.095 194.95 628.095 202.55C628.095 209.85 632.995 215.35 641.145 215.35C644.295 215.35 647.295 214.5 648.945 213.4C650.145 212.6 650.395 211.65 649.745 210.6C649.095 209.5 648.095 209.45 646.895 210.05C645.495 210.8 643.395 211.6 640.945 211.6C636.045 211.6 632.945 208.45 632.295 204.15H648.295C650.445 204.15 651.745 202.8 651.745 200.6ZM632.345 200.55C633.095 196.35 636.145 193.4 640.295 193.4C644.495 193.4 647.845 196.3 647.845 200.55H632.345Z" fill="black"/>
<path d="M689.32 179.9C688.07 179.9 687.27 180.8 687.27 182.1V193.9H687.02C686.32 192.8 684.37 189.65 678.87 189.65C671.82 189.65 666.22 194.95 666.22 202.55C666.22 209.9 671.42 215.35 678.97 215.35C686.17 215.35 691.32 210.35 691.32 203.65V182.1C691.32 180.8 690.57 179.9 689.32 179.9ZM687.27 203.25C687.27 208.25 684.02 211.55 679.17 211.55C673.72 211.55 670.32 207.4 670.32 202.45C670.32 197.2 674.17 193.4 679.32 193.4C684.37 193.4 687.27 197.05 687.27 202.5V203.25Z" fill="black"/>
<path d="M745.044 189.65C739.994 189.65 737.394 192.55 736.494 194.15H736.194V182.1C736.194 180.8 735.444 179.9 734.194 179.9C732.944 179.9 732.194 180.8 732.194 182.1V203.8C732.194 210.1 736.644 215.35 744.494 215.35C752.944 215.35 757.244 209.4 757.244 202.4C757.244 194.85 751.944 189.65 745.044 189.65ZM744.644 211.55C739.444 211.55 736.244 208.2 736.244 202.7V202.35C736.244 197.05 739.394 193.4 744.444 193.4C749.594 193.4 753.194 197.1 753.194 202.55C753.194 206.85 750.794 211.55 744.644 211.55Z" fill="black"/>
<path d="M793.308 190C792.058 190 791.258 190.85 791.258 192.15V204C791.258 207.2 788.858 210 784.058 210.05C780.158 210.1 776.858 208.4 776.858 202.2V192.15C776.858 190.85 776.108 190 774.858 190C773.608 190 772.858 190.85 772.858 192.15V202.6C772.858 210.7 777.708 213.8 783.058 213.8C787.658 213.8 790.358 211.3 791.258 209.7H791.508V210.6C791.508 216.65 787.358 218.75 783.358 218.85C781.258 218.9 779.858 218.5 777.758 217.65C776.658 217.25 775.758 217.75 775.408 218.85C775.058 219.85 775.308 220.9 776.508 221.3C778.808 222.25 780.958 222.6 783.658 222.6C789.558 222.6 795.308 218.95 795.308 211.7V192.15C795.308 190.85 794.558 190 793.308 190Z" fill="black"/>
</svg>
