<svg width="800" height="800" viewBox="0 0 800 800" fill="none" xmlns="http://www.w3.org/2000/svg">
<g opacity="0.5">
<path opacity="0.5" d="M227.789 703.544C65.959 627.75 -27.3577 411.456 80.0411 250.107C223.971 47.8819 542.807 -4.72507 701.619 204.053C802.48 346.11 715.449 525.766 614.223 635.311C588.185 664.272 558.809 689.201 526.781 708.172C494.731 727.144 460.006 740.135 423.223 745.222C386.441 750.308 347.601 747.49 307.32 734.796C280.894 728.221 254.238 717.979 227.789 703.544Z" fill="white"/>
</g>
<g opacity="0.9">
<path opacity="0.9" d="M90.1683 547.991C4.41848 390.927 56.8605 161.207 238.693 94.8065C474.088 17.0876 762.199 163.727 767 426.212C764.463 600.552 588.276 693.783 441.992 722.08C403.883 729.985 365.501 732.688 328.489 728.977C291.478 725.265 255.793 715.16 223.125 697.449C190.457 679.738 160.807 654.442 135.821 620.326C118.424 599.361 102.947 575.303 90.1683 547.991Z" fill="white"/>
</g>
<g opacity="0.5">
<path opacity="0.5" d="M313.927 57.5051C482.889 -1.17363 699.95 90.9801 734.561 284.407C771.252 533.373 578.378 796.385 319.437 755.853C148.394 723.18 86.4421 530.761 83.3102 379.493C81.9614 339.992 85.802 301.133 95.7006 264.702C105.599 228.271 121.556 194.361 144.485 164.712C167.414 135.064 197.316 109.768 235.081 90.6594C258.628 76.889 284.917 65.5932 313.927 57.5051Z" fill="white"/>
</g>
<path d="M277.568 405.728C277.345 402.516 277.202 399.377 277.172 396.302C275.885 393.801 274.673 391.233 273.541 388.594C267.995 374.352 266.861 359.716 269.085 345.335C267.707 313.975 278.099 283.693 297.815 259.406C303.203 245.054 313.929 233.119 332.031 226.043C337.006 224.098 342.08 222.445 347.222 221.079C352.717 218.498 358.46 216.209 364.435 214.242C377.25 210.184 390.719 208.761 404.009 209.763C415.382 208.735 426.996 208.748 438.665 209.79C481.948 217.789 511.297 247.721 520.903 287.623C521.644 290.703 522.306 293.786 522.89 296.869C525.43 305.986 526.377 315.296 526.021 324.621C526.407 335.235 525.849 345.719 524.361 355.926C525.788 361.534 526.826 367.129 527.43 372.666C529.698 393.648 525.578 413.564 512.084 428.565C508.08 433.017 503.266 437.028 497.525 440.459C489.08 445.058 480.915 448.67 472.349 450.495C457.089 463.029 438.525 471.863 417.463 474.959C407.881 476.234 397.812 476.396 387.327 475.121C378.479 474.356 369.986 472.554 361.9 469.884C357.2 470.328 352.433 470.393 347.608 470.02C340.34 468.791 333.304 466.96 326.661 464.525C306.732 457.222 290.391 444.377 282.359 424.856C279.975 419.083 278.332 412.707 277.568 405.728Z" fill="white"/>
<path opacity="0.8" d="M427.493 441.385C404.231 458.31 376.988 472.29 347.592 470.018C340.324 468.789 333.288 466.958 326.645 464.523C306.716 457.22 290.375 444.375 282.343 424.854C279.959 419.08 278.316 412.705 277.552 405.726C276.279 387.41 277.622 371.458 287.598 356.133C313.73 324.416 331.205 292.003 345.046 251.266C354.212 231.605 373.608 221.288 394.301 218.483C401.569 217.347 409.045 216.906 416.73 217.184C468.114 221.126 502.764 274.915 514.753 328.496C516.466 336.147 517.716 343.798 518.48 351.287C523.456 400.463 475.22 416.066 442.028 431.74C437.306 434.73 432.469 438.023 427.493 441.385Z" fill="#F7931E"/>
<path opacity="0.4" d="M387.311 475.119C351.897 472.059 322.178 452.374 301.462 427.01C294.565 418.547 288.662 409.459 283.871 400.115C245.634 325.598 283.871 240.764 364.419 214.24C400.226 202.902 441.149 212.13 468.97 237.379C515.448 283.54 535.631 357.617 503.227 412.403C499.037 420.356 493.991 427.891 488.182 434.8C470.753 455.528 446.472 470.691 417.447 474.957C407.865 476.232 397.796 476.394 387.311 475.119Z" fill="#7AC943"/>
<path opacity="0.4" d="M394.372 474.449C309.264 469.186 248.783 375.402 278.826 295.575C306.787 231.723 371.943 203.809 438.882 209.79C482.165 217.789 511.514 247.721 521.12 287.623C540.331 367.449 506.329 449.246 424.971 473.266C415.296 475.005 405.088 475.492 394.372 474.449Z" fill="#3FA9F5"/>
<path opacity="0.4" d="M504.777 331.533C511.86 387.224 482.696 468.743 421.706 459.005C342.801 452.119 270.377 370.6 295.166 288.687C312.896 237.147 380.575 220.917 432.793 229.913C467.489 237.355 491.121 270.394 498.134 301.485C501.19 310.76 503.458 320.799 504.777 331.533Z" fill="#726789"/>
<path opacity="0.8" d="M463.762 290.264C488.506 304.708 512.439 323.906 523.132 351.473C525.192 358.567 526.65 365.662 527.414 372.664C529.682 393.646 525.563 413.562 512.068 428.563C508.064 433.015 503.25 437.026 497.509 440.457C482.14 448.827 467.697 453.928 450.083 450.937C411.198 439.785 375.483 436.724 334.098 440.249C313.058 439.692 295.722 426.152 284.334 408.462C280.214 402.318 276.58 395.71 273.525 388.592C254.753 340.39 286.533 287.667 327.941 255.602C333.843 251.035 339.954 246.861 346.134 243.221C386.732 219.248 421.104 256.877 449.065 280.828C453.763 283.981 458.693 287.064 463.762 290.264Z" fill="#FF7BAC"/>
<path opacity="0.8" d="M484.293 366.728C482.881 380.384 480.428 394.527 475.845 408.044C471.331 421.724 464.573 434.591 454.504 445.419C449.018 450.357 443.255 454.762 437.306 458.472C419.415 469.624 399.717 474.539 380.367 468.859C374.627 467.166 368.933 464.57 363.355 460.883C349.143 450.659 338.288 439.808 333.357 422.605C331.645 412.612 329.585 403.036 327.085 393.716C321.622 379.735 317.016 366.311 312.086 352.91C289.426 310.18 278.571 246.931 332.015 226.041C385.459 205.151 450.222 217.949 488.992 257.967C516.165 284.004 495.889 323.14 486.839 350.36C485.89 355.623 485.103 361.094 484.293 366.728Z" fill="#726789"/>
<path opacity="0.4" d="M339.63 449.453C281.441 422.21 247.902 344.494 286.51 286.531C338.241 213.869 452.884 194.95 509.962 269.977C546.232 321.031 514.938 385.578 478.53 424.923C469.155 435.333 458.601 444.283 447.097 451.099C435.571 457.916 423.095 462.576 409.855 464.407C396.616 466.239 382.659 465.219 368.192 460.675C358.726 458.31 349.12 454.646 339.63 449.453Z" fill="#726789"/>
<path opacity="0.5" d="M339.63 449.453C281.441 422.21 247.902 344.494 286.51 286.531C338.241 213.869 452.884 194.95 509.962 269.977C546.232 321.031 514.938 385.578 478.53 424.923C469.155 435.333 458.601 444.283 447.097 451.099C435.571 457.916 423.095 462.576 409.855 464.407C396.616 466.239 382.659 465.219 368.192 460.675C358.726 458.31 349.12 454.646 339.63 449.453Z" fill="#726789"/>
<path fill-rule="evenodd" clip-rule="evenodd" d="M413.096 275.286C413.998 276.191 415.225 276.701 416.521 276.701C417.817 276.701 419.021 276.191 419.947 275.286C420.85 274.382 421.359 273.153 421.359 271.855C421.359 270.557 420.873 269.351 419.947 268.423L412.656 261.12C405.504 253.956 393.884 253.956 386.732 261.12L379.441 268.423C378.539 269.328 378.029 270.557 378.029 271.855C378.029 273.153 378.515 274.359 379.441 275.286C380.344 276.191 381.571 276.701 382.867 276.701C384.163 276.701 385.367 276.214 386.293 275.286L393.584 267.983C395.227 266.36 397.379 265.456 399.694 265.456C402.009 265.456 404.184 266.36 405.805 267.983L413.096 275.286ZM387.982 262.349C391.199 259.126 395.458 257.503 399.694 257.503C403.93 257.503 408.166 259.103 411.406 262.349L418.697 269.652C419.901 270.858 419.901 272.805 418.697 274.011C417.493 275.217 415.549 275.217 414.346 274.011L407.055 266.708C405.087 264.737 402.472 263.647 399.694 263.647C396.917 263.647 394.301 264.737 392.334 266.708L385.043 274.011C383.885 275.17 381.848 275.17 380.691 274.011C380.113 273.431 379.788 272.666 379.788 271.832C379.788 271.02 380.113 270.232 380.691 269.652L387.982 262.349Z" fill="white"/>
<path fill-rule="evenodd" clip-rule="evenodd" d="M334.561 320.219C335.51 321.17 336.737 321.633 337.987 321.633C339.237 321.633 340.486 321.146 341.435 320.219L375.067 286.508C376.965 284.63 376.965 281.546 375.067 279.645C373.192 277.744 370.113 277.744 368.215 279.645L334.561 313.356C332.663 315.234 332.663 318.318 334.561 320.219ZM369.465 280.874C370.044 280.294 370.808 279.97 371.641 279.97C372.474 279.97 373.238 280.294 373.817 280.874C374.395 281.454 374.719 282.219 374.719 283.053C374.719 283.865 374.395 284.653 373.817 285.233L340.162 318.944C339.005 320.103 336.968 320.103 335.811 318.944C335.232 318.364 334.908 317.599 334.908 316.764C334.908 315.953 335.232 315.165 335.811 314.585L369.465 280.874Z" fill="white"/>
<path d="M469.179 365.152C470.081 366.056 471.308 366.566 472.604 366.566C473.9 366.566 475.104 366.079 476.03 365.152L483.321 357.849C490.473 350.684 490.473 339.045 483.321 331.881L476.03 324.578C475.127 323.674 473.9 323.164 472.604 323.164C471.308 323.164 470.105 323.65 469.179 324.578C468.276 325.482 467.767 326.711 467.767 328.009C467.767 329.308 468.253 330.513 469.179 331.441L476.47 338.744C479.826 342.129 479.826 347.624 476.47 350.986L469.179 358.289C467.281 360.167 467.281 363.251 469.179 365.152Z" fill="white"/>
<path d="M457.953 320.219C458.902 321.17 460.129 321.633 461.378 321.633C462.628 321.633 463.878 321.146 464.804 320.196C466.702 318.318 466.702 315.234 464.804 313.333L431.15 279.645C429.275 277.744 426.196 277.744 424.298 279.645C422.4 281.523 422.4 284.607 424.298 286.508L457.953 320.219Z" fill="white"/>
<path fill-rule="evenodd" clip-rule="evenodd" d="M326.784 366.566C325.488 366.566 324.261 366.056 323.358 365.152L316.067 357.849C308.915 350.684 308.915 339.045 316.067 331.881L323.358 324.578C324.284 323.65 325.488 323.164 326.784 323.164C328.08 323.164 329.307 323.674 330.21 324.578C331.135 325.505 331.621 326.711 331.621 328.009C331.621 329.308 331.112 330.536 330.21 331.441L322.919 338.744C319.562 342.106 319.562 347.601 322.919 350.986L330.21 358.289C331.135 359.216 331.621 360.422 331.621 361.72C331.621 363.019 331.112 364.248 330.21 365.152C329.284 366.079 328.08 366.566 326.784 366.566ZM326.784 324.926C325.951 324.926 325.187 325.25 324.608 325.83L317.317 333.133C310.859 339.602 310.859 350.128 317.317 356.597L324.608 363.9C325.766 365.059 327.802 365.059 328.96 363.9C330.163 362.694 330.163 360.747 328.96 359.541L321.669 352.238C317.618 348.18 317.618 341.573 321.669 337.492L328.96 330.189C329.538 329.609 329.862 328.821 329.862 328.009C329.862 327.175 329.538 326.41 328.96 325.83C328.381 325.25 327.594 324.926 326.784 324.926Z" fill="white"/>
<path fill-rule="evenodd" clip-rule="evenodd" d="M368.215 410.108C369.164 411.058 370.391 411.522 371.641 411.522C372.891 411.522 374.141 411.035 375.067 410.108C376.965 408.23 376.965 405.146 375.067 403.245L341.412 369.534C339.537 367.633 336.459 367.633 334.561 369.534C332.663 371.412 332.663 374.495 334.561 376.397L368.215 410.108ZM335.811 370.763C336.39 370.183 337.153 369.858 337.987 369.858C338.82 369.858 339.584 370.183 340.186 370.763L373.817 404.497C374.395 405.077 374.719 405.865 374.719 406.676C374.719 407.488 374.395 408.276 373.817 408.856C372.659 410.015 370.623 410.015 369.465 408.856L335.811 375.121C335.232 374.542 334.908 373.777 334.908 372.942C334.908 372.131 335.232 371.342 335.811 370.763Z" fill="white"/>
<path d="M424.298 410.108C425.247 411.058 426.474 411.522 427.724 411.522C428.974 411.522 430.224 411.035 431.173 410.108L464.804 376.397C466.702 374.519 466.702 371.435 464.804 369.534C462.929 367.633 459.851 367.633 457.953 369.534L424.298 403.245C422.4 405.123 422.4 408.207 424.298 410.108Z" fill="white"/>
<path d="M386.732 428.633C390.297 432.226 394.995 434.012 399.694 434.012C404.393 434.012 409.091 432.226 412.656 428.633L419.947 421.329C420.85 420.425 421.359 419.196 421.359 417.898C421.359 416.6 420.873 415.394 419.947 414.467C419.044 413.562 417.817 413.052 416.521 413.052C415.225 413.052 414.022 413.539 413.096 414.467L405.805 421.77C402.425 425.132 396.94 425.132 393.584 421.77L386.293 414.467C385.39 413.562 384.163 413.052 382.867 413.052C381.571 413.052 380.367 413.539 379.441 414.467C378.539 415.371 378.029 416.6 378.029 417.898C378.029 419.196 378.515 420.402 379.441 421.329L386.732 428.633Z" fill="white"/>
<path d="M364.257 344.865C364.257 332.623 373.169 323.697 385.228 323.697C397.287 323.697 406.198 332.623 406.198 344.865C406.198 357.107 397.287 366.033 385.228 366.033C373.169 366.033 364.257 357.107 364.257 344.865ZM403.305 344.865C403.305 334.2 395.551 326.433 385.228 326.433C374.905 326.433 367.151 334.2 367.151 344.865C367.151 355.53 374.905 363.297 385.228 363.297C395.551 363.297 403.305 355.53 403.305 344.865ZM383.006 344.865C383.006 343.798 383.839 342.964 384.904 342.964C385.968 342.964 386.802 343.798 386.802 344.865C386.802 345.931 385.968 346.766 384.904 346.766C383.839 346.766 383.006 345.931 383.006 344.865Z" fill="white"/>
<path d="M428.048 317.159C428.048 317.993 427.793 318.48 426.729 318.48H424.159C417.725 318.48 413.674 321.796 413.674 331.209V372.223C413.674 373.383 413.188 373.869 412.262 373.869C411.36 373.869 410.85 373.383 410.85 372.223V330.722C410.85 321.703 415.387 315.837 423.72 315.837H426.682C427.793 315.837 428.048 316.347 428.048 317.159ZM426.474 333.945C426.474 334.849 426.057 335.359 425.062 335.359H419.623C418.628 335.359 418.211 334.872 418.211 333.945C418.211 333.04 418.628 332.53 419.623 332.53H425.062C426.057 332.554 426.474 333.04 426.474 333.945Z" fill="white"/>
<path d="M271.992 533.642C271.992 529.584 275.028 526.609 279.265 526.609C283.501 526.609 286.545 529.577 286.545 533.642C286.545 537.677 283.509 540.675 279.265 540.675C275.028 540.675 271.992 537.677 271.992 533.642ZM283.253 533.642C283.253 531.356 281.72 529.584 279.265 529.584C276.81 529.584 275.276 531.356 275.276 533.642C275.276 535.928 276.81 537.677 279.265 537.677C281.72 537.677 283.253 535.928 283.253 533.642ZM277.933 533.642C277.933 532.855 278.521 532.249 279.35 532.249C280.186 532.249 280.775 532.847 280.775 533.642C280.775 534.437 280.186 535.005 279.35 535.005C278.514 535.005 277.933 534.429 277.933 533.642Z" fill="#494256"/>
<path d="M300.362 532.143C302.871 532.741 305.264 533.37 305.264 536.398C305.264 539.343 303.034 540.675 299.827 540.675C297.179 540.675 295.258 539.774 294.359 538.737C293.662 537.919 293.748 537.208 294.414 536.587C295.25 535.8 295.978 536.125 296.451 536.534C297.202 537.215 298.123 537.927 299.905 537.927C301.245 537.927 302.081 537.488 302.081 536.617C302.081 535.747 301.19 535.444 298.844 534.815C296.528 534.187 294.468 533.589 294.468 530.894C294.468 527.866 296.977 526.617 299.765 526.617C301.353 526.617 303.165 527.026 304.281 528.199C304.753 528.661 305.117 529.319 304.281 530.213C303.444 531.061 302.832 530.811 302.244 530.379C301.717 530.001 300.795 529.342 299.401 529.342C298.456 529.342 297.589 529.645 297.589 530.515C297.605 531.409 298.549 531.734 300.362 532.143Z" fill="#494256"/>
<path d="M326.516 528.494V534.52C326.516 538.964 323.364 540.675 319.964 540.675C316.533 540.675 313.389 538.956 313.389 534.52V528.494C313.389 527.54 314.031 526.829 315.03 526.829C316.006 526.829 316.672 527.54 316.672 528.494V534.301C316.672 536.723 318.066 537.677 319.964 537.677C321.83 537.677 323.224 536.723 323.224 534.301V528.494C323.224 527.54 323.891 526.829 324.866 526.829C325.873 526.829 326.516 527.54 326.516 528.494Z" fill="#494256"/>
<path d="M335.655 538.578C335.655 537.435 336.6 536.504 337.8 536.504C339.001 536.504 339.946 537.427 339.946 538.578C339.946 539.751 339.001 540.675 337.8 540.675C336.6 540.675 335.655 539.744 335.655 538.578ZM339.442 524.134V533.211C339.442 534.195 338.776 534.899 337.8 534.899C336.793 534.899 336.158 534.187 336.158 533.211V524.134C336.158 523.15 336.801 522.445 337.8 522.445C338.776 522.445 339.442 523.15 339.442 524.134Z" fill="#494256"/>
<path d="M356.186 521.976C356.186 522.385 355.962 522.627 355.489 522.627H354.374C352.198 522.627 350.943 523.77 350.943 526.632V539.66C350.943 540.175 350.695 540.448 350.246 540.448C349.774 540.448 349.518 540.175 349.518 539.66V526.533C349.518 523.369 351.16 521.325 354.258 521.325H355.482C355.97 521.325 356.186 521.567 356.186 521.976ZM355.629 527.54C355.629 527.979 355.381 528.222 354.901 528.222H353.143C352.67 528.222 352.415 527.979 352.415 527.54C352.415 527.079 352.663 526.829 353.143 526.829H354.901C355.381 526.829 355.629 527.071 355.629 527.54Z" fill="#494256"/>
<path d="M372.025 528.002C371.916 528.381 371.637 528.6 371.103 528.441C370.739 528.275 370.158 528.032 369.461 528.032C366.867 528.032 365.612 530.485 365.612 533.998V539.668C365.612 540.183 365.364 540.455 364.915 540.455C364.442 540.455 364.187 540.183 364.187 539.668V527.616C364.187 527.101 364.435 526.829 364.915 526.829C365.364 526.829 365.612 527.101 365.612 527.593V529.531H365.72C366.03 528.577 366.89 526.67 369.508 526.67C370.429 526.67 371.095 526.973 371.514 527.132C372.001 527.291 372.141 527.593 372.025 528.002Z" fill="#494256"/>
<path d="M387.476 539.857C387.476 540.296 387.251 540.508 386.724 540.508C381.93 540.508 378.972 537.647 378.972 533.642C378.972 529.501 382.07 526.67 386.36 526.67C390.434 526.67 392.827 528.767 392.827 532.718V539.638C392.827 540.153 392.579 540.455 392.099 540.455C391.627 540.455 391.371 540.153 391.371 539.638V533.15C391.371 529.554 389.698 528.002 386.329 528.002C382.875 528.002 380.42 530.372 380.42 533.589C380.42 536.859 382.759 539.176 386.717 539.176C387.251 539.176 387.476 539.388 387.476 539.857Z" fill="#494256"/>
<path d="M420.585 531.515V539.66C420.585 540.175 420.306 540.448 419.857 540.448C419.408 540.448 419.129 540.175 419.129 539.66V531.734C419.129 528.82 417.286 528.002 415.675 528.002C414.056 528.002 412.22 528.82 412.22 531.734V539.66C412.22 540.175 411.942 540.448 411.492 540.448C411.043 540.448 410.764 540.175 410.764 539.66V531.734C410.764 528.82 408.921 528.002 407.31 528.002C405.692 528.002 403.825 528.82 403.825 531.734V539.66C403.825 540.175 403.577 540.448 403.128 540.448C402.656 540.448 402.4 540.175 402.4 539.66V531.515C402.4 528.002 404.855 526.662 407.31 526.662C409.316 526.662 411.043 527.889 411.492 529.388C411.911 527.889 413.638 526.662 415.675 526.662C418.13 526.662 420.585 528.002 420.585 531.515Z" fill="#494256"/>
<path d="M441.426 538.495C441.674 538.797 441.62 539.146 441.202 539.479C440.396 540.13 438.607 540.622 436.771 540.622C432.148 540.622 429.437 537.677 429.437 533.65C429.437 529.592 432.334 526.677 436.353 526.677C439.947 526.677 442.572 528.964 442.572 532.59C442.572 533.597 442.046 534.142 441.093 534.142H435.85C435.401 534.142 435.122 533.922 435.122 533.491C435.122 533.082 435.401 532.862 435.85 532.862H441.202C441.202 529.645 438.971 527.987 436.407 527.987C433.147 527.987 430.885 530.387 430.885 533.657C430.885 536.897 433.008 539.327 436.71 539.327C438.351 539.327 439.776 538.835 440.365 538.374C440.783 538.086 441.171 538.139 441.426 538.495Z" fill="#494256"/>
<path d="M460.331 537.73C459.882 539.229 458.155 540.486 456.149 540.486C453.694 540.486 451.247 539.123 451.247 535.61V527.616C451.247 527.101 451.494 526.829 451.975 526.829C452.424 526.829 452.672 527.101 452.672 527.616V535.383C452.672 538.298 454.538 539.146 456.157 539.146C457.775 539.146 459.611 538.298 459.611 535.383V527.616C459.611 527.101 459.89 526.829 460.339 526.829C460.788 526.829 461.067 527.101 461.067 527.616V535.383C461.067 538.298 462.91 539.146 464.521 539.146C466.132 539.146 467.975 538.298 467.975 535.383V527.616C467.975 527.101 468.254 526.829 468.703 526.829C469.153 526.829 469.431 527.101 469.431 527.616V535.603C469.431 539.115 466.976 540.478 464.521 540.478C462.477 540.478 460.749 539.229 460.331 537.73Z" fill="#494256"/>
<path d="M478.268 533.642C478.268 529.607 481.281 526.67 485.378 526.67C489.475 526.67 492.488 529.615 492.488 533.642C492.488 537.669 489.475 540.614 485.378 540.614C481.281 540.614 478.268 537.677 478.268 533.642ZM491.032 533.642C491.032 530.372 488.631 528.002 485.37 528.002C482.11 528.002 479.709 530.372 479.709 533.642C479.709 536.912 482.102 539.282 485.37 539.282C488.639 539.282 491.032 536.912 491.032 533.642ZM484.456 533.642C484.456 533.18 484.821 532.824 485.324 532.824C485.796 532.824 486.16 533.18 486.16 533.642C486.16 534.104 485.796 534.46 485.324 534.46C484.813 534.46 484.456 534.104 484.456 533.642Z" fill="#494256"/>
<path d="M509.201 528.002C509.093 528.381 508.814 528.6 508.28 528.441C507.916 528.275 507.335 528.032 506.638 528.032C504.043 528.032 502.788 530.485 502.788 533.998V539.668C502.788 540.183 502.541 540.455 502.091 540.455C501.619 540.455 501.363 540.183 501.363 539.668V527.616C501.363 527.101 501.611 526.829 502.091 526.829C502.541 526.829 502.788 527.101 502.788 527.593V529.531H502.897C503.207 528.577 504.066 526.67 506.692 526.67C507.613 526.67 508.28 526.973 508.698 527.132C509.17 527.291 509.31 527.593 509.201 528.002Z" fill="#494256"/>
<path d="M527.502 540.425C527.053 540.531 526.697 540.289 526.581 539.827L525.829 537.155C525.218 534.944 523.824 533.937 521.763 533.937H518.921V539.66C518.921 540.175 518.673 540.448 518.224 540.448C517.752 540.448 517.496 540.175 517.496 539.66V522.112C517.496 521.598 517.744 521.325 518.224 521.325C518.673 521.325 518.921 521.598 518.921 522.112V532.605H521.763C523.576 532.605 524.552 531.734 525.194 529.448L525.86 527.351C525.969 526.912 526.31 526.753 526.728 526.859C527.177 526.995 527.34 527.298 527.2 527.813L526.472 530.235C526.139 531.295 525.411 532.552 524.071 533.127C525.574 533.619 526.751 535.065 527.193 536.723L527.944 539.449C528.091 539.963 527.952 540.319 527.502 540.425Z" fill="#494256"/>
</svg>
