<svg width="1400" height="500" viewBox="0 0 1400 500" fill="none" xmlns="http://www.w3.org/2000/svg">
<circle cx="251" cy="250" r="140" fill="black"/>
<path fill-rule="evenodd" clip-rule="evenodd" d="M264.096 180.286C264.998 181.191 266.225 181.701 267.521 181.701C268.817 181.701 270.021 181.191 270.947 180.286C271.85 179.382 272.359 178.153 272.359 176.855C272.359 175.557 271.873 174.351 270.947 173.424L263.656 166.12C256.504 158.956 244.884 158.956 237.732 166.12L230.441 173.424C229.539 174.328 229.029 175.557 229.029 176.855C229.029 178.153 229.515 179.359 230.441 180.286C231.344 181.191 232.571 181.701 233.867 181.701C235.163 181.701 236.367 181.214 237.292 180.286L244.583 172.983C246.227 171.36 248.379 170.456 250.694 170.456C253.009 170.456 255.184 171.36 256.805 172.983L264.096 180.286ZM238.982 167.349C242.199 164.126 246.458 162.503 250.694 162.503C254.93 162.503 259.165 164.103 262.406 167.349L269.697 174.652C270.901 175.858 270.901 177.806 269.697 179.011C268.493 180.217 266.549 180.217 265.346 179.011L258.054 171.708C256.087 169.737 253.472 168.647 250.694 168.647C247.917 168.647 245.301 169.737 243.334 171.708L236.043 179.011C234.885 180.17 232.848 180.17 231.691 179.011C231.112 178.432 230.788 177.666 230.788 176.832C230.788 176.02 231.112 175.232 231.691 174.652L238.982 167.349Z" fill="white"/>
<path fill-rule="evenodd" clip-rule="evenodd" d="M185.561 225.219C186.51 226.17 187.737 226.633 188.987 226.633C190.236 226.633 191.486 226.147 192.435 225.219L226.067 191.508C227.965 189.63 227.965 186.546 226.067 184.645C224.192 182.744 221.113 182.744 219.215 184.645L185.561 218.356C183.663 220.234 183.663 223.318 185.561 225.219ZM220.465 185.874C221.044 185.294 221.808 184.97 222.641 184.97C223.474 184.97 224.238 185.294 224.817 185.874C225.395 186.454 225.719 187.219 225.719 188.053C225.719 188.865 225.395 189.653 224.817 190.233L191.162 223.944C190.005 225.103 187.968 225.103 186.811 223.944C186.232 223.364 185.908 222.599 185.908 221.765C185.908 220.953 186.232 220.165 186.811 219.585L220.465 185.874Z" fill="white"/>
<path d="M320.179 270.152C321.081 271.056 322.308 271.566 323.604 271.566C324.9 271.566 326.104 271.079 327.03 270.152L334.321 262.849C341.473 255.684 341.473 244.045 334.321 236.881L327.03 229.578C326.127 228.674 324.9 228.164 323.604 228.164C322.308 228.164 321.104 228.651 320.179 229.578C319.276 230.482 318.767 231.711 318.767 233.009C318.767 234.308 319.253 235.513 320.179 236.441L327.47 243.744C330.826 247.129 330.826 252.624 327.47 255.986L320.179 263.289C318.281 265.167 318.281 268.251 320.179 270.152Z" fill="white"/>
<path d="M308.953 225.219C309.902 226.17 311.128 226.633 312.378 226.633C313.628 226.633 314.878 226.147 315.804 225.196C317.702 223.318 317.702 220.234 315.804 218.333L282.15 184.645C280.275 182.744 277.196 182.744 275.298 184.645C273.4 186.523 273.4 189.607 275.298 191.508L308.953 225.219Z" fill="white"/>
<path fill-rule="evenodd" clip-rule="evenodd" d="M177.784 271.566C176.488 271.566 175.261 271.056 174.358 270.152L167.067 262.849C159.915 255.684 159.915 244.045 167.067 236.881L174.358 229.578C175.284 228.651 176.488 228.164 177.784 228.164C179.08 228.164 180.307 228.674 181.209 229.578C182.135 230.505 182.621 231.711 182.621 233.009C182.621 234.308 182.112 235.537 181.209 236.441L173.918 243.744C170.562 247.106 170.562 252.601 173.918 255.986L181.209 263.289C182.135 264.217 182.621 265.422 182.621 266.721C182.621 268.019 182.112 269.248 181.209 270.152C180.284 271.079 179.08 271.566 177.784 271.566ZM177.784 229.926C176.951 229.926 176.187 230.25 175.608 230.83L168.317 238.133C161.859 244.602 161.859 255.128 168.317 261.597L175.608 268.9C176.765 270.059 178.802 270.059 179.96 268.9C181.163 267.694 181.163 265.747 179.96 264.541L172.669 257.238C168.618 253.18 168.618 246.573 172.669 242.492L179.96 235.189C180.538 234.609 180.862 233.821 180.862 233.009C180.862 232.175 180.538 231.41 179.96 230.83C179.381 230.25 178.594 229.926 177.784 229.926Z" fill="white"/>
<path fill-rule="evenodd" clip-rule="evenodd" d="M219.215 315.108C220.164 316.058 221.391 316.522 222.641 316.522C223.891 316.522 225.141 316.035 226.067 315.108C227.965 313.23 227.965 310.146 226.067 308.245L192.412 274.534C190.537 272.633 187.459 272.633 185.561 274.534C183.663 276.412 183.663 279.496 185.561 281.397L219.215 315.108ZM186.811 275.763C187.389 275.183 188.153 274.859 188.987 274.859C189.82 274.859 190.584 275.183 191.185 275.763L224.817 309.497C225.395 310.077 225.719 310.865 225.719 311.676C225.719 312.488 225.395 313.276 224.817 313.856C223.659 315.015 221.623 315.015 220.465 313.856L186.811 280.122C186.232 279.542 185.908 278.777 185.908 277.942C185.908 277.131 186.232 276.342 186.811 275.763Z" fill="white"/>
<path d="M275.298 315.108C276.247 316.058 277.474 316.522 278.724 316.522C279.974 316.522 281.224 316.035 282.173 315.108L315.804 281.397C317.702 279.519 317.702 276.435 315.804 274.534C313.929 272.633 310.851 272.633 308.953 274.534L275.298 308.245C273.4 310.123 273.4 313.207 275.298 315.108Z" fill="white"/>
<path d="M237.732 333.633C241.297 337.227 245.995 339.012 250.694 339.012C255.393 339.012 260.091 337.227 263.656 333.633L270.947 326.33C271.85 325.425 272.359 324.196 272.359 322.898C272.359 321.6 271.873 320.394 270.947 319.467C270.044 318.562 268.817 318.052 267.521 318.052C266.225 318.052 265.021 318.539 264.096 319.467L256.805 326.77C253.425 330.132 247.94 330.132 244.583 326.77L237.292 319.467C236.39 318.562 235.163 318.052 233.867 318.052C232.571 318.052 231.367 318.539 230.441 319.467C229.539 320.371 229.029 321.6 229.029 322.898C229.029 324.196 229.515 325.402 230.441 326.33L237.732 333.633Z" fill="white"/>
<path d="M215.257 249.865C215.257 237.623 224.169 228.697 236.228 228.697C248.287 228.697 257.198 237.623 257.198 249.865C257.198 262.107 248.287 271.033 236.228 271.033C224.169 271.033 215.257 262.107 215.257 249.865ZM254.305 249.865C254.305 239.2 246.551 231.433 236.228 231.433C225.905 231.433 218.151 239.2 218.151 249.865C218.151 260.53 225.905 268.297 236.228 268.297C246.551 268.297 254.305 260.53 254.305 249.865ZM234.006 249.865C234.006 248.798 234.839 247.964 235.904 247.964C236.968 247.964 237.802 248.798 237.802 249.865C237.802 250.931 236.968 251.766 235.904 251.766C234.839 251.766 234.006 250.931 234.006 249.865Z" fill="white"/>
<path d="M279.048 222.159C279.048 222.993 278.793 223.48 277.729 223.48H275.159C268.725 223.48 264.674 226.796 264.674 236.209V277.223C264.674 278.383 264.188 278.87 263.262 278.87C262.36 278.87 261.85 278.383 261.85 277.223V235.722C261.85 226.703 266.387 220.837 274.72 220.837H277.682C278.793 220.837 279.048 221.347 279.048 222.159ZM277.474 238.945C277.474 239.849 277.057 240.359 276.062 240.359H270.623C269.628 240.359 269.211 239.872 269.211 238.945C269.211 238.041 269.628 237.53 270.623 237.53H276.062C277.057 237.554 277.474 238.041 277.474 238.945Z" fill="white"/>
<path d="M433 258.193C433 245.61 442.414 236.385 455.55 236.385C468.687 236.385 478.125 245.587 478.125 258.193C478.125 270.704 468.711 280 455.55 280C442.414 280 433 270.704 433 258.193ZM467.918 258.193C467.918 251.103 463.163 245.61 455.55 245.61C447.937 245.61 443.182 251.103 443.182 258.193C443.182 265.282 447.937 270.704 455.55 270.704C463.163 270.704 467.918 265.282 467.918 258.193ZM451.42 258.193C451.42 255.751 453.245 253.873 455.814 253.873C458.408 253.873 460.233 255.728 460.233 258.193C460.233 260.657 458.408 262.418 455.814 262.418C453.221 262.418 451.42 260.634 451.42 258.193Z" fill="black"/>
<path d="M520.967 253.545C528.748 255.399 536.169 257.347 536.169 266.737C536.169 275.868 529.253 280 519.31 280C511.097 280 505.141 277.207 502.356 273.991C500.194 271.455 500.458 269.249 502.524 267.324C505.117 264.883 507.375 265.892 508.84 267.16C511.169 269.272 514.027 271.479 519.551 271.479C523.705 271.479 526.299 270.117 526.299 267.418C526.299 264.718 523.537 263.779 516.26 261.831C509.08 259.883 502.692 258.028 502.692 249.671C502.692 240.282 510.473 236.408 519.118 236.408C524.041 236.408 529.661 237.676 533.119 241.314C534.584 242.746 535.713 244.789 533.119 247.559C530.525 250.188 528.628 249.413 526.803 248.075C525.17 246.901 522.312 244.859 517.99 244.859C515.06 244.859 512.37 245.798 512.37 248.498C512.418 251.268 515.348 252.277 520.967 253.545Z" fill="black"/>
<path d="M602.067 242.23V260.915C602.067 274.695 592.293 280 581.75 280C571.111 280 561.361 274.671 561.361 260.915V242.23C561.361 239.272 563.355 237.066 566.453 237.066C569.478 237.066 571.544 239.272 571.544 242.23V260.235C571.544 267.746 575.867 270.704 581.75 270.704C587.538 270.704 591.861 267.746 591.861 260.235V242.23C591.861 239.272 593.926 237.066 596.952 237.066C600.074 237.066 602.067 239.272 602.067 242.23Z" fill="black"/>
<path d="M630.405 273.498C630.405 269.953 633.335 267.066 637.057 267.066C640.779 267.066 643.709 269.93 643.709 273.498C643.709 277.136 640.779 280 637.057 280C633.335 280 630.405 277.113 630.405 273.498ZM642.148 228.709V256.854C642.148 259.906 640.083 262.089 637.057 262.089C633.935 262.089 631.966 259.883 631.966 256.854V228.709C631.966 225.657 633.959 223.474 637.057 223.474C640.083 223.474 642.148 225.657 642.148 228.709Z" fill="black"/>
<path d="M694.069 222.019C694.069 223.286 693.373 224.038 691.908 224.038H688.45C681.702 224.038 677.811 227.582 677.811 236.455V276.854C677.811 278.451 677.043 279.296 675.65 279.296C674.185 279.296 673.392 278.451 673.392 276.854V236.15C673.392 226.338 678.484 220 688.09 220H691.884C693.397 220 694.069 220.751 694.069 222.019ZM692.34 239.272C692.34 240.634 691.572 241.385 690.083 241.385H684.631C683.167 241.385 682.374 240.634 682.374 239.272C682.374 237.84 683.143 237.066 684.631 237.066H690.083C691.572 237.066 692.34 237.817 692.34 239.272Z" fill="black"/>
<path d="M743.18 240.704C742.844 241.878 741.98 242.559 740.323 242.066C739.194 241.549 737.393 240.798 735.231 240.798C727.186 240.798 723.296 248.404 723.296 259.296V276.878C723.296 278.474 722.527 279.319 721.134 279.319C719.669 279.319 718.877 278.474 718.877 276.878V239.507C718.877 237.911 719.645 237.066 721.134 237.066C722.527 237.066 723.296 237.911 723.296 239.437V245.446H723.632C724.593 242.488 727.258 236.573 735.375 236.573C738.233 236.573 740.299 237.512 741.595 238.005C743.108 238.498 743.541 239.437 743.18 240.704Z" fill="black"/>
<path d="M791.091 277.465C791.091 278.826 790.394 279.483 788.761 279.483C773.896 279.483 764.722 270.61 764.722 258.192C764.722 245.352 774.328 236.573 787.632 236.573C800.264 236.573 807.685 243.075 807.685 255.329V276.784C807.685 278.38 806.917 279.319 805.428 279.319C803.963 279.319 803.17 278.38 803.17 276.784V256.667C803.17 245.516 797.983 240.704 787.536 240.704C776.826 240.704 769.213 248.052 769.213 258.028C769.213 268.169 776.465 275.352 788.737 275.352C790.394 275.352 791.091 276.009 791.091 277.465Z" fill="black"/>
<path d="M893.756 251.597V276.855C893.756 278.451 892.891 279.296 891.498 279.296C890.105 279.296 889.241 278.451 889.241 276.855V252.277C889.241 243.24 883.525 240.705 878.53 240.705C873.511 240.705 867.819 243.24 867.819 252.277V276.855C867.819 278.451 866.955 279.296 865.562 279.296C864.169 279.296 863.304 278.451 863.304 276.855V252.277C863.304 243.24 857.589 240.705 852.594 240.705C847.574 240.705 841.787 243.24 841.787 252.277V276.855C841.787 278.451 841.018 279.296 839.625 279.296C838.16 279.296 837.368 278.451 837.368 276.855V251.597C837.368 240.705 844.981 236.55 852.594 236.55C858.813 236.55 864.169 240.352 865.562 245C866.859 240.352 872.214 236.55 878.53 236.55C886.143 236.55 893.756 240.705 893.756 251.597Z" fill="black"/>
<path d="M958.38 273.239C959.149 274.178 958.981 275.258 957.684 276.291C955.186 278.31 949.639 279.836 943.947 279.836C929.61 279.836 921.205 270.704 921.205 258.216C921.205 245.634 930.187 236.596 942.65 236.596C953.793 236.596 961.935 243.685 961.935 254.929C961.935 258.051 960.302 259.742 957.348 259.742H941.089C939.697 259.742 938.832 259.061 938.832 257.723C938.832 256.455 939.697 255.774 941.089 255.774H957.684C957.684 245.798 950.768 240.657 942.819 240.657C932.708 240.657 925.696 248.098 925.696 258.239C925.696 268.286 932.276 275.821 943.755 275.821C948.846 275.821 953.265 274.296 955.09 272.864C956.387 271.972 957.588 272.136 958.38 273.239Z" fill="black"/>
<path d="M1017 270.868C1015.61 275.516 1010.25 279.413 1004.03 279.413C996.42 279.413 988.832 275.188 988.832 264.296V239.507C988.832 237.911 989.6 237.066 991.089 237.066C992.482 237.066 993.25 237.911 993.25 239.507V263.591C993.25 272.629 999.038 275.258 1004.06 275.258C1009.08 275.258 1014.77 272.629 1014.77 263.591V239.507C1014.77 237.911 1015.63 237.066 1017.03 237.066C1018.42 237.066 1019.28 237.911 1019.28 239.507V263.591C1019.28 272.629 1025 275.258 1029.99 275.258C1034.99 275.258 1040.7 272.629 1040.7 263.591V239.507C1040.7 237.911 1041.57 237.066 1042.96 237.066C1044.35 237.066 1045.22 237.911 1045.22 239.507V264.272C1045.22 275.164 1037.61 279.39 1029.99 279.39C1023.65 279.39 1018.3 275.516 1017 270.868Z" fill="black"/>
<path d="M1072.62 258.192C1072.62 245.681 1081.96 236.573 1094.67 236.573C1107.37 236.573 1116.71 245.704 1116.71 258.192C1116.71 270.681 1107.37 279.812 1094.67 279.812C1081.96 279.812 1072.62 270.704 1072.62 258.192ZM1112.2 258.192C1112.2 248.052 1104.75 240.704 1094.64 240.704C1084.53 240.704 1077.09 248.052 1077.09 258.192C1077.09 268.333 1084.51 275.681 1094.64 275.681C1104.78 275.681 1112.2 268.333 1112.2 258.192ZM1091.81 258.192C1091.81 256.76 1092.94 255.657 1094.5 255.657C1095.96 255.657 1097.09 256.76 1097.09 258.192C1097.09 259.624 1095.96 260.728 1094.5 260.728C1092.91 260.728 1091.81 259.624 1091.81 258.192Z" fill="black"/>
<path d="M1168.54 240.704C1168.2 241.878 1167.34 242.559 1165.68 242.066C1164.55 241.549 1162.75 240.798 1160.59 240.798C1152.54 240.798 1148.65 248.404 1148.65 259.296V276.878C1148.65 278.474 1147.88 279.319 1146.49 279.319C1145.03 279.319 1144.23 278.474 1144.23 276.878V239.507C1144.23 237.911 1145 237.066 1146.49 237.066C1147.88 237.066 1148.65 237.911 1148.65 239.437V245.446H1148.99C1149.95 242.488 1152.62 236.573 1160.76 236.573C1163.61 236.573 1165.68 237.512 1166.98 238.005C1168.44 238.498 1168.87 239.437 1168.54 240.704Z" fill="black"/>
<path d="M1225.29 279.225C1223.89 279.554 1222.79 278.803 1222.43 277.371L1220.1 269.085C1218.2 262.23 1213.88 259.108 1207.49 259.108H1198.68V276.854C1198.68 278.451 1197.91 279.296 1196.52 279.296C1195.05 279.296 1194.26 278.451 1194.26 276.854V222.441C1194.26 220.845 1195.03 220 1196.52 220C1197.91 220 1198.68 220.845 1198.68 222.441V254.977H1207.49C1213.11 254.977 1216.14 252.277 1218.13 245.188L1220.19 238.685C1220.53 237.324 1221.59 236.831 1222.88 237.16C1224.28 237.582 1224.78 238.521 1224.35 240.117L1222.09 247.629C1221.06 250.916 1218.8 254.812 1214.65 256.596C1219.31 258.122 1222.96 262.606 1224.32 267.746L1226.65 276.197C1227.11 277.793 1226.68 278.897 1225.29 279.225Z" fill="black"/>
</svg>
