<svg width="350" height="350" viewBox="0 0 350 350" fill="none" xmlns="http://www.w3.org/2000/svg">
<circle cx="175" cy="175" r="140" fill="black"/>
<path fill-rule="evenodd" clip-rule="evenodd" d="M188.096 105.286C188.998 106.191 190.225 106.701 191.521 106.701C192.817 106.701 194.021 106.191 194.947 105.286C195.85 104.382 196.359 103.153 196.359 101.855C196.359 100.557 195.873 99.3509 194.947 98.4235L187.656 91.1202C180.504 83.956 168.884 83.956 161.732 91.1202L154.441 98.4235C153.539 99.3278 153.029 100.557 153.029 101.855C153.029 103.153 153.515 104.359 154.441 105.286C155.344 106.191 156.571 106.701 157.867 106.701C159.163 106.701 160.367 106.214 161.293 105.286L168.584 97.983C170.227 96.3601 172.379 95.4558 174.694 95.4558C177.009 95.4558 179.184 96.3601 180.805 97.983L188.096 105.286ZM162.982 92.349C166.199 89.1263 170.458 87.5033 174.694 87.5033C178.93 87.5033 183.166 89.1031 186.406 92.349L193.697 99.6523C194.901 100.858 194.901 102.806 193.697 104.011C192.493 105.217 190.549 105.217 189.346 104.011L182.055 96.7078C180.087 94.7371 177.472 93.6474 174.694 93.6474C171.917 93.6474 169.301 94.7371 167.334 96.7078L160.043 104.011C158.885 105.17 156.848 105.17 155.691 104.011C155.113 103.432 154.788 102.666 154.788 101.832C154.788 101.02 155.113 100.232 155.691 99.6523L162.982 92.349Z" fill="white"/>
<path fill-rule="evenodd" clip-rule="evenodd" d="M109.561 150.219C110.51 151.17 111.737 151.633 112.987 151.633C114.237 151.633 115.486 151.147 116.435 150.219L150.067 116.508C151.965 114.63 151.965 111.546 150.067 109.645C148.192 107.744 145.113 107.744 143.215 109.645L109.561 143.356C107.663 145.234 107.663 148.318 109.561 150.219ZM144.465 110.874C145.044 110.294 145.808 109.97 146.641 109.97C147.474 109.97 148.238 110.294 148.817 110.874C149.395 111.454 149.719 112.219 149.719 113.053C149.719 113.865 149.395 114.653 148.817 115.233L115.162 148.944C114.005 150.103 111.968 150.103 110.811 148.944C110.232 148.364 109.908 147.599 109.908 146.765C109.908 145.953 110.232 145.165 110.811 144.585L144.465 110.874Z" fill="white"/>
<path d="M244.179 195.152C245.081 196.056 246.308 196.566 247.604 196.566C248.9 196.566 250.104 196.079 251.03 195.152L258.321 187.849C265.473 180.684 265.473 169.045 258.321 161.881L251.03 154.578C250.127 153.674 248.9 153.164 247.604 153.164C246.308 153.164 245.105 153.651 244.179 154.578C243.276 155.482 242.767 156.711 242.767 158.009C242.767 159.308 243.253 160.513 244.179 161.441L251.47 168.744C254.826 172.129 254.826 177.624 251.47 180.986L244.179 188.289C242.281 190.167 242.281 193.251 244.179 195.152Z" fill="white"/>
<path d="M232.953 150.219C233.902 151.17 235.129 151.633 236.378 151.633C237.628 151.633 238.878 151.147 239.804 150.196C241.702 148.318 241.702 145.234 239.804 143.333L206.15 109.645C204.275 107.744 201.196 107.744 199.298 109.645C197.4 111.523 197.4 114.607 199.298 116.508L232.953 150.219Z" fill="white"/>
<path fill-rule="evenodd" clip-rule="evenodd" d="M101.784 196.566C100.488 196.566 99.261 196.056 98.3583 195.152L91.0673 187.849C83.9151 180.684 83.9151 169.045 91.0673 161.881L98.3583 154.578C99.2842 153.651 100.488 153.164 101.784 153.164C103.08 153.164 104.307 153.674 105.21 154.578C106.135 155.505 106.621 156.711 106.621 158.009C106.621 159.308 106.112 160.537 105.21 161.441L97.9185 168.744C94.5624 172.106 94.5624 177.601 97.9185 180.986L105.21 188.289C106.135 189.217 106.621 190.422 106.621 191.721C106.621 193.019 106.112 194.248 105.21 195.152C104.284 196.079 103.08 196.566 101.784 196.566ZM101.784 154.926C100.951 154.926 100.187 155.25 99.6082 155.83L92.3172 163.133C85.8594 169.602 85.8594 180.128 92.3172 186.597L99.6082 193.9C100.766 195.059 102.802 195.059 103.96 193.9C105.163 192.694 105.163 190.747 103.96 189.541L96.6686 182.238C92.6181 178.18 92.6181 171.573 96.6686 167.492L103.96 160.189C104.538 159.609 104.862 158.821 104.862 158.009C104.862 157.175 104.538 156.41 103.96 155.83C103.381 155.25 102.594 154.926 101.784 154.926Z" fill="white"/>
<path fill-rule="evenodd" clip-rule="evenodd" d="M143.215 240.108C144.164 241.058 145.391 241.522 146.641 241.522C147.891 241.522 149.141 241.035 150.067 240.108C151.965 238.23 151.965 235.146 150.067 233.245L116.412 199.534C114.537 197.633 111.459 197.633 109.561 199.534C107.663 201.412 107.663 204.496 109.561 206.397L143.215 240.108ZM110.811 200.763C111.39 200.183 112.153 199.859 112.987 199.859C113.82 199.859 114.584 200.183 115.186 200.763L148.817 234.497C149.395 235.077 149.719 235.865 149.719 236.676C149.719 237.488 149.395 238.276 148.817 238.856C147.659 240.015 145.623 240.015 144.465 238.856L110.811 205.122C110.232 204.542 109.908 203.777 109.908 202.942C109.908 202.131 110.232 201.342 110.811 200.763Z" fill="white"/>
<path d="M199.298 240.108C200.247 241.058 201.474 241.522 202.724 241.522C203.974 241.522 205.224 241.035 206.173 240.108L239.804 206.397C241.702 204.519 241.702 201.435 239.804 199.534C237.929 197.633 234.851 197.633 232.953 199.534L199.298 233.245C197.4 235.123 197.4 238.207 199.298 240.108Z" fill="white"/>
<path d="M161.732 258.633C165.297 262.227 169.995 264.012 174.694 264.012C179.393 264.012 184.091 262.227 187.656 258.633L194.947 251.33C195.85 250.425 196.359 249.196 196.359 247.898C196.359 246.6 195.873 245.394 194.947 244.467C194.044 243.562 192.817 243.052 191.521 243.052C190.225 243.052 189.022 243.539 188.096 244.467L180.805 251.77C177.425 255.132 171.94 255.132 168.584 251.77L161.293 244.467C160.39 243.562 159.163 243.052 157.867 243.052C156.571 243.052 155.367 243.539 154.441 244.467C153.539 245.371 153.029 246.6 153.029 247.898C153.029 249.196 153.515 250.402 154.441 251.33L161.732 258.633Z" fill="white"/>
<path d="M139.257 174.865C139.257 162.623 148.169 153.697 160.228 153.697C172.287 153.697 181.198 162.623 181.198 174.865C181.198 187.107 172.287 196.033 160.228 196.033C148.169 196.033 139.257 187.107 139.257 174.865ZM178.305 174.865C178.305 164.2 170.551 156.433 160.228 156.433C149.905 156.433 142.151 164.2 142.151 174.865C142.151 185.53 149.905 193.297 160.228 193.297C170.551 193.297 178.305 185.53 178.305 174.865ZM158.006 174.865C158.006 173.799 158.839 172.964 159.904 172.964C160.968 172.964 161.802 173.799 161.802 174.865C161.802 175.932 160.968 176.766 159.904 176.766C158.839 176.766 158.006 175.932 158.006 174.865Z" fill="white"/>
<path d="M203.048 147.159C203.048 147.993 202.793 148.48 201.729 148.48H199.159C192.725 148.48 188.674 151.796 188.674 161.209V202.223C188.674 203.383 188.188 203.87 187.262 203.87C186.36 203.87 185.85 203.383 185.85 202.223V160.722C185.85 151.703 190.387 145.837 198.72 145.837H201.682C202.793 145.837 203.048 146.347 203.048 147.159ZM201.474 163.945C201.474 164.849 201.057 165.359 200.062 165.359H194.623C193.628 165.359 193.211 164.872 193.211 163.945C193.211 163.041 193.628 162.53 194.623 162.53H200.062C201.057 162.554 201.474 163.041 201.474 163.945Z" fill="white"/>
</svg>
