<svg width="350" height="350" viewBox="0 0 350 350" fill="none" xmlns="http://www.w3.org/2000/svg">
<path d="M52.5682 237.728C52.345 234.516 52.2021 231.377 52.1722 228.302C50.8854 225.801 49.6733 223.233 48.5408 220.594C42.9946 206.352 41.8613 191.716 44.0853 177.335C42.7068 145.975 53.0993 115.693 72.8149 91.4056C78.2034 77.054 88.9287 65.1187 107.031 58.0431C112.006 56.0983 117.08 54.4455 122.222 53.0794C127.717 50.498 133.46 48.2095 139.435 46.2418C152.25 42.1844 165.719 40.7609 179.009 41.763C190.382 40.7349 201.996 40.7476 213.665 41.7903C256.948 49.7892 286.297 79.7212 295.903 119.623C296.644 122.703 297.306 125.786 297.89 128.869C300.43 137.986 301.377 147.296 301.021 156.621C301.407 167.235 300.849 177.719 299.361 187.926C300.788 193.534 301.826 199.129 302.43 204.666C304.698 225.648 300.578 245.564 287.084 260.565C283.08 265.017 278.266 269.028 272.525 272.459C264.08 277.058 255.915 280.67 247.349 282.495C232.089 295.029 213.525 303.863 192.463 306.959C182.881 308.234 172.812 308.396 162.327 307.121C153.479 306.356 144.986 304.554 136.9 301.884C132.2 302.328 127.433 302.393 122.608 302.02C115.34 300.791 108.304 298.96 101.661 296.525C81.7322 289.222 65.3911 276.377 57.3594 256.856C54.9754 251.083 53.332 244.707 52.5682 237.728Z" fill="white"/>
<path opacity="0.8" d="M202.493 273.385C179.231 290.31 151.988 304.29 122.592 302.018C115.324 300.79 108.288 298.958 101.645 296.523C81.7163 289.22 65.3751 276.376 57.3434 256.854C54.9594 251.081 53.316 244.705 52.5522 237.726C51.2791 219.41 52.6216 203.458 62.5976 188.133C88.7295 156.416 106.205 124.003 120.046 83.2666C129.212 63.6056 148.608 53.2882 169.301 50.4828C176.569 49.3468 184.045 48.9062 191.73 49.1845C243.114 53.1259 277.764 106.915 289.753 160.496C291.466 168.147 292.716 175.798 293.48 183.287C298.456 232.463 250.22 248.067 217.028 263.74C212.306 266.731 207.469 270.023 202.493 273.385Z" fill="#F7931E"/>
<path opacity="0.4" d="M162.311 307.119C126.897 304.058 97.1778 284.374 76.4621 259.01C69.5646 250.547 63.6623 241.459 58.8711 232.115C20.6337 157.598 58.8711 72.7635 139.419 46.2397C175.226 34.9022 216.149 44.1299 243.97 69.3785C290.448 115.54 310.631 189.617 278.227 244.403C274.037 252.356 268.991 259.891 263.182 266.8C245.753 287.527 221.472 302.69 192.447 306.957C182.865 308.232 172.796 308.394 162.311 307.119Z" fill="#7AC943"/>
<path opacity="0.4" d="M169.372 306.449C84.2636 301.186 23.7829 207.402 53.8265 127.575C81.787 63.7234 146.943 35.8085 213.882 41.7903C257.165 49.7892 286.514 79.7212 296.12 119.623C315.331 199.449 281.329 281.246 199.971 305.266C190.296 307.005 180.088 307.492 169.372 306.449Z" fill="#3FA9F5"/>
<path opacity="0.4" d="M279.777 163.533C286.86 219.224 257.696 300.743 196.706 291.005C117.801 284.119 45.3769 202.6 70.1664 120.687C87.8963 69.1468 155.575 52.9172 207.793 61.913C242.489 69.3554 266.121 102.394 273.134 133.486C276.19 142.76 278.458 152.799 279.777 163.533Z" fill="#726789"/>
<path opacity="0.8" d="M238.762 122.264C263.506 136.708 287.439 155.906 298.132 183.473C300.192 190.567 301.65 197.662 302.414 204.664C304.682 225.646 300.563 245.562 287.068 260.563C283.064 265.015 278.25 269.026 272.509 272.457C257.14 280.827 242.697 285.928 225.083 282.937C186.198 271.785 150.483 268.724 109.098 272.249C88.0583 271.692 70.7219 258.152 59.334 240.462C55.214 234.318 51.58 227.71 48.5248 220.592C29.7533 172.39 61.5329 119.667 102.941 87.6022C108.843 83.0347 114.954 78.8614 121.134 75.2213C161.732 51.2479 196.104 88.8773 224.065 112.828C228.763 115.981 233.693 119.064 238.762 122.264Z" fill="#FF7BAC"/>
<path opacity="0.8" d="M259.293 198.728C257.881 212.384 255.428 226.527 250.845 240.044C246.331 253.724 239.573 266.591 229.504 277.419C224.018 282.357 218.255 286.762 212.306 290.472C194.415 301.624 174.717 306.539 155.367 300.859C149.627 299.166 143.933 296.57 138.355 292.883C124.143 282.659 113.288 271.808 108.357 254.605C106.645 244.612 104.585 235.036 102.085 225.716C96.6223 211.735 92.0163 198.311 87.0862 184.91C64.4261 142.18 53.5706 78.9308 107.015 58.041C160.459 37.1512 225.222 49.9494 263.992 89.9669C291.165 116.004 270.889 155.14 261.839 182.36C260.89 187.623 260.103 193.094 259.293 198.728Z" fill="#726789"/>
<path opacity="0.4" d="M114.63 281.453C56.4407 254.211 22.9021 176.494 61.5097 118.531C113.241 45.869 227.884 26.9499 284.962 101.977C321.232 153.031 289.938 217.578 253.53 256.923C244.155 267.333 233.601 276.283 222.097 283.099C210.571 289.916 198.095 294.576 184.855 296.408C171.616 298.239 157.659 297.219 143.192 292.675C133.726 290.31 124.12 286.647 114.63 281.453Z" fill="#726789"/>
<path opacity="0.5" d="M114.63 281.453C56.4407 254.211 22.9021 176.494 61.5097 118.531C113.241 45.869 227.884 26.9499 284.962 101.977C321.232 153.031 289.938 217.578 253.53 256.923C244.155 267.333 233.601 276.283 222.097 283.099C210.571 289.916 198.095 294.576 184.855 296.408C171.616 298.239 157.659 297.219 143.192 292.675C133.726 290.31 124.12 286.647 114.63 281.453Z" fill="#726789"/>
<path fill-rule="evenodd" clip-rule="evenodd" d="M188.096 107.286C188.998 108.191 190.225 108.701 191.521 108.701C192.817 108.701 194.021 108.191 194.947 107.286C195.85 106.382 196.359 105.153 196.359 103.855C196.359 102.557 195.873 101.351 194.947 100.424L187.656 93.1202C180.504 85.956 168.884 85.956 161.732 93.1202L154.441 100.424C153.539 101.328 153.029 102.557 153.029 103.855C153.029 105.153 153.515 106.359 154.441 107.286C155.344 108.191 156.571 108.701 157.867 108.701C159.163 108.701 160.367 108.214 161.293 107.286L168.584 99.983C170.227 98.3601 172.379 97.4558 174.694 97.4558C177.009 97.4558 179.184 98.3601 180.805 99.983L188.096 107.286ZM162.982 94.349C166.199 91.1263 170.458 89.5033 174.694 89.5033C178.93 89.5033 183.166 91.1031 186.406 94.349L193.697 101.652C194.901 102.858 194.901 104.806 193.697 106.011C192.493 107.217 190.549 107.217 189.346 106.011L182.055 98.7078C180.087 96.7371 177.472 95.6474 174.694 95.6474C171.917 95.6474 169.301 96.7371 167.334 98.7078L160.043 106.011C158.885 107.17 156.848 107.17 155.691 106.011C155.113 105.432 154.788 104.666 154.788 103.832C154.788 103.02 155.113 102.232 155.691 101.652L162.982 94.349Z" fill="white"/>
<path fill-rule="evenodd" clip-rule="evenodd" d="M109.561 152.219C110.51 153.17 111.737 153.633 112.987 153.633C114.237 153.633 115.486 153.147 116.435 152.219L150.067 118.508C151.965 116.63 151.965 113.546 150.067 111.645C148.192 109.744 145.113 109.744 143.215 111.645L109.561 145.356C107.663 147.234 107.663 150.318 109.561 152.219ZM144.465 112.874C145.044 112.294 145.808 111.97 146.641 111.97C147.474 111.97 148.238 112.294 148.817 112.874C149.395 113.454 149.719 114.219 149.719 115.053C149.719 115.865 149.395 116.653 148.817 117.233L115.162 150.944C114.005 152.103 111.968 152.103 110.811 150.944C110.232 150.364 109.908 149.599 109.908 148.765C109.908 147.953 110.232 147.165 110.811 146.585L144.465 112.874Z" fill="white"/>
<path d="M244.179 197.152C245.081 198.056 246.308 198.566 247.604 198.566C248.9 198.566 250.104 198.079 251.03 197.152L258.321 189.849C265.473 182.684 265.473 171.045 258.321 163.881L251.03 156.578C250.127 155.674 248.9 155.164 247.604 155.164C246.308 155.164 245.105 155.651 244.179 156.578C243.276 157.482 242.767 158.711 242.767 160.009C242.767 161.308 243.253 162.513 244.179 163.441L251.47 170.744C254.826 174.129 254.826 179.624 251.47 182.986L244.179 190.289C242.281 192.167 242.281 195.251 244.179 197.152Z" fill="white"/>
<path d="M232.953 152.219C233.902 153.17 235.129 153.633 236.378 153.633C237.628 153.633 238.878 153.147 239.804 152.196C241.702 150.318 241.702 147.234 239.804 145.333L206.15 111.645C204.275 109.744 201.196 109.744 199.298 111.645C197.4 113.523 197.4 116.607 199.298 118.508L232.953 152.219Z" fill="white"/>
<path fill-rule="evenodd" clip-rule="evenodd" d="M101.784 198.566C100.488 198.566 99.261 198.056 98.3583 197.152L91.0673 189.849C83.9151 182.684 83.9151 171.045 91.0673 163.881L98.3583 156.578C99.2842 155.651 100.488 155.164 101.784 155.164C103.08 155.164 104.307 155.674 105.21 156.578C106.135 157.505 106.621 158.711 106.621 160.009C106.621 161.308 106.112 162.537 105.21 163.441L97.9185 170.744C94.5624 174.106 94.5624 179.601 97.9185 182.986L105.21 190.289C106.135 191.217 106.621 192.422 106.621 193.721C106.621 195.019 106.112 196.248 105.21 197.152C104.284 198.079 103.08 198.566 101.784 198.566ZM101.784 156.926C100.951 156.926 100.187 157.25 99.6082 157.83L92.3172 165.133C85.8594 171.602 85.8594 182.128 92.3172 188.597L99.6082 195.9C100.766 197.059 102.802 197.059 103.96 195.9C105.163 194.694 105.163 192.747 103.96 191.541L96.6686 184.238C92.6181 180.18 92.6181 173.573 96.6686 169.492L103.96 162.189C104.538 161.609 104.862 160.821 104.862 160.009C104.862 159.175 104.538 158.41 103.96 157.83C103.381 157.25 102.594 156.926 101.784 156.926Z" fill="white"/>
<path fill-rule="evenodd" clip-rule="evenodd" d="M143.215 242.108C144.164 243.058 145.391 243.522 146.641 243.522C147.891 243.522 149.141 243.035 150.067 242.108C151.965 240.23 151.965 237.146 150.067 235.245L116.412 201.534C114.537 199.633 111.459 199.633 109.561 201.534C107.663 203.412 107.663 206.496 109.561 208.397L143.215 242.108ZM110.811 202.763C111.39 202.183 112.153 201.859 112.987 201.859C113.82 201.859 114.584 202.183 115.186 202.763L148.817 236.497C149.395 237.077 149.719 237.865 149.719 238.676C149.719 239.488 149.395 240.276 148.817 240.856C147.659 242.015 145.623 242.015 144.465 240.856L110.811 207.122C110.232 206.542 109.908 205.777 109.908 204.942C109.908 204.131 110.232 203.342 110.811 202.763Z" fill="white"/>
<path d="M199.298 242.108C200.247 243.058 201.474 243.522 202.724 243.522C203.974 243.522 205.224 243.035 206.173 242.108L239.804 208.397C241.702 206.519 241.702 203.435 239.804 201.534C237.929 199.633 234.851 199.633 232.953 201.534L199.298 235.245C197.4 237.123 197.4 240.207 199.298 242.108Z" fill="white"/>
<path d="M161.732 260.633C165.297 264.227 169.995 266.012 174.694 266.012C179.393 266.012 184.091 264.227 187.656 260.633L194.947 253.33C195.85 252.425 196.359 251.196 196.359 249.898C196.359 248.6 195.873 247.394 194.947 246.467C194.044 245.562 192.817 245.052 191.521 245.052C190.225 245.052 189.022 245.539 188.096 246.467L180.805 253.77C177.425 257.132 171.94 257.132 168.584 253.77L161.293 246.467C160.39 245.562 159.163 245.052 157.867 245.052C156.571 245.052 155.367 245.539 154.441 246.467C153.539 247.371 153.029 248.6 153.029 249.898C153.029 251.196 153.515 252.402 154.441 253.33L161.732 260.633Z" fill="white"/>
<path d="M139.257 176.865C139.257 164.623 148.169 155.697 160.228 155.697C172.287 155.697 181.198 164.623 181.198 176.865C181.198 189.107 172.287 198.033 160.228 198.033C148.169 198.033 139.257 189.107 139.257 176.865ZM178.305 176.865C178.305 166.2 170.551 158.433 160.228 158.433C149.905 158.433 142.151 166.2 142.151 176.865C142.151 187.53 149.905 195.297 160.228 195.297C170.551 195.297 178.305 187.53 178.305 176.865ZM158.006 176.865C158.006 175.798 158.839 174.964 159.904 174.964C160.968 174.964 161.802 175.798 161.802 176.865C161.802 177.931 160.968 178.766 159.904 178.766C158.839 178.766 158.006 177.931 158.006 176.865Z" fill="white"/>
<path d="M203.048 149.159C203.048 149.993 202.793 150.48 201.729 150.48H199.159C192.725 150.48 188.674 153.796 188.674 163.209V204.223C188.674 205.383 188.188 205.87 187.262 205.87C186.36 205.87 185.85 205.383 185.85 204.223V162.722C185.85 153.703 190.387 147.837 198.72 147.837H201.682C202.793 147.837 203.048 148.347 203.048 149.159ZM201.474 165.945C201.474 166.849 201.057 167.359 200.062 167.359H194.623C193.628 167.359 193.211 166.872 193.211 165.945C193.211 165.041 193.628 164.53 194.623 164.53H200.062C201.057 164.554 201.474 165.041 201.474 165.945Z" fill="white"/>
</svg>
