<svg width="500" height="500" viewBox="0 0 500 500" fill="none" xmlns="http://www.w3.org/2000/svg">
<path d="M127.568 271.728C127.345 268.516 127.202 265.377 127.172 262.302C125.885 259.801 124.673 257.233 123.541 254.594C117.995 240.352 116.861 225.716 119.085 211.335C117.707 179.975 128.099 149.693 147.815 125.406C153.203 111.054 163.929 99.1187 182.031 92.0431C187.006 90.0983 192.08 88.4455 197.222 87.0794C202.717 84.498 208.46 82.2095 214.435 80.2418C227.25 76.1844 240.719 74.7609 254.009 75.763C265.382 74.7349 276.996 74.7476 288.665 75.7903C331.948 83.7892 361.297 113.721 370.903 153.623C371.644 156.703 372.306 159.786 372.89 162.869C375.43 171.986 376.377 181.296 376.021 190.621C376.407 201.235 375.849 211.719 374.361 221.926C375.788 227.534 376.826 233.129 377.43 238.666C379.698 259.648 375.578 279.564 362.084 294.565C358.08 299.017 353.266 303.028 347.525 306.459C339.08 311.058 330.915 314.67 322.349 316.495C307.089 329.029 288.525 337.863 267.463 340.959C257.881 342.234 247.812 342.396 237.327 341.121C228.479 340.356 219.986 338.554 211.9 335.884C207.2 336.328 202.433 336.393 197.608 336.02C190.34 334.791 183.304 332.96 176.661 330.525C156.732 323.222 140.391 310.377 132.359 290.856C129.975 285.083 128.332 278.707 127.568 271.728Z" fill="white"/>
<path opacity="0.8" d="M277.493 307.385C254.231 324.31 226.988 338.29 197.592 336.018C190.324 334.789 183.288 332.958 176.645 330.523C156.716 323.22 140.375 310.375 132.343 290.854C129.959 285.08 128.316 278.705 127.552 271.726C126.279 253.41 127.622 237.458 137.598 222.133C163.73 190.416 181.205 158.003 195.046 117.266C204.212 97.6055 223.608 87.2881 244.301 84.4827C251.569 83.3466 259.045 82.9061 266.73 83.1843C318.114 87.1258 352.764 140.915 364.753 194.496C366.466 202.147 367.716 209.798 368.48 217.287C373.456 266.463 325.22 282.066 292.028 297.74C287.306 300.73 282.469 304.023 277.493 307.385Z" fill="#F7931E"/>
<path opacity="0.4" d="M237.311 341.119C201.897 338.059 172.178 318.374 151.462 293.01C144.565 284.547 138.662 275.459 133.871 266.115C95.6337 191.598 133.871 106.764 214.419 80.2398C250.226 68.9023 291.149 78.13 318.97 103.379C365.448 149.54 385.631 223.617 353.227 278.403C349.037 286.356 343.991 293.891 338.182 300.8C320.753 321.528 296.472 336.691 267.447 340.957C257.865 342.232 247.796 342.394 237.311 341.119Z" fill="#7AC943"/>
<path opacity="0.4" d="M244.372 340.449C159.264 335.186 98.7829 241.402 128.826 161.575C156.787 97.7234 221.943 69.8085 288.882 75.7903C332.165 83.7892 361.514 113.721 371.12 153.623C390.331 233.449 356.329 315.246 274.971 339.266C265.296 341.005 255.088 341.492 244.372 340.449Z" fill="#3FA9F5"/>
<path opacity="0.4" d="M354.777 197.533C361.86 253.224 332.696 334.743 271.706 325.005C192.801 318.119 120.377 236.6 145.166 154.687C162.896 103.147 230.575 86.9172 282.793 95.913C317.489 103.355 341.121 136.394 348.134 167.486C351.19 176.76 353.458 186.799 354.777 197.533Z" fill="#726789"/>
<path opacity="0.8" d="M313.762 156.264C338.506 170.708 362.439 189.906 373.132 217.473C375.192 224.567 376.65 231.662 377.414 238.664C379.682 259.646 375.563 279.562 362.068 294.563C358.064 299.015 353.25 303.026 347.509 306.457C332.14 314.827 317.697 319.928 300.083 316.937C261.198 305.785 225.483 302.724 184.098 306.249C163.058 305.692 145.722 292.152 134.334 274.462C130.214 268.318 126.58 261.71 123.525 254.592C104.753 206.39 136.533 153.667 177.941 121.602C183.843 117.035 189.954 112.861 196.134 109.221C236.732 85.2479 271.104 122.877 299.065 146.828C303.763 149.981 308.693 153.064 313.762 156.264Z" fill="#FF7BAC"/>
<path opacity="0.8" d="M334.293 232.728C332.881 246.384 330.428 260.527 325.845 274.044C321.331 287.724 314.573 300.591 304.504 311.419C299.018 316.357 293.255 320.762 287.306 324.472C269.415 335.624 249.717 340.539 230.367 334.859C224.627 333.166 218.933 330.57 213.355 326.883C199.143 316.659 188.288 305.808 183.357 288.605C181.645 278.612 179.585 269.036 177.085 259.716C171.622 245.735 167.016 232.311 162.086 218.91C139.426 176.18 128.571 112.931 182.015 92.041C235.459 71.1512 300.222 83.9494 338.992 123.967C366.165 150.004 345.889 189.14 336.839 216.36C335.89 221.623 335.103 227.094 334.293 232.728Z" fill="#726789"/>
<path opacity="0.4" d="M189.63 315.453C131.441 288.21 97.9021 210.494 136.51 152.531C188.241 79.8688 302.884 60.9498 359.962 135.977C396.232 187.031 364.938 251.578 328.53 290.923C319.155 301.333 308.601 310.283 297.097 317.099C285.571 323.916 273.095 328.576 259.855 330.407C246.616 332.239 232.659 331.219 218.192 326.675C208.726 324.31 199.12 320.646 189.63 315.453Z" fill="#726789"/>
<path opacity="0.5" d="M189.63 315.453C131.441 288.21 97.9021 210.494 136.51 152.531C188.241 79.8688 302.884 60.9498 359.962 135.977C396.232 187.031 364.938 251.578 328.53 290.923C319.155 301.333 308.601 310.283 297.097 317.099C285.571 323.916 273.095 328.576 259.855 330.407C246.616 332.239 232.659 331.219 218.192 326.675C208.726 324.31 199.12 320.646 189.63 315.453Z" fill="#726789"/>
<path fill-rule="evenodd" clip-rule="evenodd" d="M263.096 141.286C263.998 142.191 265.225 142.701 266.521 142.701C267.817 142.701 269.021 142.191 269.947 141.286C270.85 140.382 271.359 139.153 271.359 137.855C271.359 136.557 270.873 135.351 269.947 134.424L262.656 127.12C255.504 119.956 243.884 119.956 236.732 127.12L229.441 134.424C228.539 135.328 228.029 136.557 228.029 137.855C228.029 139.153 228.515 140.359 229.441 141.286C230.344 142.191 231.571 142.701 232.867 142.701C234.163 142.701 235.367 142.214 236.293 141.286L243.584 133.983C245.227 132.36 247.379 131.456 249.694 131.456C252.009 131.456 254.184 132.36 255.805 133.983L263.096 141.286ZM237.982 128.349C241.199 125.126 245.458 123.503 249.694 123.503C253.93 123.503 258.166 125.103 261.406 128.349L268.697 135.652C269.901 136.858 269.901 138.806 268.697 140.011C267.493 141.217 265.549 141.217 264.346 140.011L257.055 132.708C255.087 130.737 252.472 129.647 249.694 129.647C246.917 129.647 244.301 130.737 242.334 132.708L235.043 140.011C233.885 141.17 231.848 141.17 230.691 140.011C230.113 139.432 229.788 138.666 229.788 137.832C229.788 137.02 230.113 136.232 230.691 135.652L237.982 128.349Z" fill="white"/>
<path fill-rule="evenodd" clip-rule="evenodd" d="M184.561 186.219C185.51 187.17 186.737 187.633 187.987 187.633C189.237 187.633 190.486 187.147 191.435 186.219L225.067 152.508C226.965 150.63 226.965 147.546 225.067 145.645C223.192 143.744 220.113 143.744 218.215 145.645L184.561 179.356C182.663 181.234 182.663 184.318 184.561 186.219ZM219.465 146.874C220.044 146.294 220.808 145.97 221.641 145.97C222.474 145.97 223.238 146.294 223.817 146.874C224.395 147.454 224.719 148.219 224.719 149.053C224.719 149.865 224.395 150.653 223.817 151.233L190.162 184.944C189.005 186.103 186.968 186.103 185.811 184.944C185.232 184.364 184.908 183.599 184.908 182.765C184.908 181.953 185.232 181.165 185.811 180.585L219.465 146.874Z" fill="white"/>
<path d="M319.179 231.152C320.081 232.056 321.308 232.566 322.604 232.566C323.9 232.566 325.104 232.079 326.03 231.152L333.321 223.849C340.473 216.684 340.473 205.045 333.321 197.881L326.03 190.578C325.127 189.674 323.9 189.164 322.604 189.164C321.308 189.164 320.105 189.651 319.179 190.578C318.276 191.482 317.767 192.711 317.767 194.009C317.767 195.308 318.253 196.513 319.179 197.441L326.47 204.744C329.826 208.129 329.826 213.624 326.47 216.986L319.179 224.289C317.281 226.167 317.281 229.251 319.179 231.152Z" fill="white"/>
<path d="M307.953 186.219C308.902 187.17 310.129 187.633 311.378 187.633C312.628 187.633 313.878 187.147 314.804 186.196C316.702 184.318 316.702 181.234 314.804 179.333L281.15 145.645C279.275 143.744 276.196 143.744 274.298 145.645C272.4 147.523 272.4 150.607 274.298 152.508L307.953 186.219Z" fill="white"/>
<path fill-rule="evenodd" clip-rule="evenodd" d="M176.784 232.566C175.488 232.566 174.261 232.056 173.358 231.152L166.067 223.849C158.915 216.684 158.915 205.045 166.067 197.881L173.358 190.578C174.284 189.651 175.488 189.164 176.784 189.164C178.08 189.164 179.307 189.674 180.21 190.578C181.135 191.505 181.621 192.711 181.621 194.009C181.621 195.308 181.112 196.537 180.21 197.441L172.919 204.744C169.562 208.106 169.562 213.601 172.919 216.986L180.21 224.289C181.135 225.217 181.621 226.422 181.621 227.721C181.621 229.019 181.112 230.248 180.21 231.152C179.284 232.079 178.08 232.566 176.784 232.566ZM176.784 190.926C175.951 190.926 175.187 191.25 174.608 191.83L167.317 199.133C160.859 205.602 160.859 216.128 167.317 222.597L174.608 229.9C175.766 231.059 177.802 231.059 178.96 229.9C180.163 228.694 180.163 226.747 178.96 225.541L171.669 218.238C167.618 214.18 167.618 207.573 171.669 203.492L178.96 196.189C179.538 195.609 179.862 194.821 179.862 194.009C179.862 193.175 179.538 192.41 178.96 191.83C178.381 191.25 177.594 190.926 176.784 190.926Z" fill="white"/>
<path fill-rule="evenodd" clip-rule="evenodd" d="M218.215 276.108C219.164 277.058 220.391 277.522 221.641 277.522C222.891 277.522 224.141 277.035 225.067 276.108C226.965 274.23 226.965 271.146 225.067 269.245L191.412 235.534C189.537 233.633 186.459 233.633 184.561 235.534C182.663 237.412 182.663 240.496 184.561 242.397L218.215 276.108ZM185.811 236.763C186.39 236.183 187.153 235.859 187.987 235.859C188.82 235.859 189.584 236.183 190.186 236.763L223.817 270.497C224.395 271.077 224.719 271.865 224.719 272.676C224.719 273.488 224.395 274.276 223.817 274.856C222.659 276.015 220.623 276.015 219.465 274.856L185.811 241.122C185.232 240.542 184.908 239.777 184.908 238.942C184.908 238.131 185.232 237.342 185.811 236.763Z" fill="white"/>
<path d="M274.298 276.108C275.247 277.058 276.474 277.522 277.724 277.522C278.974 277.522 280.224 277.035 281.173 276.108L314.804 242.397C316.702 240.519 316.702 237.435 314.804 235.534C312.929 233.633 309.851 233.633 307.953 235.534L274.298 269.245C272.4 271.123 272.4 274.207 274.298 276.108Z" fill="white"/>
<path d="M236.732 294.633C240.297 298.227 244.995 300.012 249.694 300.012C254.393 300.012 259.091 298.227 262.656 294.633L269.947 287.33C270.85 286.425 271.359 285.196 271.359 283.898C271.359 282.6 270.873 281.394 269.947 280.467C269.044 279.562 267.817 279.052 266.521 279.052C265.225 279.052 264.022 279.539 263.096 280.467L255.805 287.77C252.425 291.132 246.94 291.132 243.584 287.77L236.293 280.467C235.39 279.562 234.163 279.052 232.867 279.052C231.571 279.052 230.367 279.539 229.441 280.467C228.539 281.371 228.029 282.6 228.029 283.898C228.029 285.196 228.515 286.402 229.441 287.33L236.732 294.633Z" fill="white"/>
<path d="M214.257 210.865C214.257 198.623 223.169 189.697 235.228 189.697C247.287 189.697 256.198 198.623 256.198 210.865C256.198 223.107 247.287 232.033 235.228 232.033C223.169 232.033 214.257 223.107 214.257 210.865ZM253.305 210.865C253.305 200.2 245.551 192.433 235.228 192.433C224.905 192.433 217.151 200.2 217.151 210.865C217.151 221.53 224.905 229.297 235.228 229.297C245.551 229.297 253.305 221.53 253.305 210.865ZM233.006 210.865C233.006 209.798 233.839 208.964 234.904 208.964C235.968 208.964 236.802 209.798 236.802 210.865C236.802 211.931 235.968 212.766 234.904 212.766C233.839 212.766 233.006 211.931 233.006 210.865Z" fill="white"/>
<path d="M278.048 183.159C278.048 183.993 277.793 184.48 276.729 184.48H274.159C267.725 184.48 263.674 187.796 263.674 197.209V238.223C263.674 239.383 263.188 239.87 262.262 239.87C261.36 239.87 260.85 239.383 260.85 238.223V196.722C260.85 187.703 265.387 181.837 273.72 181.837H276.682C277.793 181.837 278.048 182.347 278.048 183.159ZM276.474 199.945C276.474 200.849 276.057 201.359 275.062 201.359H269.623C268.628 201.359 268.211 200.872 268.211 199.945C268.211 199.041 268.628 198.53 269.623 198.53H275.062C276.057 198.554 276.474 199.041 276.474 199.945Z" fill="white"/>
<path d="M117.693 399.731C117.693 395.537 120.831 392.462 125.209 392.462C129.588 392.462 132.734 395.529 132.734 399.731C132.734 403.901 129.596 407 125.209 407C120.831 407 117.693 403.901 117.693 399.731ZM129.332 399.731C129.332 397.368 127.747 395.537 125.209 395.537C122.672 395.537 121.087 397.368 121.087 399.731C121.087 402.094 122.672 403.901 125.209 403.901C127.747 403.901 129.332 402.094 129.332 399.731ZM123.832 399.731C123.832 398.917 124.441 398.291 125.297 398.291C126.162 398.291 126.77 398.909 126.77 399.731C126.77 400.552 126.162 401.139 125.297 401.139C124.433 401.139 123.832 400.545 123.832 399.731Z" fill="#494256"/>
<path d="M147.015 398.181C149.608 398.8 152.082 399.449 152.082 402.579C152.082 405.623 149.777 407 146.463 407C143.725 407 141.74 406.069 140.811 404.997C140.091 404.152 140.179 403.416 140.867 402.775C141.732 401.961 142.484 402.297 142.972 402.72C143.749 403.424 144.701 404.16 146.543 404.16C147.927 404.16 148.792 403.706 148.792 402.806C148.792 401.906 147.871 401.593 145.446 400.944C143.052 400.294 140.923 399.676 140.923 396.89C140.923 393.761 143.517 392.469 146.398 392.469C148.039 392.469 149.913 392.892 151.065 394.105C151.554 394.582 151.93 395.263 151.065 396.186C150.201 397.063 149.568 396.804 148.96 396.358C148.416 395.967 147.463 395.286 146.022 395.286C145.046 395.286 144.149 395.599 144.149 396.499C144.165 397.422 145.142 397.759 147.015 398.181Z" fill="#494256"/>
<path d="M174.048 394.41V400.638C174.048 405.232 170.79 407 167.275 407C163.729 407 160.479 405.224 160.479 400.638V394.41C160.479 393.424 161.144 392.689 162.176 392.689C163.185 392.689 163.873 393.424 163.873 394.41V400.412C163.873 402.915 165.314 403.901 167.275 403.901C169.205 403.901 170.646 402.915 170.646 400.412V394.41C170.646 393.424 171.334 392.689 172.343 392.689C173.383 392.689 174.048 393.424 174.048 394.41Z" fill="#494256"/>
<path d="M183.494 404.833C183.494 403.651 184.47 402.689 185.711 402.689C186.952 402.689 187.928 403.643 187.928 404.833C187.928 406.045 186.952 407 185.711 407C184.47 407 183.494 406.038 183.494 404.833ZM187.408 389.903V399.285C187.408 400.302 186.72 401.03 185.711 401.03C184.67 401.03 184.014 400.294 184.014 399.285V389.903C184.014 388.886 184.678 388.158 185.711 388.158C186.72 388.158 187.408 388.886 187.408 389.903Z" fill="#494256"/>
<path d="M204.715 387.673C204.715 388.096 204.483 388.346 203.994 388.346H202.842C200.592 388.346 199.295 389.527 199.295 392.485V405.951C199.295 406.484 199.039 406.765 198.575 406.765C198.087 406.765 197.823 406.484 197.823 405.951V392.383C197.823 389.113 199.52 387 202.722 387H203.986C204.491 387 204.715 387.251 204.715 387.673ZM204.139 393.424C204.139 393.878 203.882 394.128 203.386 394.128H201.569C201.081 394.128 200.816 393.878 200.816 393.424C200.816 392.947 201.073 392.689 201.569 392.689H203.386C203.882 392.689 204.139 392.939 204.139 393.424Z" fill="#494256"/>
<path d="M221.085 393.901C220.973 394.293 220.685 394.52 220.132 394.355C219.756 394.183 219.156 393.933 218.435 393.933C215.754 393.933 214.457 396.468 214.457 400.099V405.959C214.457 406.491 214.201 406.773 213.736 406.773C213.248 406.773 212.984 406.491 212.984 405.959V393.502C212.984 392.97 213.24 392.689 213.736 392.689C214.201 392.689 214.457 392.97 214.457 393.479V395.482H214.569C214.889 394.496 215.778 392.524 218.483 392.524C219.436 392.524 220.124 392.837 220.557 393.002C221.061 393.166 221.205 393.479 221.085 393.901Z" fill="#494256"/>
<path d="M237.055 406.155C237.055 406.609 236.823 406.828 236.279 406.828C231.323 406.828 228.266 403.87 228.266 399.731C228.266 395.451 231.468 392.524 235.902 392.524C240.113 392.524 242.586 394.692 242.586 398.776V405.928C242.586 406.46 242.33 406.773 241.834 406.773C241.346 406.773 241.082 406.46 241.082 405.928V399.222C241.082 395.505 239.352 393.901 235.87 393.901C232.3 393.901 229.762 396.351 229.762 399.676C229.762 403.056 232.18 405.451 236.271 405.451C236.823 405.451 237.055 405.67 237.055 406.155Z" fill="#494256"/>
<path d="M271.276 397.532V405.952C271.276 406.484 270.988 406.765 270.524 406.765C270.06 406.765 269.771 406.484 269.771 405.952V397.759C269.771 394.747 267.866 393.902 266.201 393.902C264.528 393.902 262.631 394.747 262.631 397.759V405.952C262.631 406.484 262.343 406.765 261.879 406.765C261.414 406.765 261.126 406.484 261.126 405.952V397.759C261.126 394.747 259.221 393.902 257.556 393.902C255.883 393.902 253.954 394.747 253.954 397.759V405.952C253.954 406.484 253.697 406.765 253.233 406.765C252.745 406.765 252.481 406.484 252.481 405.952V397.532C252.481 393.902 255.018 392.517 257.556 392.517C259.629 392.517 261.414 393.784 261.879 395.333C262.311 393.784 264.096 392.517 266.201 392.517C268.739 392.517 271.276 393.902 271.276 397.532Z" fill="#494256"/>
<path d="M292.818 404.746C293.074 405.059 293.018 405.419 292.586 405.764C291.753 406.437 289.904 406.945 288.007 406.945C283.228 406.945 280.426 403.901 280.426 399.739C280.426 395.545 283.42 392.532 287.575 392.532C291.289 392.532 294.003 394.895 294.003 398.643C294.003 399.684 293.458 400.247 292.474 400.247H287.054C286.59 400.247 286.302 400.02 286.302 399.574C286.302 399.152 286.59 398.925 287.054 398.925H292.586C292.586 395.599 290.28 393.886 287.631 393.886C284.26 393.886 281.923 396.366 281.923 399.746C281.923 403.095 284.116 405.607 287.943 405.607C289.64 405.607 291.113 405.099 291.721 404.621C292.153 404.324 292.554 404.379 292.818 404.746Z" fill="#494256"/>
<path d="M312.358 403.956C311.894 405.505 310.109 406.804 308.035 406.804C305.498 406.804 302.968 405.396 302.968 401.765V393.502C302.968 392.97 303.224 392.689 303.721 392.689C304.185 392.689 304.441 392.97 304.441 393.502V401.53C304.441 404.543 306.37 405.419 308.043 405.419C309.716 405.419 311.614 404.543 311.614 401.53V393.502C311.614 392.97 311.902 392.689 312.366 392.689C312.83 392.689 313.118 392.97 313.118 393.502V401.53C313.118 404.543 315.024 405.419 316.689 405.419C318.354 405.419 320.259 404.543 320.259 401.53V393.502C320.259 392.97 320.547 392.689 321.011 392.689C321.476 392.689 321.764 392.97 321.764 393.502V401.757C321.764 405.388 319.226 406.796 316.689 406.796C314.575 406.796 312.79 405.505 312.358 403.956Z" fill="#494256"/>
<path d="M330.898 399.731C330.898 395.56 334.012 392.524 338.246 392.524C342.481 392.524 345.595 395.568 345.595 399.731C345.595 403.894 342.481 406.937 338.246 406.937C334.012 406.937 330.898 403.901 330.898 399.731ZM344.09 399.731C344.09 396.351 341.608 393.901 338.238 393.901C334.868 393.901 332.387 396.351 332.387 399.731C332.387 403.111 334.86 405.56 338.238 405.56C341.616 405.56 344.09 403.111 344.09 399.731ZM337.294 399.731C337.294 399.253 337.67 398.886 338.19 398.886C338.678 398.886 339.055 399.253 339.055 399.731C339.055 400.208 338.678 400.576 338.19 400.576C337.662 400.576 337.294 400.208 337.294 399.731Z" fill="#494256"/>
<path d="M362.869 393.901C362.757 394.293 362.469 394.52 361.917 394.355C361.541 394.183 360.94 393.933 360.22 393.933C357.538 393.933 356.241 396.468 356.241 400.099V405.959C356.241 406.491 355.985 406.773 355.521 406.773C355.033 406.773 354.768 406.491 354.768 405.959V393.502C354.768 392.97 355.025 392.689 355.521 392.689C355.985 392.689 356.241 392.97 356.241 393.479V395.482H356.353C356.674 394.496 357.562 392.524 360.276 392.524C361.228 392.524 361.917 392.837 362.349 393.002C362.837 393.166 362.982 393.479 362.869 393.901Z" fill="#494256"/>
<path d="M381.785 406.742C381.321 406.851 380.953 406.601 380.833 406.124L380.056 403.361C379.424 401.077 377.983 400.036 375.854 400.036H372.916V405.951C372.916 406.484 372.66 406.765 372.195 406.765C371.707 406.765 371.443 406.484 371.443 405.951V387.814C371.443 387.282 371.699 387 372.195 387C372.66 387 372.916 387.282 372.916 387.814V398.659H375.854C377.727 398.659 378.735 397.759 379.4 395.396L380.088 393.229C380.2 392.775 380.553 392.61 380.985 392.72C381.449 392.861 381.617 393.174 381.473 393.706L380.721 396.21C380.376 397.305 379.624 398.604 378.239 399.199C379.792 399.707 381.009 401.202 381.465 402.915L382.242 405.732C382.394 406.264 382.25 406.632 381.785 406.742Z" fill="#494256"/>
</svg>
