<svg width="1400" height="500" viewBox="0 0 1400 500" fill="none" xmlns="http://www.w3.org/2000/svg">
<path d="M128.568 310.728C128.345 307.516 128.202 304.377 128.172 301.302C126.885 298.801 125.673 296.233 124.541 293.594C118.995 279.352 117.861 264.716 120.085 250.335C118.707 218.975 129.099 188.693 148.815 164.406C154.203 150.054 164.929 138.119 183.031 131.043C188.006 129.098 193.08 127.445 198.222 126.079C203.717 123.498 209.46 121.209 215.435 119.242C228.25 115.184 241.719 113.761 255.009 114.763C266.382 113.735 277.996 113.748 289.665 114.79C332.948 122.789 362.297 152.721 371.903 192.623C372.644 195.703 373.306 198.786 373.89 201.869C376.43 210.986 377.377 220.296 377.021 229.621C377.407 240.235 376.849 250.719 375.361 260.926C376.788 266.534 377.826 272.129 378.43 277.666C380.698 298.648 376.578 318.564 363.084 333.565C359.08 338.017 354.266 342.028 348.525 345.459C340.08 350.058 331.915 353.67 323.349 355.495C308.089 368.029 289.525 376.863 268.463 379.959C258.881 381.234 248.812 381.396 238.327 380.121C229.479 379.356 220.986 377.554 212.9 374.884C208.2 375.328 203.433 375.393 198.608 375.02C191.34 373.791 184.304 371.96 177.661 369.525C157.732 362.222 141.391 349.377 133.359 329.856C130.975 324.083 129.332 317.707 128.568 310.728Z" fill="white"/>
<path opacity="0.8" d="M278.493 346.385C255.231 363.31 227.988 377.29 198.592 375.018C191.324 373.789 184.288 371.958 177.645 369.523C157.716 362.22 141.375 349.375 133.343 329.854C130.959 324.08 129.316 317.705 128.552 310.726C127.279 292.41 128.622 276.458 138.598 261.133C164.73 229.416 182.205 197.003 196.046 156.266C205.212 136.605 224.608 126.288 245.301 123.483C252.569 122.347 260.045 121.906 267.73 122.184C319.114 126.126 353.764 179.915 365.753 233.496C367.466 241.147 368.716 248.798 369.48 256.287C374.456 305.463 326.22 321.066 293.028 336.74C288.306 339.73 283.469 343.023 278.493 346.385Z" fill="#F7931E"/>
<path opacity="0.4" d="M238.311 380.119C202.897 377.059 173.178 357.374 152.462 332.01C145.565 323.547 139.662 314.459 134.871 305.115C96.6337 230.598 134.871 145.764 215.419 119.24C251.226 107.902 292.149 117.13 319.97 142.379C366.448 188.54 386.631 262.617 354.227 317.403C350.037 325.356 344.991 332.891 339.182 339.8C321.753 360.528 297.472 375.691 268.447 379.957C258.865 381.232 248.796 381.394 238.311 380.119Z" fill="#7AC943"/>
<path opacity="0.4" d="M245.372 379.449C160.264 374.186 99.7829 280.402 129.826 200.575C157.787 136.723 222.943 108.809 289.882 114.79C333.165 122.789 362.514 152.721 372.12 192.623C391.331 272.449 357.329 354.246 275.971 378.266C266.296 380.005 256.088 380.492 245.372 379.449Z" fill="#3FA9F5"/>
<path opacity="0.4" d="M355.777 236.533C362.86 292.224 333.696 373.743 272.706 364.005C193.801 357.119 121.377 275.6 146.166 193.687C163.896 142.147 231.575 125.917 283.793 134.913C318.489 142.355 342.121 175.394 349.134 206.486C352.19 215.76 354.458 225.799 355.777 236.533Z" fill="#726789"/>
<path opacity="0.8" d="M314.762 195.264C339.506 209.708 363.439 228.906 374.132 256.473C376.192 263.567 377.65 270.662 378.414 277.664C380.682 298.646 376.563 318.562 363.068 333.563C359.064 338.015 354.25 342.026 348.509 345.457C333.14 353.827 318.697 358.928 301.083 355.937C262.198 344.785 226.483 341.724 185.098 345.249C164.058 344.692 146.722 331.152 135.334 313.462C131.214 307.318 127.58 300.71 124.525 293.592C105.753 245.39 137.533 192.667 178.941 160.602C184.843 156.035 190.954 151.861 197.134 148.221C237.732 124.248 272.104 161.877 300.065 185.828C304.763 188.981 309.693 192.064 314.762 195.264Z" fill="#FF7BAC"/>
<path opacity="0.8" d="M335.293 271.728C333.881 285.384 331.428 299.527 326.845 313.044C322.331 326.724 315.573 339.591 305.504 350.419C300.018 355.357 294.255 359.762 288.306 363.472C270.415 374.624 250.717 379.539 231.367 373.859C225.627 372.166 219.933 369.57 214.355 365.883C200.143 355.659 189.288 344.808 184.357 327.605C182.645 317.612 180.585 308.036 178.085 298.716C172.622 284.735 168.016 271.311 163.086 257.91C140.426 215.18 129.571 151.931 183.015 131.041C236.459 110.151 301.222 122.949 339.992 162.967C367.165 189.004 346.889 228.14 337.839 255.36C336.89 260.623 336.103 266.094 335.293 271.728Z" fill="#726789"/>
<path opacity="0.4" d="M190.63 354.453C132.441 327.21 98.9021 249.494 137.51 191.531C189.241 118.869 303.884 99.9498 360.962 174.977C397.232 226.031 365.938 290.578 329.53 329.923C320.155 340.333 309.601 349.283 298.097 356.099C286.571 362.916 274.095 367.576 260.855 369.407C247.616 371.239 233.659 370.219 219.192 365.675C209.726 363.31 200.12 359.646 190.63 354.453Z" fill="#726789"/>
<path opacity="0.5" d="M190.63 354.453C132.441 327.21 98.9021 249.494 137.51 191.531C189.241 118.869 303.884 99.9498 360.962 174.977C397.232 226.031 365.938 290.578 329.53 329.923C320.155 340.333 309.601 349.283 298.097 356.099C286.571 362.916 274.095 367.576 260.855 369.407C247.616 371.239 233.659 370.219 219.192 365.675C209.726 363.31 200.12 359.646 190.63 354.453Z" fill="#726789"/>
<path fill-rule="evenodd" clip-rule="evenodd" d="M264.096 180.286C264.998 181.191 266.225 181.701 267.521 181.701C268.817 181.701 270.021 181.191 270.947 180.286C271.85 179.382 272.359 178.153 272.359 176.855C272.359 175.557 271.873 174.351 270.947 173.424L263.656 166.12C256.504 158.956 244.884 158.956 237.732 166.12L230.441 173.424C229.539 174.328 229.029 175.557 229.029 176.855C229.029 178.153 229.515 179.359 230.441 180.286C231.344 181.191 232.571 181.701 233.867 181.701C235.163 181.701 236.367 181.214 237.293 180.286L244.584 172.983C246.227 171.36 248.379 170.456 250.694 170.456C253.009 170.456 255.184 171.36 256.805 172.983L264.096 180.286ZM238.982 167.349C242.199 164.126 246.458 162.503 250.694 162.503C254.93 162.503 259.166 164.103 262.406 167.349L269.697 174.652C270.901 175.858 270.901 177.806 269.697 179.011C268.493 180.217 266.549 180.217 265.346 179.011L258.055 171.708C256.087 169.737 253.472 168.647 250.694 168.647C247.917 168.647 245.301 169.737 243.334 171.708L236.043 179.011C234.885 180.17 232.848 180.17 231.691 179.011C231.113 178.432 230.788 177.666 230.788 176.832C230.788 176.02 231.113 175.232 231.691 174.652L238.982 167.349Z" fill="white"/>
<path fill-rule="evenodd" clip-rule="evenodd" d="M185.561 225.219C186.51 226.17 187.737 226.633 188.987 226.633C190.237 226.633 191.486 226.147 192.435 225.219L226.067 191.508C227.965 189.63 227.965 186.546 226.067 184.645C224.192 182.744 221.113 182.744 219.215 184.645L185.561 218.356C183.663 220.234 183.663 223.318 185.561 225.219ZM220.465 185.874C221.044 185.294 221.808 184.97 222.641 184.97C223.474 184.97 224.238 185.294 224.817 185.874C225.395 186.454 225.719 187.219 225.719 188.053C225.719 188.865 225.395 189.653 224.817 190.233L191.162 223.944C190.005 225.103 187.968 225.103 186.811 223.944C186.232 223.364 185.908 222.599 185.908 221.765C185.908 220.953 186.232 220.165 186.811 219.585L220.465 185.874Z" fill="white"/>
<path d="M320.179 270.152C321.081 271.056 322.308 271.566 323.604 271.566C324.9 271.566 326.104 271.079 327.03 270.152L334.321 262.849C341.473 255.684 341.473 244.045 334.321 236.881L327.03 229.578C326.127 228.674 324.9 228.164 323.604 228.164C322.308 228.164 321.105 228.651 320.179 229.578C319.276 230.482 318.767 231.711 318.767 233.009C318.767 234.308 319.253 235.513 320.179 236.441L327.47 243.744C330.826 247.129 330.826 252.624 327.47 255.986L320.179 263.289C318.281 265.167 318.281 268.251 320.179 270.152Z" fill="white"/>
<path d="M308.953 225.219C309.902 226.17 311.129 226.633 312.378 226.633C313.628 226.633 314.878 226.147 315.804 225.196C317.702 223.318 317.702 220.234 315.804 218.333L282.15 184.645C280.275 182.744 277.196 182.744 275.298 184.645C273.4 186.523 273.4 189.607 275.298 191.508L308.953 225.219Z" fill="white"/>
<path fill-rule="evenodd" clip-rule="evenodd" d="M177.784 271.566C176.488 271.566 175.261 271.056 174.358 270.152L167.067 262.849C159.915 255.684 159.915 244.045 167.067 236.881L174.358 229.578C175.284 228.651 176.488 228.164 177.784 228.164C179.08 228.164 180.307 228.674 181.21 229.578C182.135 230.505 182.621 231.711 182.621 233.009C182.621 234.308 182.112 235.537 181.21 236.441L173.919 243.744C170.562 247.106 170.562 252.601 173.919 255.986L181.21 263.289C182.135 264.217 182.621 265.422 182.621 266.721C182.621 268.019 182.112 269.248 181.21 270.152C180.284 271.079 179.08 271.566 177.784 271.566ZM177.784 229.926C176.951 229.926 176.187 230.25 175.608 230.83L168.317 238.133C161.859 244.602 161.859 255.128 168.317 261.597L175.608 268.9C176.766 270.059 178.802 270.059 179.96 268.9C181.163 267.694 181.163 265.747 179.96 264.541L172.669 257.238C168.618 253.18 168.618 246.573 172.669 242.492L179.96 235.189C180.538 234.609 180.862 233.821 180.862 233.009C180.862 232.175 180.538 231.41 179.96 230.83C179.381 230.25 178.594 229.926 177.784 229.926Z" fill="white"/>
<path fill-rule="evenodd" clip-rule="evenodd" d="M219.215 315.108C220.164 316.058 221.391 316.522 222.641 316.522C223.891 316.522 225.141 316.035 226.067 315.108C227.965 313.23 227.965 310.146 226.067 308.245L192.412 274.534C190.537 272.633 187.459 272.633 185.561 274.534C183.663 276.412 183.663 279.496 185.561 281.397L219.215 315.108ZM186.811 275.763C187.39 275.183 188.153 274.859 188.987 274.859C189.82 274.859 190.584 275.183 191.186 275.763L224.817 309.497C225.395 310.077 225.719 310.865 225.719 311.676C225.719 312.488 225.395 313.276 224.817 313.856C223.659 315.015 221.623 315.015 220.465 313.856L186.811 280.122C186.232 279.542 185.908 278.777 185.908 277.942C185.908 277.131 186.232 276.342 186.811 275.763Z" fill="white"/>
<path d="M275.298 315.108C276.247 316.058 277.474 316.522 278.724 316.522C279.974 316.522 281.224 316.035 282.173 315.108L315.804 281.397C317.702 279.519 317.702 276.435 315.804 274.534C313.929 272.633 310.851 272.633 308.953 274.534L275.298 308.245C273.4 310.123 273.4 313.207 275.298 315.108Z" fill="white"/>
<path d="M237.732 333.633C241.297 337.227 245.995 339.012 250.694 339.012C255.393 339.012 260.091 337.227 263.656 333.633L270.947 326.33C271.85 325.425 272.359 324.196 272.359 322.898C272.359 321.6 271.873 320.394 270.947 319.467C270.044 318.562 268.817 318.052 267.521 318.052C266.225 318.052 265.022 318.539 264.096 319.467L256.805 326.77C253.425 330.132 247.94 330.132 244.584 326.77L237.293 319.467C236.39 318.562 235.163 318.052 233.867 318.052C232.571 318.052 231.367 318.539 230.441 319.467C229.539 320.371 229.029 321.6 229.029 322.898C229.029 324.196 229.515 325.402 230.441 326.33L237.732 333.633Z" fill="white"/>
<path d="M215.257 249.865C215.257 237.623 224.169 228.697 236.228 228.697C248.287 228.697 257.198 237.623 257.198 249.865C257.198 262.107 248.287 271.033 236.228 271.033C224.169 271.033 215.257 262.107 215.257 249.865ZM254.305 249.865C254.305 239.2 246.551 231.433 236.228 231.433C225.905 231.433 218.151 239.2 218.151 249.865C218.151 260.53 225.905 268.297 236.228 268.297C246.551 268.297 254.305 260.53 254.305 249.865ZM234.006 249.865C234.006 248.798 234.839 247.964 235.904 247.964C236.968 247.964 237.802 248.798 237.802 249.865C237.802 250.931 236.968 251.766 235.904 251.766C234.839 251.766 234.006 250.931 234.006 249.865Z" fill="white"/>
<path d="M279.048 222.159C279.048 222.993 278.793 223.48 277.729 223.48H275.159C268.725 223.48 264.674 226.796 264.674 236.209V277.223C264.674 278.383 264.188 278.87 263.262 278.87C262.36 278.87 261.85 278.383 261.85 277.223V235.722C261.85 226.703 266.387 220.837 274.72 220.837H277.682C278.793 220.837 279.048 221.347 279.048 222.159ZM277.474 238.945C277.474 239.849 277.057 240.359 276.062 240.359H270.623C269.628 240.359 269.211 239.872 269.211 238.945C269.211 238.041 269.628 237.53 270.623 237.53H276.062C277.057 237.554 277.474 238.041 277.474 238.945Z" fill="white"/>
<path d="M421 282.193C421 269.61 430.414 260.385 443.55 260.385C456.687 260.385 466.125 269.587 466.125 282.193C466.125 294.704 456.711 304 443.55 304C430.414 304 421 294.704 421 282.193ZM455.918 282.193C455.918 275.103 451.163 269.61 443.55 269.61C435.937 269.61 431.182 275.103 431.182 282.193C431.182 289.282 435.937 294.704 443.55 294.704C451.163 294.704 455.918 289.282 455.918 282.193ZM439.42 282.193C439.42 279.751 441.245 277.873 443.814 277.873C446.408 277.873 448.233 279.728 448.233 282.193C448.233 284.657 446.408 286.418 443.814 286.418C441.221 286.418 439.42 284.634 439.42 282.193Z" fill="#494256"/>
<path d="M508.968 277.545C516.748 279.399 524.169 281.347 524.169 290.737C524.169 299.869 517.253 304 507.311 304C499.097 304 493.142 301.207 490.356 297.991C488.194 295.455 488.459 293.249 490.524 291.324C493.118 288.883 495.375 289.892 496.84 291.16C499.169 293.272 502.027 295.479 507.551 295.479C511.705 295.479 514.299 294.117 514.299 291.418C514.299 288.718 511.537 287.779 504.261 285.831C497.08 283.883 490.692 282.028 490.692 273.671C490.692 264.282 498.473 260.408 507.118 260.408C512.042 260.408 517.661 261.676 521.119 265.315C522.584 266.746 523.713 268.789 521.119 271.559C518.526 274.188 516.628 273.413 514.803 272.075C513.17 270.901 510.312 268.859 505.99 268.859C503.06 268.859 500.37 269.798 500.37 272.498C500.418 275.268 503.348 276.277 508.968 277.545Z" fill="#494256"/>
<path d="M590.067 266.23V284.915C590.067 298.695 580.293 304 569.75 304C559.111 304 549.361 298.671 549.361 284.915V266.23C549.361 263.272 551.354 261.066 554.452 261.066C557.478 261.066 559.544 263.272 559.544 266.23V284.235C559.544 291.746 563.866 294.704 569.75 294.704C575.538 294.704 579.861 291.746 579.861 284.235V266.23C579.861 263.272 581.926 261.066 584.952 261.066C588.074 261.066 590.067 263.272 590.067 266.23Z" fill="#494256"/>
<path d="M618.405 297.498C618.405 293.953 621.335 291.066 625.057 291.066C628.779 291.066 631.709 293.93 631.709 297.498C631.709 301.136 628.779 304 625.057 304C621.335 304 618.405 301.113 618.405 297.498ZM630.148 252.709V280.854C630.148 283.906 628.083 286.089 625.057 286.089C621.935 286.089 619.966 283.883 619.966 280.854V252.709C619.966 249.657 621.959 247.474 625.057 247.474C628.083 247.474 630.148 249.657 630.148 252.709Z" fill="#494256"/>
<path d="M682.069 246.019C682.069 247.286 681.373 248.038 679.908 248.038H676.45C669.701 248.038 665.811 251.582 665.811 260.455V300.854C665.811 302.451 665.043 303.296 663.65 303.296C662.185 303.296 661.392 302.451 661.392 300.854V260.15C661.392 250.338 666.483 244 676.09 244H679.884C681.397 244 682.069 244.751 682.069 246.019ZM680.34 263.272C680.34 264.634 679.572 265.385 678.083 265.385H672.631C671.166 265.385 670.374 264.634 670.374 263.272C670.374 261.84 671.142 261.066 672.631 261.066H678.083C679.572 261.066 680.34 261.817 680.34 263.272Z" fill="#494256"/>
<path d="M731.18 264.704C730.844 265.878 729.98 266.559 728.323 266.066C727.194 265.549 725.393 264.798 723.231 264.798C715.186 264.798 711.296 272.404 711.296 283.296V300.878C711.296 302.474 710.527 303.319 709.134 303.319C707.669 303.319 706.877 302.474 706.877 300.878V263.507C706.877 261.911 707.645 261.066 709.134 261.066C710.527 261.066 711.296 261.911 711.296 263.436V269.446H711.632C712.593 266.488 715.258 260.573 723.375 260.573C726.233 260.573 728.299 261.512 729.595 262.005C731.108 262.498 731.541 263.436 731.18 264.704Z" fill="#494256"/>
<path d="M779.09 301.465C779.09 302.826 778.394 303.483 776.761 303.483C761.896 303.483 752.722 294.61 752.722 282.192C752.722 269.352 762.328 260.573 775.632 260.573C788.264 260.573 795.685 267.075 795.685 279.329V300.784C795.685 302.38 794.916 303.319 793.428 303.319C791.963 303.319 791.17 302.38 791.17 300.784V280.667C791.17 269.516 785.983 264.704 775.536 264.704C764.825 264.704 757.213 272.052 757.213 282.028C757.213 292.169 764.465 299.352 776.737 299.352C778.394 299.352 779.09 300.009 779.09 301.465Z" fill="#494256"/>
<path d="M881.756 275.597V300.855C881.756 302.451 880.891 303.296 879.498 303.296C878.105 303.296 877.241 302.451 877.241 300.855V276.277C877.241 267.24 871.525 264.704 866.53 264.704C861.511 264.704 855.819 267.24 855.819 276.277V300.855C855.819 302.451 854.955 303.296 853.562 303.296C852.169 303.296 851.304 302.451 851.304 300.855V276.277C851.304 267.24 845.589 264.704 840.594 264.704C835.574 264.704 829.787 267.24 829.787 276.277V300.855C829.787 302.451 829.018 303.296 827.625 303.296C826.16 303.296 825.368 302.451 825.368 300.855V275.597C825.368 264.704 832.981 260.55 840.594 260.55C846.813 260.55 852.169 264.352 853.562 269C854.859 264.352 860.214 260.55 866.53 260.55C874.143 260.55 881.756 264.704 881.756 275.597Z" fill="#494256"/>
<path d="M946.381 297.239C947.149 298.178 946.981 299.258 945.684 300.291C943.186 302.31 937.639 303.836 931.947 303.836C917.61 303.836 909.205 294.704 909.205 282.216C909.205 269.634 918.187 260.596 930.651 260.596C941.794 260.596 949.935 267.685 949.935 278.929C949.935 282.051 948.302 283.742 945.348 283.742H929.09C927.697 283.742 926.832 283.061 926.832 281.723C926.832 280.455 927.697 279.774 929.09 279.774H945.684C945.684 269.798 938.768 264.657 930.819 264.657C920.708 264.657 913.696 272.098 913.696 282.239C913.696 292.286 920.276 299.821 931.755 299.821C936.846 299.821 941.265 298.296 943.09 296.864C944.387 295.972 945.588 296.136 946.381 297.239Z" fill="#494256"/>
<path d="M1005 294.868C1003.61 299.516 998.253 303.413 992.033 303.413C984.42 303.413 976.832 299.188 976.832 288.296V263.507C976.832 261.911 977.6 261.066 979.089 261.066C980.482 261.066 981.25 261.911 981.25 263.507V287.591C981.25 296.629 987.038 299.258 992.057 299.258C997.076 299.258 1002.77 296.629 1002.77 287.591V263.507C1002.77 261.911 1003.63 261.066 1005.03 261.066C1006.42 261.066 1007.28 261.911 1007.28 263.507V287.591C1007.28 296.629 1013 299.258 1017.99 299.258C1022.99 299.258 1028.7 296.629 1028.7 287.591V263.507C1028.7 261.911 1029.57 261.066 1030.96 261.066C1032.35 261.066 1033.22 261.911 1033.22 263.507V288.272C1033.22 299.164 1025.61 303.39 1017.99 303.39C1011.65 303.39 1006.3 299.516 1005 294.868Z" fill="#494256"/>
<path d="M1060.62 282.192C1060.62 269.681 1069.96 260.573 1082.67 260.573C1095.37 260.573 1104.71 269.704 1104.71 282.192C1104.71 294.681 1095.37 303.812 1082.67 303.812C1069.96 303.812 1060.62 294.704 1060.62 282.192ZM1100.2 282.192C1100.2 272.052 1092.75 264.704 1082.64 264.704C1072.53 264.704 1065.09 272.052 1065.09 282.192C1065.09 292.333 1072.51 299.681 1082.64 299.681C1092.78 299.681 1100.2 292.333 1100.2 282.192ZM1079.81 282.192C1079.81 280.76 1080.94 279.657 1082.5 279.657C1083.96 279.657 1085.09 280.76 1085.09 282.192C1085.09 283.624 1083.96 284.728 1082.5 284.728C1080.91 284.728 1079.81 283.624 1079.81 282.192Z" fill="#494256"/>
<path d="M1156.54 264.704C1156.2 265.878 1155.34 266.559 1153.68 266.066C1152.55 265.549 1150.75 264.798 1148.59 264.798C1140.54 264.798 1136.65 272.404 1136.65 283.296V300.878C1136.65 302.474 1135.88 303.319 1134.49 303.319C1133.03 303.319 1132.23 302.474 1132.23 300.878V263.507C1132.23 261.911 1133 261.066 1134.49 261.066C1135.88 261.066 1136.65 261.911 1136.65 263.436V269.446H1136.99C1137.95 266.488 1140.62 260.573 1148.76 260.573C1151.61 260.573 1153.68 261.512 1154.98 262.005C1156.44 262.498 1156.87 263.436 1156.54 264.704Z" fill="#494256"/>
<path d="M1213.29 303.225C1211.89 303.554 1210.79 302.803 1210.43 301.371L1208.1 293.085C1206.2 286.23 1201.88 283.108 1195.49 283.108H1186.68V300.854C1186.68 302.451 1185.91 303.296 1184.52 303.296C1183.05 303.296 1182.26 302.451 1182.26 300.854V246.441C1182.26 244.845 1183.03 244 1184.52 244C1185.91 244 1186.68 244.845 1186.68 246.441V278.977H1195.49C1201.11 278.977 1204.14 276.277 1206.13 269.188L1208.19 262.685C1208.53 261.324 1209.59 260.831 1210.88 261.16C1212.28 261.582 1212.78 262.521 1212.35 264.117L1210.09 271.629C1209.06 274.916 1206.8 278.812 1202.65 280.596C1207.31 282.122 1210.96 286.606 1212.32 291.746L1214.65 300.197C1215.11 301.793 1214.68 302.897 1213.29 303.225Z" fill="#494256"/>
<path d="M437.3 189.65C430.2 189.65 425.35 194.4 425.35 202.25V220.45C425.35 221.75 426.1 222.6 427.35 222.6C428.6 222.6 429.35 221.75 429.35 220.45V211H429.65C430.85 213.45 433.8 215.35 437.9 215.35C445.3 215.35 450.1 209.55 450.1 202.45C450.1 194.75 444.5 189.65 437.3 189.65ZM437.75 211.6C432.9 211.6 429.35 208.35 429.35 202.85V202.65C429.35 197 432.25 193.45 437.3 193.45C442.35 193.45 446.05 197.2 446.05 202.5C446.05 207.15 443.05 211.6 437.75 211.6Z" fill="#736989"/>
<path d="M477.421 215.35C484.871 215.35 490.221 209.9 490.221 202.5C490.221 195.1 484.871 189.65 477.421 189.65C469.971 189.65 464.571 195.1 464.571 202.5C464.571 209.9 469.971 215.35 477.421 215.35ZM477.421 211.55C472.221 211.55 468.671 207.7 468.671 202.5C468.671 197.3 472.221 193.45 477.421 193.45C482.621 193.45 486.171 197.3 486.171 202.5C486.171 207.7 482.621 211.55 477.421 211.55Z" fill="#736989"/>
<path d="M535.114 190.1C533.864 189.7 532.814 190.2 532.464 191.45L527.064 209.2L522.014 192.65C521.664 191.5 520.914 190.9 520.014 190.9C519.064 190.9 518.314 191.5 517.964 192.65L512.914 209.2L507.514 191.45C507.164 190.2 506.114 189.7 504.864 190.1C503.664 190.5 503.264 191.65 503.714 192.85L510.764 213.45C511.214 214.6 511.964 215 512.864 215C514.014 215 514.664 214.3 514.964 213.35L520.014 198L525.014 213.35C525.314 214.3 525.964 215 527.114 215C528.014 215 528.764 214.6 529.214 213.45L536.264 192.85C536.714 191.65 536.314 190.5 535.114 190.1Z" fill="#736989"/>
<path d="M573.358 200.6C573.358 193.95 568.508 189.65 561.908 189.65C554.908 189.65 549.708 194.95 549.708 202.55C549.708 209.85 554.608 215.35 562.758 215.35C565.908 215.35 568.908 214.5 570.558 213.4C571.758 212.6 572.008 211.65 571.358 210.6C570.708 209.5 569.708 209.45 568.508 210.05C567.108 210.8 565.008 211.6 562.558 211.6C557.658 211.6 554.558 208.45 553.908 204.15H569.908C572.058 204.15 573.358 202.8 573.358 200.6ZM553.958 200.55C554.708 196.35 557.758 193.4 561.908 193.4C566.108 193.4 569.458 196.3 569.458 200.55H553.958Z" fill="#736989"/>
<path d="M602.29 190.15C601.64 189.95 600.79 189.65 599.64 189.65C596.09 189.65 593.89 192.1 592.89 194.25H592.69V192.15C592.69 190.85 591.94 190 590.69 190C589.44 190 588.69 190.85 588.69 192.15V212.85C588.69 214.15 589.44 215 590.69 215C591.94 215 592.69 214.15 592.69 212.85V204.25C592.69 197.35 595.29 193.5 599.39 193.5C600.19 193.5 600.94 193.75 601.44 193.95C602.74 194.2 603.59 193.65 603.84 192.5C604.09 191.3 603.54 190.45 602.29 190.15Z" fill="#736989"/>
<path d="M639.745 200.6C639.745 193.95 634.894 189.65 628.294 189.65C621.294 189.65 616.094 194.95 616.094 202.55C616.094 209.85 620.995 215.35 629.145 215.35C632.295 215.35 635.295 214.5 636.945 213.4C638.145 212.6 638.395 211.65 637.745 210.6C637.095 209.5 636.095 209.45 634.895 210.05C633.495 210.8 631.395 211.6 628.945 211.6C624.045 211.6 620.944 208.45 620.294 204.15H636.294C638.444 204.15 639.745 202.8 639.745 200.6ZM620.344 200.55C621.094 196.35 624.144 193.4 628.294 193.4C632.494 193.4 635.844 196.3 635.844 200.55H620.344Z" fill="#736989"/>
<path d="M677.32 179.9C676.07 179.9 675.27 180.8 675.27 182.1V193.9H675.02C674.32 192.8 672.37 189.65 666.87 189.65C659.82 189.65 654.219 194.95 654.219 202.55C654.219 209.9 659.419 215.35 666.969 215.35C674.169 215.35 679.319 210.35 679.319 203.65V182.1C679.319 180.8 678.57 179.9 677.32 179.9ZM675.27 203.25C675.27 208.25 672.019 211.55 667.169 211.55C661.719 211.55 658.32 207.4 658.32 202.45C658.32 197.2 662.17 193.4 667.32 193.4C672.37 193.4 675.27 197.05 675.27 202.5V203.25Z" fill="#736989"/>
<path d="M733.044 189.65C727.994 189.65 725.394 192.55 724.494 194.15H724.194V182.1C724.194 180.8 723.444 179.9 722.194 179.9C720.944 179.9 720.194 180.8 720.194 182.1V203.8C720.194 210.1 724.644 215.35 732.494 215.35C740.944 215.35 745.244 209.4 745.244 202.4C745.244 194.85 739.944 189.65 733.044 189.65ZM732.644 211.55C727.444 211.55 724.244 208.2 724.244 202.7V202.35C724.244 197.05 727.394 193.4 732.444 193.4C737.594 193.4 741.194 197.1 741.194 202.55C741.194 206.85 738.794 211.55 732.644 211.55Z" fill="#736989"/>
<path d="M781.308 190C780.058 190 779.258 190.85 779.258 192.15V204C779.258 207.2 776.858 210 772.058 210.05C768.158 210.1 764.858 208.4 764.858 202.2V192.15C764.858 190.85 764.108 190 762.858 190C761.608 190 760.858 190.85 760.858 192.15V202.6C760.858 210.7 765.708 213.8 771.058 213.8C775.658 213.8 778.358 211.3 779.258 209.7H779.508V210.6C779.508 216.65 775.358 218.75 771.358 218.85C769.258 218.9 767.858 218.5 765.758 217.65C764.658 217.25 763.758 217.75 763.408 218.85C763.058 219.85 763.308 220.9 764.508 221.3C766.808 222.25 768.958 222.6 771.658 222.6C777.558 222.6 783.308 218.95 783.308 211.7V192.15C783.308 190.85 782.558 190 781.308 190Z" fill="#736989"/>
</svg>
