<svg width="500" height="500" viewBox="0 0 500 500" fill="none" xmlns="http://www.w3.org/2000/svg">
<circle cx="250" cy="211" r="140" fill="black"/>
<path fill-rule="evenodd" clip-rule="evenodd" d="M263.096 141.286C263.998 142.191 265.225 142.701 266.521 142.701C267.817 142.701 269.021 142.191 269.947 141.286C270.85 140.382 271.359 139.153 271.359 137.855C271.359 136.557 270.873 135.351 269.947 134.424L262.656 127.12C255.504 119.956 243.884 119.956 236.732 127.12L229.441 134.424C228.539 135.328 228.029 136.557 228.029 137.855C228.029 139.153 228.515 140.359 229.441 141.286C230.344 142.191 231.571 142.701 232.867 142.701C234.163 142.701 235.367 142.214 236.293 141.286L243.584 133.983C245.227 132.36 247.379 131.456 249.694 131.456C252.009 131.456 254.184 132.36 255.805 133.983L263.096 141.286ZM237.982 128.349C241.199 125.126 245.458 123.503 249.694 123.503C253.93 123.503 258.166 125.103 261.406 128.349L268.697 135.652C269.901 136.858 269.901 138.806 268.697 140.011C267.493 141.217 265.549 141.217 264.346 140.011L257.055 132.708C255.087 130.737 252.472 129.647 249.694 129.647C246.917 129.647 244.301 130.737 242.334 132.708L235.043 140.011C233.885 141.17 231.848 141.17 230.691 140.011C230.113 139.432 229.788 138.666 229.788 137.832C229.788 137.02 230.113 136.232 230.691 135.652L237.982 128.349Z" fill="white"/>
<path fill-rule="evenodd" clip-rule="evenodd" d="M184.561 186.219C185.51 187.17 186.737 187.633 187.987 187.633C189.237 187.633 190.486 187.147 191.435 186.219L225.067 152.508C226.965 150.63 226.965 147.546 225.067 145.645C223.192 143.744 220.113 143.744 218.215 145.645L184.561 179.356C182.663 181.234 182.663 184.318 184.561 186.219ZM219.465 146.874C220.044 146.294 220.808 145.97 221.641 145.97C222.474 145.97 223.238 146.294 223.817 146.874C224.395 147.454 224.719 148.219 224.719 149.053C224.719 149.865 224.395 150.653 223.817 151.233L190.162 184.944C189.005 186.103 186.968 186.103 185.811 184.944C185.232 184.364 184.908 183.599 184.908 182.765C184.908 181.953 185.232 181.165 185.811 180.585L219.465 146.874Z" fill="white"/>
<path d="M319.179 231.152C320.081 232.056 321.308 232.566 322.604 232.566C323.9 232.566 325.104 232.079 326.03 231.152L333.321 223.849C340.473 216.684 340.473 205.045 333.321 197.881L326.03 190.578C325.127 189.674 323.9 189.164 322.604 189.164C321.308 189.164 320.105 189.651 319.179 190.578C318.276 191.482 317.767 192.711 317.767 194.009C317.767 195.308 318.253 196.513 319.179 197.441L326.47 204.744C329.826 208.129 329.826 213.624 326.47 216.986L319.179 224.289C317.281 226.167 317.281 229.251 319.179 231.152Z" fill="white"/>
<path d="M307.953 186.219C308.902 187.17 310.129 187.633 311.378 187.633C312.628 187.633 313.878 187.147 314.804 186.196C316.702 184.318 316.702 181.234 314.804 179.333L281.15 145.645C279.275 143.744 276.196 143.744 274.298 145.645C272.4 147.523 272.4 150.607 274.298 152.508L307.953 186.219Z" fill="white"/>
<path fill-rule="evenodd" clip-rule="evenodd" d="M176.784 232.566C175.488 232.566 174.261 232.056 173.358 231.152L166.067 223.849C158.915 216.684 158.915 205.045 166.067 197.881L173.358 190.578C174.284 189.651 175.488 189.164 176.784 189.164C178.08 189.164 179.307 189.674 180.21 190.578C181.135 191.505 181.621 192.711 181.621 194.009C181.621 195.308 181.112 196.537 180.21 197.441L172.919 204.744C169.562 208.106 169.562 213.601 172.919 216.986L180.21 224.289C181.135 225.217 181.621 226.422 181.621 227.721C181.621 229.019 181.112 230.248 180.21 231.152C179.284 232.079 178.08 232.566 176.784 232.566ZM176.784 190.926C175.951 190.926 175.187 191.25 174.608 191.83L167.317 199.133C160.859 205.602 160.859 216.128 167.317 222.597L174.608 229.9C175.766 231.059 177.802 231.059 178.96 229.9C180.163 228.694 180.163 226.747 178.96 225.541L171.669 218.238C167.618 214.18 167.618 207.573 171.669 203.492L178.96 196.189C179.538 195.609 179.862 194.821 179.862 194.009C179.862 193.175 179.538 192.41 178.96 191.83C178.381 191.25 177.594 190.926 176.784 190.926Z" fill="white"/>
<path fill-rule="evenodd" clip-rule="evenodd" d="M218.215 276.108C219.164 277.058 220.391 277.522 221.641 277.522C222.891 277.522 224.141 277.035 225.067 276.108C226.965 274.23 226.965 271.146 225.067 269.245L191.412 235.534C189.537 233.633 186.459 233.633 184.561 235.534C182.663 237.412 182.663 240.496 184.561 242.397L218.215 276.108ZM185.811 236.763C186.39 236.183 187.153 235.859 187.987 235.859C188.82 235.859 189.584 236.183 190.186 236.763L223.817 270.497C224.395 271.077 224.719 271.865 224.719 272.676C224.719 273.488 224.395 274.276 223.817 274.856C222.659 276.015 220.623 276.015 219.465 274.856L185.811 241.122C185.232 240.542 184.908 239.777 184.908 238.942C184.908 238.131 185.232 237.342 185.811 236.763Z" fill="white"/>
<path d="M274.298 276.108C275.247 277.058 276.474 277.522 277.724 277.522C278.974 277.522 280.224 277.035 281.173 276.108L314.804 242.397C316.702 240.519 316.702 237.435 314.804 235.534C312.929 233.633 309.851 233.633 307.953 235.534L274.298 269.245C272.4 271.123 272.4 274.207 274.298 276.108Z" fill="white"/>
<path d="M236.732 294.633C240.297 298.227 244.995 300.012 249.694 300.012C254.393 300.012 259.091 298.227 262.656 294.633L269.947 287.33C270.85 286.425 271.359 285.196 271.359 283.898C271.359 282.6 270.873 281.394 269.947 280.467C269.044 279.562 267.817 279.052 266.521 279.052C265.225 279.052 264.022 279.539 263.096 280.467L255.805 287.77C252.425 291.132 246.94 291.132 243.584 287.77L236.293 280.467C235.39 279.562 234.163 279.052 232.867 279.052C231.571 279.052 230.367 279.539 229.441 280.467C228.539 281.371 228.029 282.6 228.029 283.898C228.029 285.196 228.515 286.402 229.441 287.33L236.732 294.633Z" fill="white"/>
<path d="M214.257 210.865C214.257 198.623 223.169 189.697 235.228 189.697C247.287 189.697 256.198 198.623 256.198 210.865C256.198 223.107 247.287 232.033 235.228 232.033C223.169 232.033 214.257 223.107 214.257 210.865ZM253.305 210.865C253.305 200.2 245.551 192.433 235.228 192.433C224.905 192.433 217.151 200.2 217.151 210.865C217.151 221.53 224.905 229.297 235.228 229.297C245.551 229.297 253.305 221.53 253.305 210.865ZM233.006 210.865C233.006 209.798 233.839 208.964 234.904 208.964C235.968 208.964 236.802 209.798 236.802 210.865C236.802 211.931 235.968 212.766 234.904 212.766C233.839 212.766 233.006 211.931 233.006 210.865Z" fill="white"/>
<path d="M278.048 183.159C278.048 183.993 277.793 184.48 276.729 184.48H274.159C267.725 184.48 263.674 187.796 263.674 197.209V238.223C263.674 239.383 263.188 239.87 262.262 239.87C261.36 239.87 260.85 239.383 260.85 238.223V196.722C260.85 187.703 265.387 181.837 273.72 181.837H276.682C277.793 181.837 278.048 182.347 278.048 183.159ZM276.474 199.945C276.474 200.849 276.057 201.359 275.062 201.359H269.623C268.628 201.359 268.211 200.872 268.211 199.945C268.211 199.041 268.628 198.53 269.623 198.53H275.062C276.057 198.554 276.474 199.041 276.474 199.945Z" fill="white"/>
<path d="M118 399.731C118 395.537 121.138 392.462 125.517 392.462C129.896 392.462 133.042 395.529 133.042 399.731C133.042 403.901 129.904 407 125.517 407C121.138 407 118 403.901 118 399.731ZM129.639 399.731C129.639 397.368 128.054 395.537 125.517 395.537C122.979 395.537 121.394 397.368 121.394 399.731C121.394 402.094 122.979 403.901 125.517 403.901C128.054 403.901 129.639 402.094 129.639 399.731ZM124.14 399.731C124.14 398.917 124.748 398.291 125.605 398.291C126.469 398.291 127.078 398.909 127.078 399.731C127.078 400.552 126.469 401.139 125.605 401.139C124.74 401.139 124.14 400.544 124.14 399.731Z" fill="black"/>
<path d="M147.322 398.182C149.916 398.8 152.39 399.449 152.39 402.579C152.39 405.623 150.084 407 146.77 407C144.032 407 142.047 406.069 141.119 404.997C140.398 404.152 140.486 403.416 141.175 402.775C142.039 401.961 142.792 402.297 143.28 402.72C144.056 403.424 145.009 404.16 146.85 404.16C148.235 404.16 149.1 403.706 149.1 402.806C149.1 401.906 148.179 401.593 145.754 400.944C143.36 400.294 141.231 399.676 141.231 396.891C141.231 393.761 143.824 392.47 146.706 392.47C148.347 392.47 150.22 392.892 151.373 394.105C151.861 394.582 152.238 395.263 151.373 396.186C150.509 397.063 149.876 396.804 149.268 396.358C148.723 395.967 147.771 395.287 146.33 395.287C145.353 395.287 144.457 395.599 144.457 396.499C144.473 397.423 145.449 397.759 147.322 398.182Z" fill="black"/>
<path d="M174.356 394.41V400.639C174.356 405.232 171.098 407 167.583 407C164.037 407 160.787 405.224 160.787 400.639V394.41C160.787 393.424 161.451 392.689 162.484 392.689C163.493 392.689 164.181 393.424 164.181 394.41V400.412C164.181 402.916 165.622 403.901 167.583 403.901C169.513 403.901 170.953 402.916 170.953 400.412V394.41C170.953 393.424 171.642 392.689 172.651 392.689C173.691 392.689 174.356 393.424 174.356 394.41Z" fill="black"/>
<path d="M183.802 404.833C183.802 403.651 184.778 402.689 186.019 402.689C187.26 402.689 188.236 403.643 188.236 404.833C188.236 406.045 187.26 407 186.019 407C184.778 407 183.802 406.038 183.802 404.833ZM187.716 389.903V399.285C187.716 400.302 187.028 401.03 186.019 401.03C184.978 401.03 184.322 400.294 184.322 399.285V389.903C184.322 388.886 184.986 388.158 186.019 388.158C187.028 388.158 187.716 388.886 187.716 389.903Z" fill="black"/>
<path d="M205.023 387.673C205.023 388.095 204.791 388.346 204.303 388.346H203.15C200.9 388.346 199.604 389.527 199.604 392.485V405.951C199.604 406.484 199.347 406.765 198.883 406.765C198.395 406.765 198.131 406.484 198.131 405.951V392.383C198.131 389.113 199.828 387 203.03 387H204.295C204.799 387 205.023 387.25 205.023 387.673ZM204.447 393.424C204.447 393.878 204.19 394.128 203.694 394.128H201.877C201.389 394.128 201.125 393.878 201.125 393.424C201.125 392.947 201.381 392.689 201.877 392.689H203.694C204.19 392.689 204.447 392.939 204.447 393.424Z" fill="black"/>
<path d="M221.393 393.901C221.281 394.293 220.993 394.52 220.441 394.355C220.064 394.183 219.464 393.933 218.744 393.933C216.062 393.933 214.765 396.468 214.765 400.099V405.959C214.765 406.491 214.509 406.773 214.045 406.773C213.556 406.773 213.292 406.491 213.292 405.959V393.502C213.292 392.97 213.548 392.689 214.045 392.689C214.509 392.689 214.765 392.97 214.765 393.479V395.482H214.877C215.197 394.496 216.086 392.524 218.792 392.524C219.744 392.524 220.433 392.837 220.865 393.002C221.369 393.166 221.513 393.479 221.393 393.901Z" fill="black"/>
<path d="M237.363 406.155C237.363 406.609 237.131 406.828 236.587 406.828C231.632 406.828 228.574 403.87 228.574 399.731C228.574 395.451 231.776 392.524 236.211 392.524C240.421 392.524 242.895 394.692 242.895 398.776V405.928C242.895 406.46 242.639 406.773 242.142 406.773C241.654 406.773 241.39 406.46 241.39 405.928V399.222C241.39 395.506 239.661 393.901 236.179 393.901C232.608 393.901 230.071 396.351 230.071 399.676C230.071 403.056 232.488 405.451 236.579 405.451C237.131 405.451 237.363 405.67 237.363 406.155Z" fill="black"/>
<path d="M271.585 397.532V405.952C271.585 406.484 271.297 406.765 270.833 406.765C270.368 406.765 270.08 406.484 270.08 405.952V397.759C270.08 394.747 268.175 393.901 266.51 393.901C264.837 393.901 262.94 394.747 262.94 397.759V405.952C262.94 406.484 262.651 406.765 262.187 406.765C261.723 406.765 261.435 406.484 261.435 405.952V397.759C261.435 394.747 259.529 393.901 257.864 393.901C256.191 393.901 254.262 394.747 254.262 397.759V405.952C254.262 406.484 254.006 406.765 253.542 406.765C253.053 406.765 252.789 406.484 252.789 405.952V397.532C252.789 393.901 255.327 392.516 257.864 392.516C259.938 392.516 261.723 393.784 262.187 395.333C262.619 393.784 264.405 392.516 266.51 392.516C269.047 392.516 271.585 393.901 271.585 397.532Z" fill="black"/>
<path d="M293.127 404.746C293.383 405.059 293.327 405.419 292.895 405.764C292.062 406.437 290.213 406.945 288.316 406.945C283.537 406.945 280.735 403.901 280.735 399.739C280.735 395.545 283.729 392.532 287.883 392.532C291.598 392.532 294.311 394.895 294.311 398.643C294.311 399.684 293.767 400.247 292.782 400.247H287.363C286.899 400.247 286.611 400.02 286.611 399.574C286.611 399.152 286.899 398.925 287.363 398.925H292.895C292.895 395.599 290.589 393.886 287.939 393.886C284.569 393.886 282.232 396.366 282.232 399.746C282.232 403.095 284.425 405.607 288.252 405.607C289.949 405.607 291.422 405.099 292.03 404.621C292.462 404.324 292.863 404.379 293.127 404.746Z" fill="black"/>
<path d="M312.667 403.956C312.203 405.505 310.417 406.804 308.344 406.804C305.807 406.804 303.277 405.396 303.277 401.765V393.502C303.277 392.97 303.533 392.689 304.029 392.689C304.494 392.689 304.75 392.97 304.75 393.502V401.531C304.75 404.543 306.679 405.419 308.352 405.419C310.025 405.419 311.922 404.543 311.922 401.531V393.502C311.922 392.97 312.211 392.689 312.675 392.689C313.139 392.689 313.427 392.97 313.427 393.502V401.531C313.427 404.543 315.333 405.419 316.998 405.419C318.663 405.419 320.568 404.543 320.568 401.531V393.502C320.568 392.97 320.856 392.689 321.32 392.689C321.785 392.689 322.073 392.97 322.073 393.502V401.757C322.073 405.388 319.535 406.797 316.998 406.797C314.884 406.797 313.099 405.505 312.667 403.956Z" fill="black"/>
<path d="M331.207 399.731C331.207 395.56 334.321 392.524 338.555 392.524C342.79 392.524 345.904 395.568 345.904 399.731C345.904 403.894 342.79 406.937 338.555 406.937C334.321 406.937 331.207 403.901 331.207 399.731ZM344.399 399.731C344.399 396.351 341.918 393.901 338.547 393.901C335.177 393.901 332.696 396.351 332.696 399.731C332.696 403.111 335.169 405.56 338.547 405.56C341.926 405.56 344.399 403.111 344.399 399.731ZM337.603 399.731C337.603 399.254 337.979 398.886 338.499 398.886C338.988 398.886 339.364 399.254 339.364 399.731C339.364 400.208 338.988 400.576 338.499 400.576C337.971 400.576 337.603 400.208 337.603 399.731Z" fill="black"/>
<path d="M363.179 393.901C363.067 394.293 362.779 394.52 362.226 394.355C361.85 394.183 361.25 393.933 360.529 393.933C357.848 393.933 356.551 396.468 356.551 400.099V405.959C356.551 406.491 356.295 406.773 355.83 406.773C355.342 406.773 355.078 406.491 355.078 405.959V393.502C355.078 392.97 355.334 392.689 355.83 392.689C356.295 392.689 356.551 392.97 356.551 393.479V395.482H356.663C356.983 394.496 357.872 392.524 360.585 392.524C361.538 392.524 362.226 392.837 362.659 393.002C363.147 393.166 363.291 393.479 363.179 393.901Z" fill="black"/>
<path d="M382.095 406.742C381.631 406.851 381.262 406.601 381.142 406.124L380.366 403.361C379.733 401.077 378.292 400.036 376.163 400.036H373.225V405.951C373.225 406.484 372.969 406.765 372.505 406.765C372.016 406.765 371.752 406.484 371.752 405.951V387.814C371.752 387.282 372.008 387 372.505 387C372.969 387 373.225 387.282 373.225 387.814V398.659H376.163C378.036 398.659 379.045 397.759 379.709 395.396L380.398 393.228C380.51 392.775 380.862 392.61 381.294 392.72C381.759 392.861 381.927 393.174 381.783 393.706L381.03 396.21C380.686 397.305 379.934 398.604 378.549 399.199C380.102 399.707 381.318 401.202 381.775 402.915L382.551 405.732C382.703 406.264 382.559 406.632 382.095 406.742Z" fill="black"/>
</svg>
